<?xml version="1.0" encoding="utf-8"?>
<!-- Generator: Adobe Illustrator 12.0.0, SVG Export Plug-In . SVG Version: 6.00 Build 51448)  -->
<!DOCTYPE svg PUBLIC "-//W3C//DTD SVG 1.1//EN" "http://www.w3.org/Graphics/SVG/1.1/DTD/svg11.dtd" [
	<!ENTITY ns_svg "http://www.w3.org/2000/svg">
	<!ENTITY ns_xlink "http://www.w3.org/1999/xlink">
]>
<svg  version="1.1" id="Layer_1" xmlns="&ns_svg;" xmlns:xlink="&ns_xlink;" width="155.91" height="171.896"
	 viewBox="0 0 155.91 171.896" overflow="visible" enable-background="new 0 0 155.91 171.896" xml:space="preserve">
<g>
	<g>
		<path fill="none" d="M76.149,160.896c0,0,70.582-42.163,70.582-87.852c0-35.719-24.373-63.396-67.957-63.396
			c-43.58,0-69.526,27.677-69.526,63.396C9.247,114.88,76.149,160.896,76.149,160.896z"/>
		<g>
			<path fill="#7B7C7A" d="M77.918,159.16c-1.319,0.912,0.87-0.24-0.826,0.654C77.213,159.599,77.431,159.362,77.918,159.16z"/>
			<path fill="#7B7C7A" d="M70.95,156.64c-4.602-2.506-9.446-7.377-14.045-10.71c-0.525-0.411,0.401-0.206-0.798-1.108
				c-4.563-3.127-10.707-9.301-15.021-14.423l0.368,0.206c-0.835-0.961-2.196-1.811-3.072-2.84c0.051-0.062,0.377,0.238,0.242-0.063
				c-0.401-0.089-1.756-1.697-2.263-2.009c-0.288-0.459-0.115-0.547-0.497-1.128l-0.714-0.396c-1.925-1.166-3.41-3.946-5.512-6.009
				c0.138,0.071,0.357,0.269,0.259,0.048c-3.302-3.382-6.763-8.182-9.684-12.575c0.194,0.127,0.444,0.196,0.369-0.118
				c-0.39-0.063-1.325-1.398-2.068-2.604c-0.056-0.702-1.494-1.942-2.093-3.516l0.123,0.096c-0.839-0.948-0.686-1.693-1.474-2.414
				l-0.128-0.807c-0.594-0.315-0.543-1.707-1.154-2.542l-0.063,0.063c-0.503-0.826-0.479-1.377-0.862-2.181l0.014-0.096
				c-0.857-1.901-1.058-3.112-1.322-2.969c-0.011-0.767,0.779,1.864,0.747,0.661c-2.621-6.292-3.721-13.487-3.103-20.341
				c0.165-0.772,0.226-1.265,0.355-1.43c-0.094-0.695,0.214-2.568,0.133-3.207c-0.025,0.229,0.225-0.418,0.291-0.775
				c0.293-1.215-0.157-1.405,0.176-2.743c0.007,0.558,0.083,0.758,0.227,0.597c-0.146-1.209,0.332-2.715,0.563-4.081
				c0.001,0.222-0.045,0.553,0.065,0.524c0.086-1.537,0.69-2.669,0.858-3.995l0.047,0.528c0.853-1.963-0.181-0.711,0.542-2.42
				c-0.091,0.438,0.029,0.312,0.075,0.41c0.285-1.716,1.179-4.375,1.913-5.935c-0.021,0.104,0.038,0.1,0.038,0.1
				c0.82-1.688,1.557-3.515,2.571-5.313c0.46-0.602,0.266,0.433,1.229-1.293c-0.355-0.13,1.613-2.96,0.656-2.189
				c0.951-1.416,2.784-3.408,3.342-4.409c-0.352,0.695,0.851-0.371,0.025,0.768l0.816-0.702c0.022,0.222-0.698,0.833-0.345,0.687
				c0.363-0.604,1.583-2.241,2.097-2.624c0.727-1.088,1.224-2.28,2.682-3.831c-0.635,0.777,0.697-0.085,0.242,0.414l1.77-2.453
				c0.527-0.475,0.306,0.123,1.021-0.617c-0.102-0.042,0.198-0.38,0.384-0.645c0.184-0.2,2.268-1.899,2.76-1.743
				c0.342-0.063-0.901,0.715-0.181,0.376c1.067-0.741,1.043-0.877,2.114-1.623l0.048,0.026c0.735-0.441,2.005-1.572,1.127-1.212
				c-0.502,0.333,0.305,0.057-0.485,0.472c0.36-0.565,1.648-1.385,2.812-1.997c-0.364,0.267-0.267,0.325-0.372,0.5
				c1.41-1.067,2.973-2.137,4.714-3.074c-0.044-0.163-0.551,0.555-0.833,0.635c2.39-0.821,4.658-2.387,6.728-2.864
				c-0.316,0.134-0.258-0.168-0.221-0.139c1.17-0.347,1.198-0.091,1.923-0.417c0.124,0.116,0.935-0.345,1.701-0.633
				c0.372-0.229,0.224,0.005-0.448,0.233c1.016-0.552,5.354-2,8-2.223c-0.072-0.084,1.51-0.691,2.106-0.809l-0.191,0.275
				c0.557-0.023,1.993-0.345,2.124-0.163c1.211-0.561-4.842,1.09-3.162,0.588c0.475,0.095,2.312-0.876,2.001-0.475
				c1.197-0.157,2.331-0.559,3.507-0.489c-0.337,0.004-0.931,0.436,0.034,0.299c1.701-0.253,0.471-0.169,1.849-0.417l0.86-0.201
				C69.52,8.931,71.017,9,70.358,8.831c0.223,0.115,2.496-0.23,2.342,0.131l-0.221,0.301c0.739-0.052,1.197-0.355,1.775-0.507
				c0.1,0.022,0.298,0.073,0.262,0.121c0.103-0.45,1.776-0.034,2.653-0.413c1.563,0.018,3.974,0.068,4.702,0.353
				c1.202-0.087,2.309-0.203,3.672-0.051c-0.275,0.03-0.648,0.027-0.732,0.12c0.851,0.166,1.068,0.058,1.86,0.018
				c-0.178,0.021,1.687,0.467,2.613,0.737c1.194,0.016,0.817-0.273,0.954-0.404c1.021,0.593,3.402,0.093,4.685,0.755
				c-0.411-0.066-1.758-0.046-0.79,0.179c0.989,0.628,2.206,0.14,3.887,0.713l-0.345-0.447c0.72,0.388,2.591,0.348,2.327,0.67
				c0.611-0.015,1.997,0.574,1.895,0.208c2.664,1.197,6.847,1.882,8.193,3.325c0.403,0.109,1.331,0.576,1.209,0.324
				c-0.557-0.457-0.941-0.253-1.125-0.479c0.348,0.139,0.459,0.081,0.516,0.052c0.797,0.435,1.437,0.737,0.537,0.671
				c1.713,1.049,2.209,0.145,4.383,1.546c-0.17,0.074-0.026,0.219,0.638,0.563l1.362,0.476c1.418,0.864,0.652,0.75,0.562,0.985
				c0.782,0.405,1.738,0.899,2.144,1.013l0.701,0.88c-0.512-0.639,0.676,0.293,1.047,0.483l-0.371-0.189
				c0.069,0.182,0.938,0.717,1.377,0.99c-0.01-0.197-0.822-0.851-1.262-1.217c0.43,0.171,0.989,0.599,1.557,0.843
				c-0.307,0.082,1.072,0.976,1.63,1.402c0.597,0.542,0.827,0.424,1.005,0.579c-0.064,0.111,0.977,0.891,0.391,0.609
				c-0.232-0.149-0.395-0.512-0.807-0.727c0.34,0.426,0.15,0.554,1.081,1.161c0.7,0.458,0.153-0.507,1.235,0.655
				c-0.351-0.229-0.473-0.206-0.771-0.354l1.021,1.072l0.199-0.122c0.109,0.174-0.007,0.097,0.041,0.178
				c0.49,0.121,1.752,1.43,2.121,1.536c0.521,0.538,0.951,1.272,1.411,1.816l-0.106-0.089c0.49,0.732,1.33,1.528,1.938,1.976
				l-0.063,0.003c0.342,0.335,0.996,1.249,1.463,1.646c0.576,1.074-0.435,0.83,0.572,1.732c0.719,0.971,1.457,1.305,1.285,0.829
				c1.211,1.822,2.608,3.912,3.379,5.808c0.236,0.232,0.188,0.032,0.562,0.574c1.245,2.967,3.118,6.1,3.39,8.726
				c-0.383-0.853-0.23,0.014-0.345,0.071c0.432,0.665,0.094,0.938,0.506,1.093c0.168-0.132,0.285-0.089,0.076-0.974
				c0.798,1.767,1.507,4.613,1.515,5.704c-0.027-0.54,0.124-0.152,0.276,0.244c-0.345-0.062-0.075,1.324,0.272,2.345l0.227,0.109
				l-0.049,0.719c0.117,0.395,0.466,0.379,0.422,1.464c-0.068,0.068-0.137,0.142-0.165,0.343c0.304,1.068,0.78,2.592,0.772,3.806
				l-0.171,1.002c0.054,0.507,0.263,1.36,0.306,0.45c-0.082,2.063-0.047,3.38-0.268,4.034c0.855,3.484,0.426,8.811-0.591,12.821
				l-0.115-0.153c-0.379,1.057,0.121,0.624-0.149,1.359c-0.057-0.382-0.481,0.752-0.455-0.139c-0.473,1.512-0.283,2.032-0.508,3.047
				c0.139,0.205,0.129-0.83,0.304-0.569c0.013,0.19-0.794,2.058-0.591,2.385c-0.228,0.347-0.338-0.021-0.387-0.263l-0.154,0.97
				c-0.683,1.005,0.231-2.756-0.543-1.706l-0.217,0.854c-0.535,0.7,0.357-2.318-0.39-0.256c-0.124,0.96-0.084,1.848,0.365,1.101
				c-0.648,1.894,0.315,1.104-0.493,3.121c-0.373,0.487,0.591-1.636,0.216-1.332c-0.601,0.856-0.588,1.967-1.054,2.756
				c0.523-0.87,0.438,0.018,0.21,0.634c-0.589,0.944,0.05-0.763-0.634,0.644c0.046,0.301-0.446,1.662,0.184,0.581
				c0.102,0.676-0.77,1.439-0.888,2.333c-0.462,0.334,0.161-1.714-0.724-0.243c0.358-0.126-0.686,2.021,0.082,1.4
				c-0.385,0.561-0.597,0.525-0.507,0.021c-0.59,0.766-0.688,2.28-1.282,2.308l0.066,0.417c-0.23,0.217-0.508,0.552-0.884,0.897
				c-0.438,0.716-1.101,2.514-1.399,2.237c-0.083,0.267-1.176,1.85-0.531,1.383c0.818-0.898,0.564-1.272,1.236-1.643
				c-0.688,0.574-0.871,1.497-1.183,2.124l-0.192,0.011c-0.179,0.376-0.736,1.146-0.742,1.455c0.104-0.313-0.076-0.234-0.289,0.017
				l-0.048,0.493c-0.848,1.454-0.536,0.111-1.438,1.466l0.568-1.111c-0.113,0.254-0.621,0.57-1.021,1.24
				c-0.006,0.367-0.133,0.977-0.152,1.284c-0.469,0.798-0.438,0.188-0.796,1.051l0.492-1.107c0.049-0.188-0.755,0.433-1.472,1.42
				c-0.41,0.667-0.933,1.799-0.069,0.906c-0.379,0.484-1.017,1.077-0.837,0.601c-0.807,1.135,0.296-0.003-0.348,1.021
				c-0.426,0.29-1.508,1.385-2.273,1.939l0.516-1.188l-0.522,0.641c0.466-1.002-0.519,0.276-0.362-0.379
				c-0.4,0.398-0.766,0.983-1.059,1.45c1.443-0.946-0.695,1.839-0.051,1.763c-1.386,1.818-1.738,0.36-2.804,2.584
				c0.347-0.21-0.153,0.842,0.714-0.306c-0.984,1.016-0.318,1.012-1.576,2.125c0.696-1.038-1.218,0.677-0.215-0.821
				c0.029,0.187,0.75-0.66,0.903-0.891c-0.517,0.314-0.249-0.389-1.216,0.678c-0.551,0.688-1.395,1.547-1.102,1.584
				c0.209,0.147,0.91-0.987,0.707-0.405c-1.152,1.326-1.634,1.271-1.813,2.105c0.743-0.824,1.124-0.846,1.233-0.71l-0.817,1.005
				l0.053-0.297c-1.528,1.404-0.192,0.668-1.644,2.06l-0.905,0.427c0.147-0.527,2.153-1.975,1.563-2.053
				c-0.908,0.933-1.068,1.383-2.021,2.166l0.586-0.71c-0.345,0.317-1.106,0.204-2.171,1.764c-0.583,0.773-0.064,0.297,0.04,0.438
				c-1.472,1.484-1.813,2.032-2.772,2.979c-0.021-0.431-1.768,1.593-0.908,0.332c0.633-0.321,2.82-2.41,3.133-3.15
				c-0.822,0.242,1.211-1.106,1.238-1.715c-1.194,1.167-1.412,0.824-1.783,0.826c-0.344,0.31-0.598,0.691-0.77,0.911
				c0.026,0.312,0.465-0.106,0.664,0.052c-1.406,1.225-2.604,2.57-3.213,3.43c-0.544,0.327-0.563,0.015-0.031-0.495
				c-1.594,1.539-3.371,3.104-5.023,4.41c1.291-0.59-1.713,1.606-0.795,1.252c0.912-0.671,1.832-1.092,1.478-0.549
				c-0.551,0.443-0.097-0.146-0.376-0.019c-0.541,0.754-1.277,0.654-1.736,1.479c1.467-1.402-0.014-0.621,0.07-1.1
				c-1.006,1.067-0.096-0.211-1.204,0.714c-1,1.063-2.282,2.314-3.507,3.37c-1.757,1.052-4.031,3.188-5.471,4.292
				c-0.853,0.446-0.553-0.224-1.408,0.347c-0.959,0.732,0.941-0.233-0.579,0.714l0.097-0.16c-0.381,0.398-2.779,1.746-2.904,2.473
				l0.22-0.636c-0.29,0.168-0.483,0.424-0.685,0.616c-0.086-0.094-0.467,0.039-0.074-0.342c-1.051,0.425-1.853,1.381-2.824,2.078
				l0.76-0.259c-1.574,1.324-2.829,1.924-4.427,3.1l-0.074-0.218l-0.905,0.77c0.121-0.338-0.855,0.145-1.274,0.639l2.239-2.153
				c0.776-0.37-0.616,0.743-0.055,0.625c0.482-0.098,1.969-1.176,2.084-1.525c-0.588,0.382-0.589,0.438-0.994,0.812
				c-0.365-0.125,0.522-0.712,0.836-1.186c-0.295,0.221-0.775,0.439-0.787,0.563c0.511-0.531,1.09-0.969,2.069-1.659
				c-0.597,0.563,0.474-0.097,0.271,0.151c-0.073-0.273,0.81-1.009,2.061-1.81c1.049-0.355,2.131-1.804,3.563-2.75
				c-0.393,0.639-0.982,1.34-1.76,2.05c0.953-0.528,0.965-0.717,1.92-1.247c0.297-0.479,0.405-0.956,1.453-1.903l0.184,0.115
				c0.955-0.85,0.773-1.086,2.086-2.04c2.259-1.62,4.484-3.419,6.13-4.759l0.19,0.104c0.638-1.08,2.912-2.646,3.979-3.845
				c2.167-1.628,4.255-4.036,5.489-4.738c3.391-3.356,6.204-6.429,9.604-9.991l-0.341,0.813c0.436-0.802,0.512-0.312,1.063-0.984
				c-0.844,0.58,0.582-1.097,0.856-1.668c1.614-1.499,3.284-3.789,4.308-5.448l0.205,0.066c0.944-1.755,2.621-3.407,4.096-5.359
				c0.227-0.183,0.666-0.412,1.048-1.036c0.468-1.287,0.872-1.851,1.778-3.571c0.736-1.204,2.01-3.116,2.83-4.304
				c2.224-4.832,4.687-9.685,5.93-15.028l0.346-0.312c1.002-5.229,2.091-11.593,1.395-16.168l0.426,0.422
				c0.064-1.438-0.245-3.252-0.52-2.863c0.068-1.442-0.629-3.503-0.387-4.45c-0.135-1.455-0.382-1.748-0.671-2.921
				c-0.542-2.851-0.683-3.945-1.554-6.542l0.191,0.651c0.182,0.26,0.356,0.239,0.165-0.417c-0.435-0.94-1.09-3.615-1.228-2.49
				c-0.549-2.918-2.723-6.225-3.672-8.906c0.004,0.271-0.377-0.337-0.605-0.551c-1.213-2.242-2.438-4.658-3.9-6.118
				c-0.187-0.367,0.563,0.389-0.041-0.462c-0.403-0.468-0.146,0.095-0.651-0.474c-2.695-3.111-5.341-6.45-8.288-8.832
				c-5.34-4.054-11.451-7.515-17.484-9.781l0.104-0.069c-2.174-0.287-4.711-1.936-6.523-1.864c-0.475-0.198-1.895-0.457-1.48-0.56
				c-1.748-0.046-4.644-1.424-7.202-1.282c0.226,0.037,0.358,0.034,0.629,0.025c-2.483-0.468-4.706-0.645-7.358-0.908
				c0.272-0.031,0.768-0.042,0.855-0.136c-1.024-0.229-2.471,0.313-3.012-0.179c-0.594-0.021-0.433,0.219-0.069,0.22
				c-5.839-0.558-12.11,0.213-18.075,1.146c-4.329,0.429-0.406-0.783-3.708,0.24c-0.294-0.029-0.164,0.219-0.228,0.133
				c-1.268,0.408-2.143-0.075-2.992,0.359c0.441,0.201-0.563,0.287-0.546,0.463c-2.618,0.479-3.186,0.493-5.133,1.303l0.103-0.191
				c-2.255,1.035-4.908,2.075-6.621,3.304C33.35,23.614,23.707,33.068,17.92,44.683c-5.68,11.359-7.878,24.769-5.635,37.35
				c0.254,3.066,0.432,3.294,1.586,6.458c-0.11-0.107-0.201-0.3-0.177-0.067c0.37,0.048,0.888,2.218,1.293,2.403
				c1.762,4.527,3.933,8.494,6.562,12.794c-0.453-0.657-0.87-0.873-0.375-0.063l0.715,0.724l0.01,0.187
				c0.394,0.521,0.913,1.027,0.639,0.407c7.08,10.484,15.024,20.334,24.076,29.044c2.043,2.176,5.232,4.985,7.706,7.084
				c6.883,6.701,13.445,12.482,21.534,17.954C75.855,158.947,74.311,158.921,70.95,156.64z"/>
			<path fill="#7B7C7A" d="M79.521,158.091c0.377-0.05,1.369-0.588,0.737,0.084C80.082,158.106,79.505,158.276,79.521,158.091z"/>
			<path fill="#7B7C7A" d="M104.663,141.534c-0.001-0.063,0.374-0.225,0.465-0.267c-0.278,0.248-0.458,0.576-0.741,0.703
				C104.671,141.719,104.576,141.696,104.663,141.534z"/>
			<path fill="#7B7C7A" d="M110.551,136.538c0.008,0.183-1.133,1.389-1.861,2.038L110.551,136.538z"/>
			<path fill="#7B7C7A" d="M116.238,132.063c0.529-0.351,0.455-0.181-0.147,0.405C115.994,132.458,116.166,132.235,116.238,132.063z
				"/>
			<path fill="#7B7C7A" d="M116.372,131.465c0.424-0.423,0.694-0.57,0.962-0.717C117.23,130.673,116.4,131.78,116.372,131.465z"/>
			<path fill="#7B7C7A" d="M127.419,120.312c0.235-0.296,0.674-0.997,1.026-1.161C128.104,119.378,127.393,120.673,127.419,120.312z
				"/>
			<path fill="#7B7C7A" d="M131.85,114.484c0.147-0.186,0.227-0.247,0.355-0.492c0.311-0.311,0.125,0.123-0.082,0.428
				L131.85,114.484z"/>
			<polygon fill="#7B7C7A" points="96.387,10.259 97.175,10.357 97.032,10.474 			"/>
			<path fill="#7B7C7A" d="M39.678,17.92c-0.649,0.46-0.549,0.146-0.677,0.19C39.623,17.752,38.857,18.395,39.678,17.92z"/>
			<polygon fill="#7B7C7A" points="17.75,39.906 17.87,39.699 18.084,39.921 			"/>
		</g>
	</g>
</g>
<g>
	<g>
		<path fill="none" d="M155.909,73.009c0-40.205-29.207-71.359-78.261-71.359c-49.059,0-76.495,31.154-76.495,71.359
			c0,51.429,79.449,98.888,79.449,98.888S155.909,120.101,155.909,73.009z"/>
		<g>
			<path fill="#7B7C7A" d="M155.314,71.828c0.148,1.808,0.211-0.978,0.168,1.181C155.354,72.765,155.248,72.416,155.314,71.828z"/>
			<path fill="#7B7C7A" d="M155.096,78.992c0.073,5.957-0.328,9.253-2.641,15.206c-0.325,0.8-1.25,2.5-3.5,6.25
				c-2.105,5.913-7.242,13.018-12.217,18.714l-0.43-0.427c-0.918,1.105-1.078,2.728-2.094,3.876
				c-0.066-0.041-0.391-0.442-0.695-0.234c-0.062,0.444-1.023,2.221-1.314,2.821c-0.461,0.401-0.566,0.236-1.15,0.765l-0.361,0.839
				c-1.076,2.286-4.52,4.441-6.536,7.095c0.063-0.159,0.254-0.434,0.028-0.282c-3.326,4.19-8.106,8.872-12.379,13.042
				c0.107-0.232,0.148-0.51-0.178-0.349c-0.014,0.418-1.328,1.712-2.47,2.835c-0.722,0.277-1.854,2.043-3.37,3.167l0.078-0.155
				c-0.833,1.153-1.655,1.232-2.27,2.241l-0.818,0.402c-0.192,0.708-1.653,1.155-2.399,2.047l0.082,0.039
				c-0.763,0.771-1.325,0.977-2.05,1.676l-0.104,0.024c-1.746,1.574-2.947,2.262-2.701,2.475c-0.799,0.321,1.688-1.535,0.451-1.003
				c-2.885,2.565-5.922,5.05-9.043,7.438c-2.873,1.976-6.629,6.505-9.908,2.499c-0.67-0.588-1.12-0.928-1.22-1.138
				c-0.686-0.368-2.472-1.563-3.146-1.823c0.22,0.142-0.323-0.418-0.654-0.662c-1.1-0.893-1.477-0.578-2.668-1.585
				c0.556,0.283,0.788,0.318,0.685,0.102c-1.231-0.545-2.657-1.599-3.974-2.447c0.229,0.098,0.555,0.29,0.566,0.175
				c-1.564-0.76-2.494-1.879-3.809-2.621l0.561,0.183c-1.811-1.609-0.81-0.104-2.399-1.468c0.436,0.256,0.338,0.092,0.455,0.085
				c-1.765-0.894-4.196-2.909-5.793-4.021c0.107,0.052,0.114-0.008,0.114-0.008c-1.683-1.288-3.356-2.742-5.235-4.127
				c-0.599-0.604,0.5-0.17-1.264-1.552c-0.188,0.352-2.997-2.349-2.266-1.172c-1.418-1.292-3.607-3.396-4.627-4.171
				c0.734,0.472-0.389-0.961,0.814,0.082l-0.742-0.974c0.235,0.008,0.884,0.866,0.728,0.469c-0.599-0.523-2.43-1.958-2.895-2.504
				c-1.22-0.854-2.528-1.448-4.268-3.098c0.901,0.688-0.169-0.741,0.418-0.252l-2.875-1.842c-0.575-0.552,0.077-0.317-0.794-1.079
				c-0.03,0.111-0.421-0.209-0.721-0.404c-0.178-0.247-2.368-2.333-2.341-2.832c-0.141-0.354,0.955,0.884,0.438,0.156
				c-1.02-1.057-1.134-1.042-2.135-2.122l0.017-0.055c-0.61-0.754-2.04-2.018-1.481-1.102c0.447,0.511-0.009-0.336,0.586,0.478
				c-0.624-0.359-1.818-1.595-2.765-2.729c0.371,0.346,0.405,0.234,0.614,0.319c-1.498-1.322-2.958-2.848-4.409-4.532
				c-0.157,0.082,0.762,0.45,0.893,0.765c-1.605-2.349-3.896-4.415-4.987-6.555c0.254,0.295-0.078,0.312-0.054,0.262
				c-0.794-1.119-0.556-1.208-1.125-1.899c0.071-0.157-0.665-0.905-1.215-1.646c-0.354-0.336-0.073-0.238,0.385,0.418
				c-0.852-0.963-3.81-5.191-5.031-7.917c-0.057,0.101-1.177-1.438-1.491-2.05l0.329,0.131c-0.182-0.609-1.093-2.015-0.942-2.217
				c-0.954-1.15,2.809,4.866,1.704,3.219c-0.072-0.538-1.62-2.255-1.144-2.024c-0.647-1.204-1.396-2.331-1.767-3.604
				c0.126,0.359,0.756,0.877,0.276-0.118c-0.845-1.757-0.356-0.447-1.043-1.876l-0.446-0.892c-0.23,0.023-0.605-1.643-0.574-0.872
				c0.086-0.289-1.14-2.617-0.713-2.556l0.37,0.158c-0.299-0.785-0.707-1.218-1.032-1.813c-0.008-0.114-0.018-0.346,0.04-0.317
				C2.592,90.315,2.48,88.38,1.875,87.5c-0.225-1.781-1.036-4.421-0.853-5.309c-0.322-1.332-0.654-2.559-0.773-4.119
				c0.084,0.306,0.155,0.726,0.263,0.803c-0.021-0.982-0.135-1.212-0.247-2.106c0.076,0.194,0.167-1.979,0.273-3.063
				c-0.2-1.351-0.37-0.885-0.539-1.022c0.492-1.227-0.119-3.835,0.346-5.367c0.04,0.475,0.13,1.983,0.289,0.867
				c0.509-1.198-0.289-2.514,0.24-4.468l-0.427,0.446c0.341-0.856,0.177-2.946,0.519-2.695c-0.042-0.682,0.43-2.315,0.05-2.152
				c0.884-3.159,1.4-7.909,2.724-9.618c0.092-0.463,0.52-1.558,0.271-1.386c-0.436,0.682-0.21,1.079-0.431,1.314
				c0.123-0.403,0.059-0.52,0.026-0.578c0.4-0.945,0.678-1.696,0.655-0.691c0.974-2.05,0.05-2.463,1.338-5.078
				c0.083,0.176,0.224-0.003,0.548-0.785l0.428-1.569c0.822-1.688,0.739-0.829,0.983-0.765c0.373-0.924,0.855-2.041,0.959-2.5
				l0.882-0.899c-0.641,0.656,0.278-0.78,0.46-1.216L9.68,35.977c0.184-0.105,0.704-1.135,0.971-1.656
				c-0.203,0.042-0.847,1.029-1.209,1.563c0.16-0.494,0.582-1.171,0.812-1.825c0.103,0.324,0.953-1.329,1.4-1.984
				c0.581-0.707,0.426-0.954,0.589-1.166c0.119,0.052,0.897-1.192,0.623-0.516c-0.149,0.273-0.521,0.504-0.732,0.982
				c0.433-0.433,0.573-0.25,1.176-1.349c0.455-0.828-0.534-0.087,0.644-1.438c-0.228,0.415-0.2,0.542-0.344,0.889l1.085-1.271
				l-0.133-0.193c0.178-0.147,0.101-0.011,0.185-0.074c0.07-0.58,1.485-2.073,1.583-2.488c0.552-0.642,1.315-1.217,1.875-1.795
				l-0.09,0.128c0.759-0.64,1.574-1.662,2.027-2.381l0.005,0.065c0.405-0.354,1.337-1.214,1.755-1.762
				c1.131-0.776,0.901,0.325,1.836-0.877c1.019-0.911,1.352-1.74,0.847-1.482c1.976-1.485,4.166-3.295,6.205-4.374
				c0.25-0.271,0.012-0.226,0.618-0.646c3.211-1.706,6.563-4.091,9.47-4.7c-0.927,0.503,0.026,0.231,0.096,0.339
				c0.716-0.526,1.036-0.223,1.188-0.66c-0.156-0.152-0.114-0.276-1.086,0.056c1.918-1.049,5.02-2.202,6.252-2.305
				c-0.602,0.095-0.177-0.105,0.254-0.308c-0.046,0.353,1.486-0.088,2.605-0.563l0.106-0.239L51.1,3.901
				c0.431-0.173,0.364-0.615,1.589-0.67c0.082,0.06,0.169,0.12,0.397,0.126c1.177-0.421,2.848-1.063,4.21-1.19l1.139,0.044
				c0.558-0.152,1.485-0.53,0.471-0.394c2.297-0.32,3.796-0.34,4.549-0.23C67.308,0.321,73.121,0.101,77.749,0L77.61,0.144
				c1.242,0.18,0.649-0.232,1.516-0.098c-0.401,0.124,0.94,0.342-0.036,0.474c1.77,0.225,2.291-0.163,3.45-0.184
				c0.185-0.185-0.937,0.086-0.701-0.148c0.202-0.062,2.453,0.249,2.746-0.03c0.44,0.132,0.078,0.332-0.169,0.44L85.509,0.5
				c1.298,0.393-3.055,0.484-1.688,0.959l0.994-0.006c0.924,0.342-2.638,0.238-0.162,0.442c1.084-0.102,2.041-0.483,1.088-0.651
				c2.258,0.044,1.098-0.604,3.521-0.313c0.643,0.252-1.943-0.201-1.498,0.096c1.113,0.375,2.295,0.154,3.303,0.362
				c-1.113-0.249-0.127-0.423,0.613-0.385c1.215,0.291-0.839,0.173,0.904,0.421c0.309-0.131,1.938-0.054,0.563-0.344
				c0.689-0.275,1.813,0.285,2.803,0.208c0.515,0.374-1.883,0.246-0.01,0.768c-0.26-0.319,2.397,0.157,1.469-0.435
				c0.73,0.233,0.769,0.449,0.197,0.488c1.023,0.383,2.674,0.095,2.912,0.669l0.424-0.178c0.313,0.155,0.774,0.32,1.283,0.577
				c0.942,0.141,3.063,0.475,2.873,0.825c0.303,0.053,2.381,0.726,1.657,0.208c-1.252-0.569-1.549-0.275-2.173-0.861
				c0.838,0.582,1.889,0.551,2.672,0.69l0.078,0.188c0.466,0.083,1.486,0.439,1.82,0.371c-0.373-0.026-0.227,0.131,0.117,0.277
				l0.547-0.072c1.851,0.496,0.316,0.452,2.058,1.088c-0.452-0.135-0.907-0.257-1.38-0.324c0.314,0.038,0.826,0.466,1.663,0.757
				c0.393-0.066,1.084-0.052,1.421-0.089c1.004,0.324,0.341,0.406,1.378,0.606l-1.345-0.289c-0.213-0.016,0.703,0.681,1.984,1.219
				c0.846,0.278,2.254,0.543,1.006-0.116c0.648,0.272,1.496,0.775,0.918,0.699c1.486,0.569-0.08-0.325,1.211,0.162
				c0.433,0.397,1.877,1.42,2.695,2.105l-1.416-0.368l0.825,0.456c-1.205-0.333,0.438,0.49-0.31,0.425
				c0.539,0.35,1.27,0.633,1.854,0.862c-1.415-1.329,2.184,0.442,1.936-0.197c2.291,1.271,0.778,1.797,3.406,2.732
				c-0.302-0.348,0.943,0.104-0.482-0.725c1.309,0.96,1.164,0.264,2.64,1.505c-1.272-0.659,0.983,1.223-0.853,0.274
				c0.197-0.042-0.871-0.736-1.15-0.88c0.447,0.517-0.366,0.288,0.984,1.221c0.856,0.524,1.978,1.32,1.941,1.04
				c0.151-0.262-1.264-0.875-0.574-0.715c1.656,1.147,1.615,1.731,2.551,1.906c-0.99-0.801-1.07-1.212-0.944-1.333l1.198,0.887
				l-0.326-0.058c1.734,1.646,0.732,0.226,2.465,1.771l0.602,0.953c-0.609-0.146-2.468-2.283-2.459-1.663
				c1.121,0.985,1.657,1.136,2.646,2.144l-0.861-0.618c0.387,0.379,0.432,1.095,2.108,2.409c0.853,0.699,0.317,0.095,0.46-0.008
				c1.688,1.711,2.313,2.117,3.398,3.231c-0.41-0.067,1.656,2.185,0.357,1.041c-0.273-0.791-2.76-3.252-3.549-3.662
				c0.309,0.915-1.251-1.407-1.887-1.485c1.306,1.396,0.957,1.604,0.979,2.009c0.347,0.395,0.775,0.688,1.021,0.889
				c0.332-0.005-0.144-0.503,0.012-0.707c1.413,1.592,2.947,2.967,3.786,3.812c0.339,0.645,0.01,0.614-0.519-0.039
				c1.521,2.015,3.356,4.042,4.428,6.213c-0.471-1.548,1.469,2.247,1.201,1.164c-0.593-1.153-0.935-2.266-0.41-1.746
				c0.399,0.711-0.162,0.071-0.058,0.408c0.724,0.773,0.532,1.556,1.354,2.25c-1.317-1.931-0.651-0.139-1.143-0.347
				c1.012,1.334-0.229,0.053,0.621,1.458c1.088,1.282,1.946,3.137,2.829,4.761c0.839,2.167,2.224,5.421,2.915,7.381
				c0.207,1.07-0.371,0.486-0.045,1.605c0.441,1.298,0.072-1.083,0.503,0.907l-0.112-0.171c0.225,0.581,0.641,3.673,1.275,4.144
				l-0.521-0.522c0.056,0.376,0.224,0.696,0.336,0.992c-0.117,0.043-0.125,0.493-0.35-0.085c0.047,1.264,0.676,2.529,0.825,3.884
				l0.103-0.904c0.5,2.278,0.495,3.857,0.887,6.078l-0.229-0.047c0.126,0.436,0.16,0.88,0.231,1.323
				c-0.229-0.31-0.312,0.924-0.1,1.616c-0.264-1.143-0.395-2.289-0.787-3.404c-0.004-0.964,0.412,1.012,0.547,0.394
				c0.119-0.528-0.231-2.586-0.49-2.887c0.087,0.79,0.141,0.82,0.306,1.422c-0.271,0.294-0.426-0.899-0.713-1.458
				c0.069,0.409,0.06,1.003,0.169,1.079c-0.264-0.787-0.398-1.592-0.596-2.929c0.246,0.887,0.119-0.525,0.255-0.197
				c-0.313-0.057-0.46-1.341-0.837-2.967c0.025-1.229-0.934-3.001-1.301-4.896c0.449,0.688,0.897,1.609,1.285,2.733
				c-0.154-1.223-0.328-1.319-0.481-2.549c-0.325-0.525-0.716-0.852-1.384-2.298l0.164-0.145c-0.573-1.326-0.856-1.225-1.405-2.963
				c-0.862-3.015-2.504-5.818-3.412-8.024l0.14-0.176c-1.068-0.93-2.432-3.709-3.518-5.136c-1.605-2.58-4.045-5.194-4.816-6.568
				c-3.73-3.861-7.211-7.005-11.714-10.229l0.942,0.292c-0.947-0.392-0.436-0.506-1.27-1.028c0.793,0.832-1.291-0.52-1.951-0.756
				c-1.849-1.69-4.91-2.78-6.865-3.711l0.017-0.223c-2.103-0.72-4.448-1.901-6.948-3.086c-0.265-0.188-0.639-0.613-1.441-0.815
				c-1.539-0.14-2.277-0.396-4.426-0.858c-1.502-0.555-4.002-1.243-5.58-1.664C93.754,4.114,87.658,3.09,81.385,3.213l-0.443-0.256
				c-6.067,0.209-13.541,0.326-18.623,1.349l0.436-0.466c-1.645,0.02-3.644,0.655-3.179,0.886c-1.611,0.225-3.907,1.055-4.991,0.946
				c-1.644,0.266-1.94,0.603-3.226,1.097c-3.167,0.925-4.417,1.123-7.246,2.432l0.718-0.284c0.28-0.219,0.248-0.394-0.476-0.107
				c-1.028,0.568-3.979,1.604-2.717,1.587c-3.244,0.927-6.776,3.707-9.721,5.043c0.295-0.047-0.354,0.445-0.581,0.717
				c-2.384,1.645-5.035,3.222-6.545,5.023c-0.389,0.256,0.402-0.658-0.495,0.116c-0.491,0.502,0.106,0.139-0.491,0.766
				c-3.308,3.307-6.777,6.687-9.174,10.256c-4.103,6.408-7.407,13.69-9.251,20.765l-0.076-0.104
				c-0.123,2.475-1.795,5.504-1.372,7.567c-0.167,0.56-0.334,2.185-0.464,1.734c-0.095,1.95-0.861,5.417-0.579,8.271
				c0.02-0.258,0.007-0.408-0.022-0.71c-0.419,2.867,0,5.345,0.035,8.328c-0.1-0.295-0.165-0.843-0.258-0.925
				c-0.109,1.18,0.765,2.668,0.367,3.361c0.095,0.659,0.298,0.433,0.229,0.032c0.778,6.528,3.362,13.188,6.483,19.279
				c2.01,4.502-0.581,0.637,1.556,3.917c0.072,0.326,0.267,0.117,0.206,0.211c0.802,1.274,0.725,2.303,1.466,3.085
				c0.024-0.52,0.501,0.516,0.667,0.45c1.376,2.704,1.59,3.308,3.081,5.19l-0.226-0.063c1.937,2.074,3.671,4.843,5.548,6.384
				c9.67,12.086,20.75,22.159,32.53,31.632c5.785,4.743,11.754,9.145,17.887,13.342l4.635,3.102l2.343,1.517l1.177,0.744
				l0.589,0.367l0.293,0.183l0.143,0.086l0.035,0.021l0.019,0.011c2.027-0.063-2.753,0.095-2.258,0.074l0.009-0.006l0.069-0.047
				c3.034-2.11,6.091-4.354,9.132-6.625c3.051-1.884,3.264-2.058,6.203-4.651c-0.083,0.152-0.262,0.319-0.021,0.199
				c-0.059-0.378,2.116-1.771,2.201-2.253c4.361-3.556,8.212-7.031,12.45-10.966c-0.649,0.644-0.81,1.149-0.021,0.398l0.691-0.924
				l0.198-0.061c0.507-0.548,0.983-1.224,0.354-0.771c10.344-10.146,20.555-20.243,28.528-31.966
				c2.032-2.68,4.444-6.81,6.118-10.029c5.416-9.191,9.287-18.587,9.162-29.456C154.426,73.002,155.417,74.422,155.096,78.992z"/>
			<path fill="#7B7C7A" d="M155.182,69.656c0.146-0.393,0.178-1.668,0.442-0.667C155.477,69.124,155.334,69.782,155.182,69.656z"/>
			<path fill="#7B7C7A" d="M147.719,36.624c-0.066-0.015-0.197-0.456-0.232-0.563c0.232,0.358,0.561,0.635,0.662,0.969
				C147.913,36.662,147.88,36.758,147.719,36.624z"/>
			<path fill="#7B7C7A" d="M142.9,29.206c0.197,0.019,1.44,1.463,2.135,2.35L142.9,29.206z"/>
			<path fill="#7B7C7A" d="M137.939,22.543c-0.405-0.608-0.224-0.514,0.44,0.196C138.374,22.844,138.126,22.638,137.939,22.543z"/>
			<path fill="#7B7C7A" d="M137.299,22.348c-0.475-0.498-0.65-0.809-0.822-1.113C136.404,21.343,137.63,22.342,137.299,22.348z"/>
			<path fill="#7B7C7A" d="M123.286,11.082c-0.386-0.199-1.269-0.544-1.543-0.88C122.083,10.517,123.688,11.058,123.286,11.082z"/>
			<path fill="#7B7C7A" d="M115.719,7.501c-0.244-0.115-0.335-0.182-0.639-0.268c-0.432-0.255,0.093-0.148,0.484,0.003
				L115.719,7.501z"/>
			<polygon fill="#7B7C7A" points="0.373,65.63 0.406,64.733 0.532,64.877 			"/>
			<path fill="#7B7C7A" d="M23.653,125.482c0.645,0.616,0.296,0.559,0.376,0.686C23.497,125.566,24.359,126.277,23.653,125.482z"/>
			<polygon fill="#7B7C7A" points="49.349,149.644 49.14,149.474 49.401,149.302 			"/>
		</g>
	</g>
</g>
<path fill="#7B7C7A" d="M127.955,16.448c0,0,34.75,27,25.25,67.75l0.25,7c0,0,9-16.5-2-47.5
	C151.455,43.698,141.455,24.698,127.955,16.448z"/>
<path fill="#7B7C7A" d="M59.705,147.698l18.75,12.25c0,0,14.5-8.25,23.75-17.5l-1.75,0.75c0,0-17.25,13-22.5,13.25
	c0,0-7.25-1.5-23.25-14.5L59.705,147.698z"/>
<path fill="#7B7C7A" d="M64.205,151.448c0,0,11,7.75,14.25,8.5l-0.25-1.75L64.205,151.448z"/>
</svg>
