<?xml version="1.0" encoding="utf-8"?>
<!-- Generator: Adobe Illustrator 12.0.0, SVG Export Plug-In . SVG Version: 6.00 Build 51448)  -->
<!DOCTYPE svg PUBLIC "-//W3C//DTD SVG 1.1//EN" "http://www.w3.org/Graphics/SVG/1.1/DTD/svg11.dtd" [
	<!ENTITY ns_svg "http://www.w3.org/2000/svg">
	<!ENTITY ns_xlink "http://www.w3.org/1999/xlink">
]>
<svg  version="1.1" id="Layer_1" xmlns="&ns_svg;" xmlns:xlink="&ns_xlink;" width="687.336" height="211.738"
	 viewBox="0 0 687.336 211.738" overflow="visible" enable-background="new 0 0 687.336 211.738" xml:space="preserve">
<circle fill-rule="evenodd" clip-rule="evenodd" fill="#ECBC54" stroke="#E46E37" stroke-width="6" cx="587.219" cy="107.886" r="97.117"/>
<g id="XMLID_8_">
	<g>
		<path fill="#D26527" d="M582.458,61.453c2.306,14.28-7.974,33.754-14.714,45.647c-7.473,13.168-16.572,25.347-26.377,36.847
			c-8.326,9.764-18.619,25.291-32.33,27.624l-0.095-0.529c2.915-0.447,7.621-7.838,9.357-12.639
			c1.966-5.465-2.238-13.073-5.872-16.437c-11.907-11.065-33.293-15.582-48.902-18.877c-7.906-1.668-15.88-2.848-23.895-3.771
			c-17.115-1.966-34.365-2.767-51.344-4.813c-28.059-3.351-58.612-3.757-86.806-1.425c-76.079,6.293-155.711,14.688-216.872,64.81
			c-2.36,1.926-10.185,6.713-9.981,10.198c4.34,1.221,21.074-17.277,24.411-19.487c3.038-2.034,8.164-5.397,8.814,0.664
			c0.746,6.835,2.211,10.85,5.52,16.748c6.821,12.165-18.823,18.593-26.58,19.895c-12.219,2.062-29.428-0.122-38.677-9.262
			c-16.002-15.826-25.441-38.324-32.967-59.087C7.039,115.21,0.868,91.315,8.422,67.99C22.851,23.4,90.02,20.281,128.548,13.894
			c44.657-7.404,90.521-8.354,135.694-8.733c74.492-0.624,150.137,0.068,223.87,11.527c28.926,4.489,58.042,9.751,85.843,19.122
			C584.071,39.212,581.156,53.371,582.458,61.453z"/>
		<path fill="#D26527" d="M507.627,170.622c0.366,0.38,0.813,0.502,1.315,0.42l0.095,0.529c-0.678,0.122-1.37,0.203-2.075,0.258
			c-16.815,1.18-35.286-3.811-52.156-4.448c-16.816-0.651-33.7-0.203-50.462,1.383c-32.724,3.106-66.003,9.71-96.95,20.749
			c-9.777,3.485-20.749,7.296-29.658,12.68c-11.229,6.754-4.096-13.778-2.089-17.412c3.662-6.673,10.741-16.003,6.591-23.827
			c-3.96-7.473-12.748-9.615-17.101-16.437c-5.262-8.245,46.176-17.427,51.777-18.538c26.974-5.357,55.1-7.012,82.575-6.537
			c13.113,0.217,27-0.637,40.02,0.882c12.964,1.491,26.566,5.153,39.191,8.462C494.146,132.839,523.629,154.864,507.627,170.622z"/>
		<path fill="#D26527" d="M463.525,123.089c15.609,3.295,36.995,7.812,48.902,18.877c3.634,3.363,7.838,10.972,5.872,16.437
			c-1.736,4.801-6.442,12.191-9.357,12.639c-0.502,0.082-0.949-0.04-1.315-0.42c16.002-15.758-13.48-37.782-28.927-41.837
			c-12.625-3.309-26.228-6.971-39.191-8.462l0.122-1.004C447.646,120.242,455.619,121.421,463.525,123.089z"/>
	</g>
	<g>
		<path fill="none" stroke="#E46E37" stroke-width="10" stroke-miterlimit="10" d="M404.344,168.763
			c-32.724,3.106-66.003,9.71-96.95,20.749c-9.777,3.485-20.749,7.296-29.658,12.68c-11.229,6.754-4.096-13.778-2.089-17.412
			c3.662-6.673,10.741-16.003,6.591-23.827c-3.96-7.473-12.748-9.615-17.101-16.437c-5.262-8.245,46.176-17.427,51.777-18.538
			c26.974-5.357,55.1-7.012,82.575-6.537c13.113,0.217,27-0.637,40.02,0.882c12.964,1.491,26.566,5.153,39.191,8.462
			c15.446,4.055,44.929,26.079,28.927,41.837c0.366,0.38,0.813,0.502,1.315,0.42c2.915-0.447,7.621-7.838,9.357-12.639
			c1.966-5.465-2.238-13.073-5.872-16.437c-11.907-11.065-33.293-15.582-48.902-18.877c-7.906-1.668-15.88-2.848-23.895-3.771
			c-17.115-1.966-34.365-2.767-51.344-4.813c-28.059-3.351-58.612-3.757-86.806-1.425c-76.079,6.293-155.711,14.688-216.872,64.81
			c-2.36,1.926-10.185,6.713-9.981,10.198c4.34,1.221,21.074-17.277,24.411-19.487c3.038-2.034,8.164-5.397,8.814,0.664
			c0.746,6.835,2.211,10.85,5.52,16.748c6.821,12.165-18.823,18.593-26.58,19.895c-12.219,2.062-29.428-0.122-38.677-9.262
			c-16.002-15.826-25.441-38.324-32.967-59.087C7.039,115.21,0.868,91.315,8.422,67.99C22.851,23.4,90.02,20.281,128.548,13.894
			c44.657-7.404,90.521-8.354,135.694-8.733c74.492-0.624,150.137,0.068,223.87,11.527c28.926,4.489,58.042,9.751,85.843,19.122
			c10.116,3.404,7.201,17.562,8.503,25.645c2.306,14.28-7.974,33.754-14.714,45.647c-7.473,13.168-16.572,25.347-26.377,36.847
			c-8.326,9.764-18.619,25.291-32.33,27.624c-0.678,0.122-1.37,0.203-2.075,0.258c-16.815,1.18-35.286-3.811-52.156-4.448
			C437.989,166.729,421.105,167.177,404.344,168.763"/>
	</g>
</g>
<g>
	<path fill="#D5EDED" d="M97.358,61.592c2.614-0.223,4.247,0.462,4.928,2.128c0.326,0.797,0.339,2.482-0.063,5.014
		c-0.538,3.855-0.973,9.613-1.133,17.287c-0.189,7.602,0.207,15.809,1.044,24.682c0.536,5.445,1.259,10.729,1.607,12.615
		c0.378,1.959,0.493,3.688,0.081,4.955c-0.441,1.195-1.317,2.567-2.671,4.22s-2.697,2.709-4,3.242
		c-2.028,0.829-5.458-1.15-10.32-6.011c-4.861-4.859-9.657-10.593-14.343-17.3c0.944,3.757,2.211,7.889,3.698,12.353
		c2.945,8.857,4.563,13.437,4.122,14.631c-0.557,1.327-1.65,2.789-3.178,4.428c-1.528,1.639-2.943,2.726-4.248,3.258
		c-2.245,0.918-6.495-1.824-12.851-8.271c-6.283-6.478-12.369-13.712-18.184-21.732c-5.743-8.051-9.436-13.98-11.035-17.893
		c-0.8-1.955-0.338-4.342,1.384-7.16c1.722-2.817,3.365-4.588,4.959-5.24c1.521-0.622,3.575,0.06,4.829,2.506
		c1.55,3.17,5.229,9.275,11.081,18.211c5.852,8.936,11.723,16.68,17.572,23.335c-1.023-2.71-2.271-6.173-3.741-10.392
		c-1.471-4.217-3.408-10.611-5.898-18.977c-2.448-8.468-3.668-14.141-3.69-17.09c-0.009-3.124,2.941-6.867,8.084-8.969
		c1.376-0.563,2.937,0.152,3.529,1.601c0.563,1.376,1.833,4.07,3.942,8.195c2.109,4.125,5.262,9.769,9.603,16.871
		c4.341,7.102,8.541,12.824,12.483,17.299c-9.29-34.921-11.073-53.552-5.423-55.862C92.206,62.431,94.816,61.786,97.358,61.592z"/>
	<path fill="#D5EDED" d="M153.156,99.152c0.469,1.574,0.226,3.771-0.753,6.512c-0.904,2.719-2.894,4.537-5.969,5.453
		c-6.524,1.945-10.849-2.154-13.085-9.654c-0.38-1.274-0.825-3.591-1.367-6.778c-0.489-3.284-0.912-5.526-1.27-6.726
		c-0.671-2.25-1.606-3.196-2.731-2.861c-3.45,1.028-3.364,7.617,0.235,19.69c0.201,0.676,1.103,3.428,1.729,5.527
		c0.805,2.7-0.535,5.876-6.834,7.754c-1.575,0.469-2.621-1.669-4.118-6.693c-1.676-5.625-3.767-14.555-6.346-26.77
		c-2.58-12.214-3.722-19.06-3.502-20.513c0.167-1.356,0.882-2.794,2.122-4.389c1.239-1.594,2.433-2.521,3.558-2.857
		c1.2-0.358,2.885,0.365,3.444,2.24c0.112,0.375,0.409,1.919,0.794,4.581l1.684,10.032c0.66,4.131,1.313,7.692,1.885,10.707
		c1.424-4.262,3.813-6.934,7.187-7.94c4.725-1.408,7.988,1.048,9.889,7.423c0.357,1.2,0.789,3.194,1.293,5.984
		c0.58,2.767,1.078,4.986,1.592,6.711c1.408,4.725,3.001,6.781,4.726,6.267c0.9-0.268,1.501-1.264,1.751-2.89
		c0.325-1.648,0.852-2.622,1.526-2.823C151.721,96.803,152.731,97.727,153.156,99.152z"/>
	<path fill="#D5EDED" d="M155.041,103.671c-3.596-2.491-5.978-6.373-7.143-11.645c-1.216-5.501-0.795-10.483,1.263-14.946
		c2.119-4.556,5.211-7.243,9.337-8.155c5.578-1.233,9.792,2.242,10.958,7.515c0.794,3.591,0.094,6.952-2.005,10.141
		c-2.117,3.113-4.691,5.605-7.74,7.402c2.194,3.763,5.079,5.208,8.517,4.448c2.75-0.608,4.731-2.89,6.017-6.86
		c1.269-4.047,1.927-8.681,1.789-14.02c-3.573,0.149-6.032-2.272-6.792-5.711c-0.524-2.369-0.038-4.881,1.383-7.519
		s3-4.19,4.605-4.544c2.445-0.541,3.674,1.031,4.485,4.698c0.355,1.605,0.574,3.319,0.75,5.204c2.233-1.135,4.315-2.958,6.244-5.468
		c1.93-2.51,3.238-3.841,3.849-3.977c1.834-0.406,4.428,2.627,5.188,6.066c0.27,1.222-0.76,4.175-1.807,7.051
		c-1.047,2.876-1.671,7.663-0.726,11.941c1.132,5.12,3.686,6.158,6.055,5.634c3.515-0.777,2.306-5.158,4.445-5.631
		c1.146-0.253,2.087,0.741,2.375,2.04c0.372,1.681-0.182,3.887-1.569,6.678c-1.403,2.714-3.9,4.469-7.339,5.229
		c-6.8,1.504-11.788-1.48-12.954-6.753c-0.693-3.133-0.579-6.604,0.282-10.321c0.938-3.733,1.985-6.61,3.082-8.536
		c-2.31,1.152-4.577,2.134-6.742,2.854c0.069,6.476-0.599,12.154-2.506,18.025c-1.908,5.871-5.842,10.188-11.42,11.422
		C162.566,106.896,158.637,106.162,155.041,103.671z M157.375,87.767c0.152,0.688,0.253,1.146,0.397,1.435
		c3.789-3.162,5.32-6.386,4.627-9.519c-0.456-2.063-1.778-3.694-3.383-3.339C156.571,76.885,156.09,81.96,157.375,87.767z"/>
	<path fill="#D5EDED" d="M227.292,91.611c-2.548,2.456-5.562,3.955-9.196,4.52c-4.252,0.662-8.05-0.331-11.405-3.056
		c-3.277-2.737-5.331-6.773-6.161-12.108c-0.867-5.567-0.131-10.513,2.205-14.836c2.402-4.413,5.658-6.899,9.833-7.549
		c5.645-0.878,9.631,2.857,10.462,8.192c0.565,3.634-0.345,6.944-2.642,9.994c-2.31,2.973-5.036,5.298-8.193,6.898
		c1.953,3.894,4.74,5.519,8.219,4.977c4.485-0.698,5.497-3.865,6.606-5.384c1.217-1.853,3.14-1.201,3.5,1.118
		C230.883,86.696,229.829,89.078,227.292,91.611z M210.258,77.314c0.108,0.696,0.181,1.16,0.306,1.457
		c3.981-2.916,5.713-6.037,5.219-9.207c-0.325-2.088-1.542-3.799-3.165-3.546C210.144,66.403,209.343,71.438,210.258,77.314z"/>
	<path fill="#D5EDED" d="M256.789,57.749c-0.175,7.715-0.183,12.901,0.054,15.551c0.627,7.015,2.109,10.418,4.448,10.209
		c3.273-0.292,3.415-4.862,5.286-5.029c1.014-0.09,1.975,1.002,2.107,2.483c0.14,1.559-0.7,3.598-2.433,6.188
		c-1.732,2.59-4.2,3.989-7.396,4.275c-7.249,0.647-11.237-4.417-11.912-11.978c-0.376-4.209-0.493-10.798-0.359-19.845
		c-2.891,0.18-4.363-0.475-4.496-1.956c-0.07-0.779,1.47-2.017,4.547-3.627c0.075-7.078,0.35-11.03,0.67-11.845
		c0.505-1.381,1.492-2.647,2.954-3.878c1.532-1.315,2.887-1.986,4.056-2.091c1.481-0.132,2.911,0.918,3.084,2.867
		c0.07,0.779-0.014,4.244-0.328,10.4l2.935-1.441c1.496-0.84,2.56-1.25,3.261-1.313s1.14,0.448,1.244,1.617
		c0.084,0.936-0.045,2.125-0.388,3.57s-0.656,2.337-1.011,2.761C262.119,55.858,260.014,56.91,256.789,57.749z"/>
	<path fill="#D5EDED" d="M302.427,79.461c0.077,1.642-0.688,3.714-2.297,6.14c-1.532,2.422-3.9,3.708-7.105,3.859
		c-6.801,0.319-10.013-4.701-10.379-12.518c-0.063-1.329,0.062-3.685,0.303-6.908c0.315-3.305,0.443-5.583,0.384-6.833
		c-0.11-2.345-0.79-3.488-1.963-3.433c-3.596,0.168-5.097,6.584-4.506,19.169c0.033,0.704,0.247,3.592,0.35,5.781
		c0.132,2.814-1.932,5.575-8.499,5.883c-1.642,0.077-2.142-2.25-2.388-7.487c-0.275-5.863-0.157-15.034,0.276-27.511
		c0.434-12.476,0.971-19.396,1.534-20.754c0.488-1.276,1.528-2.5,3.114-3.75c1.587-1.25,2.968-1.863,4.141-1.917
		c1.25-0.059,2.713,1.048,2.804,3.002c0.019,0.391-0.064,1.961-0.331,4.638l-0.778,10.142c-0.353,4.169-0.575,7.783-0.745,10.846
		c2.407-3.795,5.368-5.814,8.886-5.979c4.925-0.231,7.502,2.938,7.813,9.583c0.059,1.25-0.002,3.291-0.183,6.119
		c-0.103,2.825-0.153,5.099-0.068,6.897c0.231,4.925,1.283,7.304,3.081,7.22c0.938-0.044,1.761-0.866,2.395-2.384
		c0.712-1.522,1.457-2.34,2.161-2.373C301.599,76.836,302.358,77.976,302.427,79.461z"/>
	<path fill="#D5EDED" d="M323.403,85.959c-2.866,2.077-6.059,3.141-9.736,3.195c-4.303,0.063-7.925-1.45-10.867-4.616
		c-2.864-3.167-4.335-7.45-4.414-12.849c-0.082-5.634,1.335-10.428,4.251-14.384c2.993-4.035,6.564-6.044,10.789-6.105
		c5.712-0.083,9.14,4.171,9.218,9.57c0.054,3.677-1.309,6.828-4.009,9.528c-2.701,2.622-5.725,4.544-9.074,5.689
		c1.391,4.127,3.924,6.125,7.445,6.074c4.539-0.066,5.981-3.061,7.292-4.411c1.462-1.665,3.276-0.752,3.31,1.595
		C327.644,81.593,326.268,83.805,323.403,85.959z M308.527,69.429c0.01,0.705,0.017,1.174,0.1,1.486
		c4.349-2.333,6.498-5.182,6.451-8.39c-0.031-2.113-0.997-3.977-2.64-3.953C309.934,58.608,308.44,63.482,308.527,69.429z"/>
	<path fill="#D5EDED" d="M391.084,35.814c-1.737,0.405-4.648,0.766-8.813,1.158c-4.165,0.392-7.229,0.669-9.199,0.987
		c-0.265,2.887-2.025,16.447-3.668,31.029c-0.866,8.503-1.385,16.08-1.634,22.727c-0.114,3.05-3.678,6.205-12.045,5.892
		c-1.799-0.067-2.296-1.417-2.167-4.858c0.049-1.33,0.197-3.204,0.441-5.543l1.134-9.355c0.534-3.817,0.909-7.562,1.278-11.15
		c0.283-3.357,0.571-6.87,0.793-10.699c0.597-7.574,0.851-12.263,1.193-15.147c-3.713,0.879-7.117,1.848-10.211,2.907
		c-6.028,2.045-8.099,2.986-10.289,2.904c-0.547-0.021-0.765-0.499-0.727-1.515c0.047-1.251,0.497-2.8,1.271-4.651
		c0.777-1.929,1.531-3.232,2.345-4.063c2.839-2.635,12.548-4.699,25.339-5.395c1.512-0.648,2.777-0.992,3.951-0.948
		c0.469,0.018,1.089,0.197,1.78,0.537c6.189-0.082,10.966-0.06,14.484,0.072c5.083,0.19,7.551,1.222,7.48,3.099
		C393.79,34.663,392.903,35.334,391.084,35.814z"/>
	<path fill="#D5EDED" d="M401.992,84.465c3.825,0.271,3.677-4.29,5.94-4.129c1.171,0.083,1.785,1.381,1.702,2.552
		c-0.16,2.264-3.578,9.553-12.398,8.929c-6.245-0.441-10.44-4.347-10.004-10.514c0.21-2.966,1.301-6.184,3.267-9.575
		c2.043-3.385,3.781-5.773,5.291-7.157c-2.464,0.454-4.917,0.75-7.197,0.825c-4.198,16.099-8.987,23.919-14.373,23.538
		c-1.796-0.127-2.9-1.146-2.813-2.396c-0.195-1.661,3.243-2.595,5.271-4.648c2.875-2.935,5.229-8.495,7.069-16.758
		c-3.625-0.884-5.366-3.988-5.129-7.345c0.183-2.576,1.362-4.846,3.475-6.972c2.111-2.125,4.146-3.159,6.019-3.026
		c2.108,0.149,3.001,1.938,2.758,5.373c-0.044,0.625-0.332,2.487-0.865,5.587c5.864-0.84,10.822-6.608,12.439-6.18
		c1.015,0.072,1.818,0.913,2.416,2.446c0.676,1.539,0.967,2.971,0.878,4.22c0.041,2.749-7.675,10.91-7.915,18.738
		C397.53,82.11,398.948,84.25,401.992,84.465z"/>
	<path fill="#D5EDED" d="M441.953,86.807c-0.194,1.71-1.278,3.635-3.262,5.852c-1.897,2.148-4.439,3.042-7.628,2.681
		c-3.81-0.432-6.277-2.286-7.559-5.581c-2.296,2.89-5.193,4.137-8.77,3.732c-6.843-0.774-9.354-6.414-8.483-14.112
		c0.379-3.343,0.966-7.136,1.829-11.291c0.864-4.155,1.553-6.755,2.229-7.859c0.772-1.251,1.993-2.294,3.68-3.285
		c1.766-0.981,3.227-1.367,4.393-1.235c1.478,0.167,2.667,1.483,2.447,3.427c-0.044,0.389-0.593,2.453-1.638,6.115
		c-0.967,3.67-1.665,7.057-2.017,10.167c-0.792,6.998-0.1,10.62,2,10.858c1.943,0.22,3.236-2.154,3.562-5.031
		c0.379-3.343,0.966-7.136,1.821-11.213c0.863-4.155,1.716-6.815,2.393-7.919c0.693-1.26,1.914-2.304,3.68-3.285
		c1.765-0.981,3.226-1.367,4.393-1.235c1.321,0.15,2.511,1.466,2.291,3.41c-0.044,0.389-0.593,2.453-1.56,6.124
		c-0.967,3.67-1.665,7.057-2.017,10.167c-0.793,6.998-0.333,10.594,1.377,10.788c2.255,0.255,3.388-4.184,5.254-3.973
		C441.534,84.239,442.103,85.485,441.953,86.807z"/>
	<path fill="#D5EDED" d="M465.468,71.831c-0.813,4.942-4.02,8.539-7.958,7.892c-2.239-0.368-3.104-1.858-2.813-3.634
		c0.127-0.772,0.601-1.725,1.345-2.872c0.833-1.211,1.294-2.087,1.396-2.705c0.216-1.313-0.224-2.019-1.382-2.209
		c-1.467-0.241-2.828,0.805-3.993,3.071c-1.089,2.28-1.919,4.919-2.4,7.854c-1.307,7.954,1.341,12.115,6.206,12.915
		c4.479,0.735,6.208-2.073,7.827-3.235c1.733-1.381,3.267-0.098,2.899,2.142c-0.368,2.239-2.113,4.173-5.325,5.866
		c-3.122,1.628-6.543,2.177-10.173,1.581c-4.169-0.685-7.403-2.723-9.688-6.191c-2.208-3.455-2.9-7.931-2.013-13.336
		c0.926-5.637,3.179-10.184,6.76-13.64c3.581-3.457,7.618-4.855,12.02-4.132C464.119,62.172,466.317,66.657,465.468,71.831z"/>
	<path fill="#D5EDED" d="M500.389,99.529c-0.38,1.598-1.687,3.379-3.904,5.266c-2.217,1.887-4.849,2.469-7.894,1.746
		c-2.817-0.67-5.143-3.071-6.442-5.391c-0.603-1.188-1.114-2.757-1.631-4.649c-0.422-1.95-0.781-3.483-0.967-4.733l-0.533-4.872
		c-0.988,1.454-1.717,2.488-2.126,3.195c-0.876,1.32-2.172,4.069-2.949,7.343c-0.65,2.741-3.396,4.824-9.792,3.306
		c-1.599-0.38-1.438-2.754-0.227-7.855c1.211-5.101,3.634-13.614,7.309-25.369c3.692-11.831,6.287-18.695,7.765-20.516
		c0.822-1.092,2.235-1.962,4.258-2.689s3.596-0.916,4.737-0.645c1.218,0.289,2.317,1.757,1.866,3.66
		c-0.055,0.229-0.919,2.516-2.652,6.77c-1.716,4.177-3.518,9.058-5.522,14.453c-1.928,5.414-3.263,9.681-4.004,12.803
		c2.857-3.906,6.045-7.171,9.505-9.888c3.46-2.718,6.143-3.851,7.894-3.435c1.294,0.307,2.542,1.488,3.649,3.601
		c1.183,2.131,1.637,3.606,1.42,4.52c-0.271,1.142-0.851,1.889-1.662,2.26c-0.794,0.294-2.215,0.52-4.263,0.677
		c-1.954,0.099-3.81,0.463-5.473,1.033c-0.337,5.147-0.019,9.566,0.919,13.408s2.216,5.915,3.814,6.294
		c0.837,0.198,1.855-0.364,2.96-1.63c1.105-1.266,2.047-1.846,2.732-1.684C500.166,96.741,500.732,98.082,500.389,99.529z"/>
</g>
<path fill="#A85944" stroke="#E46E37" stroke-width="10" stroke-linecap="round" stroke-linejoin="round" d="M74.184,187.117
	c-18.815,28.342,22.873,20.698,34.574,9.762c9.893-9.247-0.629-18.533-4.82-32.1c-11.063,7.509-21.894,13.998-30.849,23.933"/>
<path fill="#A85944" d="M506.785,169.243c0,0-5.924,0.445-14.74-0.313c-0.847-0.072-6.064-0.23-8.154-1.098
	c-14.628-6.072-50.665-29.936-102.428-42.99l-6.295-2.234l8.504-0.369l12.318-1.234c0,0,49.101-4.45,98.563,12.804
	C504.666,137.335,529.989,152.623,506.785,169.243z"/>
<g>
	<path fill="#D5EDED" d="M296.026,156.156c-0.441,1.055-1.018,1.729-1.812,2.014c-1.347,0.482-2.375-0.319-3.104-2.357
		c-0.347-0.967-0.273-1.851,0.253-2.663c0.516-0.847,1.142-1.383,1.867-1.643c1.209-0.434,2.283-0.155,2.741,1.123
		C296.429,153.907,296.455,155.067,296.026,156.156z M296.98,160.452c0.063,0.173,0.258,1.155,0.576,2.912
		c0.353,1.745,0.758,3.314,1.253,4.695c1.238,3.455,2.016,4.54,2.845,4.243c0.379-0.136,0.602-0.605,0.712-1.386
		c0.11-0.779,0.332-1.249,0.642-1.36c0.449-0.161,1.015,0.222,1.25,0.878c0.137,0.38,0.184,0.947,0.164,1.656
		c-0.031,0.673-0.292,1.468-0.807,2.315c-0.48,0.835-1.198,1.442-2.165,1.789c-2.901,1.039-5.032-0.342-6.406-4.176
		c-0.557-1.554-1.093-3.271-1.577-5.164c-0.495-1.928-0.708-3.176-0.652-3.78c0.031-0.674,0.329-1.365,0.834-2.131
		c0.54-0.778,1.075-1.242,1.593-1.428C295.898,159.281,296.671,159.588,296.98,160.452z"/>
	<path fill="#D5EDED" d="M310.074,173.608c-1.955,0.633-3.638,0.677-5.094,0.108c-1.423-0.581-2.355-1.552-2.773-2.843
		c-0.329-1.013-0.252-1.848,0.218-2.54c0.505-0.703,1.089-1.162,1.752-1.378c0.733-0.237,1.207,0.034,1.445,0.767
		c0.057,0.175,0.133,0.651,0.235,0.965c0.554,1.711,1.835,2.568,3.336,2.082c1.047-0.34,1.413-0.997,1.084-2.01
		c-1.12-3.455-8.011-0.798-9.629-5.789c-0.497-1.536-0.289-2.915,0.592-4.126c0.88-1.211,2.141-2.082,3.781-2.614
		c2.967-0.962,5.513-0.128,6.18,1.932c0.544,1.675-0.468,3.314-2.004,3.813c-0.698,0.226-1.137,0.06-1.307-0.464
		c-0.057-0.174-0.167-0.871-0.258-1.15c-0.282-0.873-0.985-1.494-2.067-1.144c-0.942,0.306-1.389,1.067-1.152,1.801
		c0.306,0.942,1.741,1.326,3.398,1.56c2.364,0.275,5.643,0.987,6.648,4.21C315.489,169.963,313.565,172.476,310.074,173.608z"/>
	<path fill="#D5EDED" d="M338.616,160.994c0.181,0.692,0.049,1.602-0.387,2.759c-0.414,1.118-1.267,1.846-2.558,2.184
		c-1.385,0.363-2.524,0.123-3.458-0.742c-0.641,1.277-1.643,2.078-2.997,2.433c-1.039,0.272-1.988,0.117-2.87-0.426
		c-1.773-1.117-2.685-2.93-3.221-4.977c-0.817-3.117-0.57-5.772,0.328-7.354c0.921-1.62,2.11-2.604,3.401-2.942
		c1.227-0.322,2.146-0.159,2.729,0.529c0.612-1.001,1.269-1.577,1.961-1.758c0.536-0.141,1.257,0.175,1.464,0.962
		c0.041,0.157,0.138,1.041,0.281,2.617c0.144,1.578,0.381,2.996,0.711,4.256c0.742,2.834,1.459,4.159,2.152,3.978
		c1.039-0.271,0.593-2.105,1.442-2.329C338.069,160.06,338.476,160.458,338.616,160.994z M330.539,162.267
		c-0.065-0.117-0.146-0.298-0.212-0.55c-0.214-0.818-0.505-2.188-0.875-4.111c-0.567,0.148-0.924-0.061-1.073-0.627
		c-0.074-0.283-0.038-1.302-0.129-1.648c-0.099-0.378-0.368-0.509-0.778-0.401c-0.63,0.164-0.97,0.792-1.061,1.858
		c-0.091,1.066,0.032,2.179,0.337,3.344c0.314,1.196,0.664,2.147,1.01,2.83c0.766,1.381,1.225,1.463,1.633,1.355
		C330.086,164.136,330.48,163.46,330.539,162.267z"/>
	<path fill="#D5EDED" d="M348.406,151.476c1.934,0.837,3.676,2.2,5.227,4.09c1.553,1.891,2.552,4.008,3.033,6.343
		c1.224,5.93-0.556,9.106-3.754,9.767c-1.725,0.355-3.271-0.599-4.637-2.864c-1.36-2.229-2.458-5.375-3.297-9.436
		c-0.541-2.623-0.943-4.75-1.168-6.39c-0.921,0.078-1.462-0.186-1.588-0.796c-0.067-0.323,0.37-0.751,1.33-1.361
		c-0.176-1.762-0.367-3.596-0.53-5.473c-0.273-3.503,0.071-6.195,1.03-8.08c0.996-1.892,2.27-2.979,3.814-3.297
		c2.875-0.594,4.617,0.583,5.232,3.565c0.185,0.898,0.119,1.849-0.234,2.858c-0.325,0.966-1.026,1.561-2.069,1.775
		c-0.897,0.186-1.526-0.321-1.704-1.184c-0.075-0.359-0.027-0.856,0.105-1.483c0.169-0.634,0.223-1.095,0.171-1.347
		c-0.111-0.539-0.516-0.867-0.982-0.771c-1.079,0.223-1.261,2.246-1.231,4.563c0.032,0.705,0.088,1.519,0.187,2.359
		c0.206,1.719,0.377,2.732,0.571,3.854c0.745-0.565,1.546-1.219,2.405-1.957c1.739-1.559,2.834-2.608,3.013-2.646
		c0.863-0.178,2.037,1.153,2.304,2.447c0.111,0.539-0.596,1.284-2.108,2.308c-1.476,1.017-3.226,1.978-5.162,2.938L348.406,151.476z
		 M349.061,154.825c1.524,7.028,2.719,10.453,3.545,10.282c0.791-0.163,0.964-1.322,0.519-3.479
		C352.523,158.718,351.156,156.453,349.061,154.825z"/>
	<path fill="#D5EDED" d="M366.652,144.134c0.854,1.53,1.449,3.29,1.773,5.208c0.508,3.003,0.297,5.494-0.67,7.48
		c-0.936,1.945-2.382,3.082-4.335,3.413c-1.954,0.33-3.645-0.203-5.107-1.593c-1.432-1.433-2.299-3.035-2.604-4.844
		c-0.605-3.581,0.009-6.551,1.247-8.249c1.305-1.746,2.811-2.744,4.402-3.014c0.615-0.104,1.068-0.068,1.43,0.093
		c0.608-0.363,1.061-0.551,1.386-0.606C365.007,141.882,365.834,142.598,366.652,144.134z M364.814,155.05
		c0.189-1.073,0.175-2.262-0.051-3.601c-0.544-3.22-2.239-5.314-3.935-5.661c-0.647,1.45-0.758,3.44-0.336,5.937
		c0.661,3.907,2.251,5.388,3.095,5.096C364.239,156.71,364.66,156.119,364.814,155.05z"/>
	<path fill="#D5EDED" d="M381.626,142.186c0.788,1.565,1.309,3.35,1.551,5.278c0.379,3.022,0.062,5.502-0.988,7.446
		c-1.019,1.902-2.512,2.978-4.477,3.224c-1.966,0.247-3.633-0.356-5.034-1.808c-1.371-1.492-2.168-3.13-2.396-4.95
		c-0.453-3.604,0.287-6.545,1.598-8.188c1.378-1.688,2.924-2.623,4.526-2.823c0.619-0.078,1.069-0.023,1.424,0.153
		c0.624-0.337,1.083-0.505,1.41-0.547C380.078,139.866,380.874,140.617,381.626,142.186z M379.325,153.014
		c0.235-1.065,0.271-2.253,0.103-3.6c-0.407-3.24-2.01-5.405-3.689-5.823c-0.71,1.42-0.904,3.404-0.588,5.916
		c0.492,3.932,2.019,5.479,2.874,5.224C378.68,154.648,379.125,154.075,379.325,153.014z"/>
	<path fill="#D5EDED" d="M402.4,151.311c0.062,0.805-0.267,1.787-0.984,2.983c-0.683,1.157-1.773,1.794-3.274,1.909
		c-1.609,0.125-2.825-0.37-3.688-1.518c-0.967,1.289-2.239,1.976-3.812,2.098c-1.207,0.094-2.229-0.27-3.099-1.049
		c-1.743-1.595-2.391-3.789-2.574-6.167c-0.28-3.622,0.526-6.518,1.84-8.092c1.347-1.612,2.863-2.466,4.363-2.582
		c0.805-0.062,1.474,0.033,2.01,0.287c0.206-5.426,0.385-8.348,0.53-8.837c0.245-0.645,0.714-1.233,1.406-1.802
		c0.727-0.608,1.365-0.915,1.913-0.957c0.695-0.054,1.359,0.446,1.431,1.361c0.014,0.183-0.137,2.991-0.416,8.422
		c-0.281,5.396-0.385,8.826-0.271,10.289c0.255,3.292,0.784,4.907,1.589,4.845c1.207-0.094,1.079-2.218,2.067-2.294
		C401.98,150.167,402.353,150.689,402.4,151.311z M393.184,151.104c-0.048-0.144-0.101-0.36-0.123-0.653
		c-0.04-0.512-0.052-2.094-0.037-4.744c-0.73,0.057-1.122-0.244-1.173-0.903c-0.025-0.329,0.219-1.451,0.188-1.854
		c-0.034-0.438-0.308-0.639-0.782-0.602c-0.732,0.057-1.235,0.685-1.55,1.85c-0.315,1.165-0.401,2.423-0.297,3.776
		c0.107,1.391,0.305,2.516,0.553,3.343c0.571,1.686,1.064,1.868,1.54,1.832C392.308,153.085,392.881,152.416,393.184,151.104z"/>
	<path fill="#D5EDED" d="M420.736,151.945c1.688-0.037,1.53-2.162,2.558-2.185c0.477-0.011,0.893,0.567,0.906,1.154
		c0.017,0.771-0.438,1.734-1.332,2.892c-0.892,1.158-2.2,1.737-3.851,1.773c-3.338,0.073-5.286-1.756-5.342-4.286
		c-0.033-1.504,0.335-3.091,1.07-4.722c0.771-1.668,1.515-2.859,2.195-3.645c-1.131,0.318-2.264,0.563-3.324,0.696l-0.361,1.953
		l-0.503,2.14c-0.235,0.96-0.439,1.735-0.683,2.364c-0.414,1.184-1.289,3.111-2.186,4.049c-0.862,0.899-2.129,1.698-3.596,1.729
		c-3.411,0.076-5.118-2.419-5.196-5.978c-0.043-1.98,0.108-5.066,0.456-9.295c-1.357-0.007-2.026-0.358-2.041-1.056
		c-0.009-0.367,0.75-0.897,2.241-1.554c0.257-3.31,0.51-5.149,0.685-5.521c0.281-0.63,0.782-1.192,1.504-1.722
		c0.759-0.567,1.413-0.839,1.963-0.851c0.698-0.015,1.333,0.521,1.354,1.438c0.009,0.366-0.14,1.984-0.48,4.855
		c0.183-0.041,0.583-0.233,1.273-0.506c0.691-0.271,1.165-0.429,1.495-0.437c0.33-0.007,0.52,0.245,0.53,0.76
		c0.01,0.439-0.088,0.992-0.293,1.694c-0.205,0.665-0.38,1.072-0.56,1.223c-0.467,0.488-1.413,0.839-2.838,1.127
		c-0.325,3.604-0.492,6.03-0.464,7.277c0.072,3.301,0.659,4.939,1.759,4.916c1.138-0.025,2.096-1.515,2.637-3.618
		c0.577-2.104,0.879-3.433,1.03-4.904c-1.252-0.155-1.894-0.985-1.926-2.453c-0.025-1.137,0.354-2.283,1.097-3.511
		c0.78-1.228,1.428-1.829,1.979-1.842c1.283-0.028,1.625,0.479,1.661,2.093c0.003,0.183-0.053,0.992-0.167,2.462
		c2.702-0.646,4.766-3.555,5.54-3.425c0.88-0.019,1.798,1.612,1.834,3.263c0.013,0.587-0.73,1.851-1.475,3.078
		c-0.743,1.228-1.467,3.372-1.421,5.427C418.512,150.93,419.269,151.977,420.736,151.945z"/>
	<path fill="#D5EDED" d="M439.516,151.632c-0.025,0.807-0.459,1.747-1.301,2.858c-0.806,1.075-1.96,1.59-3.463,1.542
		c-1.798-0.058-3.021-0.831-3.745-2.321c-0.964,1.438-2.271,2.13-3.957,2.076c-3.227-0.103-4.614-2.643-4.499-6.273
		c0.05-1.577,0.18-3.371,0.427-5.346c0.246-1.975,0.469-3.216,0.743-3.758c0.313-0.614,0.845-1.147,1.596-1.674
		c0.787-0.526,1.456-0.762,2.006-0.744c0.696,0.021,1.303,0.592,1.272,1.509c-0.005,0.183-0.183,1.169-0.532,2.919
		c-0.313,1.753-0.511,3.361-0.558,4.828c-0.104,3.301,0.356,4.968,1.347,4.999c0.916,0.029,1.431-1.129,1.474-2.486
		c0.051-1.577,0.181-3.371,0.425-5.31c0.247-1.974,0.545-3.25,0.818-3.791c0.276-0.615,0.808-1.149,1.595-1.675
		c0.789-0.526,1.456-0.762,2.007-0.744c0.623,0.021,1.229,0.59,1.2,1.507c-0.006,0.184-0.185,1.169-0.497,2.921
		s-0.51,3.361-0.557,4.828c-0.104,3.3,0.246,4.963,1.052,4.989c1.064,0.033,1.426-2.084,2.306-2.057
		C439.224,150.448,439.536,151.008,439.516,151.632z"/>
	<path fill="#D5EDED" d="M449.82,143.631c-0.172,2.342-1.52,4.156-3.385,4.02c-1.062-0.078-1.528-0.738-1.466-1.579
		c0.026-0.366,0.207-0.832,0.507-1.398c0.339-0.601,0.518-1.028,0.538-1.321c0.046-0.622-0.188-0.934-0.737-0.975
		c-0.695-0.051-1.287,0.495-1.736,1.603c-0.413,1.109-0.69,2.377-0.792,3.768c-0.277,3.77,1.134,5.602,3.438,5.771
		c2.123,0.156,2.813-1.229,3.521-1.839c0.751-0.717,1.521-0.183,1.443,0.879c-0.078,1.061-0.812,2.037-2.241,2.963
		c-1.39,0.891-2.965,1.29-4.684,1.164c-1.977-0.146-3.571-0.962-4.784-2.485c-1.177-1.521-1.688-3.583-1.499-6.145
		c0.196-2.671,1.059-4.889,2.586-6.652c1.528-1.764,3.354-2.586,5.44-2.433C448.786,139.178,450,141.18,449.82,143.631z"/>
	<path fill="#D5EDED" d="M467.253,154.689c-0.092,0.766-0.604,1.665-1.537,2.662c-0.932,0.997-2.127,1.409-3.584,1.235
		c-1.348-0.161-2.56-1.155-3.288-2.166c-0.345-0.521-0.667-1.226-1.008-2.079c-0.302-0.886-0.551-1.581-0.705-2.153l-0.508-2.241
		c-0.383,0.73-0.666,1.251-0.819,1.603c-0.338,0.661-0.795,2.012-0.981,3.577c-0.157,1.313-1.325,2.429-4.386,2.063
		c-0.765-0.091-0.816-1.206-0.524-3.646c0.291-2.441,0.964-6.536,2.049-12.208c1.087-5.709,1.929-9.045,2.521-9.973
		c0.324-0.552,0.937-1.033,1.84-1.479c0.902-0.446,1.625-0.619,2.171-0.554c0.583,0.069,1.174,0.694,1.065,1.605
		c-0.013,0.109-0.293,1.222-0.874,3.295c-0.576,2.038-1.154,4.407-1.8,7.027c-0.608,2.625-1.002,4.685-1.181,6.179
		c1.123-1.973,2.433-3.664,3.899-5.114c1.467-1.451,2.654-2.123,3.493-2.022c0.62,0.074,1.264,0.558,1.892,1.482
		c0.666,0.93,0.956,1.592,0.903,2.029c-0.064,0.547-0.294,0.926-0.653,1.142c-0.354,0.18-1.003,0.36-1.948,0.543
		c-0.905,0.15-1.75,0.42-2.494,0.774c0.117,2.416,0.501,4.457,1.144,6.196s1.349,2.637,2.113,2.729
		c0.401,0.047,0.845-0.27,1.292-0.918s0.855-0.97,1.184-0.931C467,153.403,467.336,153.998,467.253,154.689z"/>
	<path fill="#D5EDED" d="M474.964,149.613c0.42,0.372,0.621,0.705,0.577,0.958c-0.108,0.614-0.692,1.183-1.776,1.625
		s-2.116,0.596-3.165,0.412c-1.264-0.223-1.771-0.945-1.548-2.21c0.146-0.831,0.637-1.713,1.495-2.568
		c0.857-0.854,1.739-1.631,2.675-2.286c0.935-0.655,1.829-1.504,2.719-2.539c0.89-1.036,1.419-2.135,1.616-3.256
		c0.381-2.168-0.252-4.291-2.167-4.628c-1.481-0.26-2.835,0.656-3.134,2.354c-0.406,2.313,1.718,2.947,1.558,3.851
		c-0.082,0.471-0.491,1.105-1.187,1.878c-0.694,0.771-1.421,1.091-2.145,0.964c-0.758-0.134-1.483-0.671-2.175-1.612
		c-0.648-0.971-0.837-2.233-0.563-3.787c0.362-2.06,1.427-3.66,3.198-4.84c1.772-1.178,3.959-1.538,6.561-1.081
		c4.084,0.719,6.04,3.148,5.487,6.293c-0.337,1.915-1.716,3.61-3.287,4.712c-2.265,1.65-4.984,2.923-5.265,4.514
		C474.356,148.835,474.545,149.241,474.964,149.613z M471.998,158.851c-0.911,0.734-1.746,1.034-2.578,0.888
		c-1.155-0.203-1.923-1.344-1.594-3.223c0.236-1.338,0.763-2.214,1.617-2.622c0.854-0.408,1.699-0.558,2.53-0.411
		c1.374,0.241,1.933,1.084,1.679,2.53C473.449,157.169,472.909,158.118,471.998,158.851z"/>
</g>
<linearGradient id="XMLID_7_" gradientUnits="userSpaceOnUse" x1="510.5723" y1="108.7554" x2="663.8965" y2="108.7554">
	<stop  offset="0" style="stop-color:#5A5B5C"/>
	<stop  offset="1" style="stop-color:#4A494A"/>
</linearGradient>
<path fill="url(#XMLID_7_)" stroke="#E46E37" stroke-width="10" d="M633.134,70.352c3.391,0.182,5.973,0.838,7.662,3.832
	c-0.339,3.56-1.27,7.457-0.547,9.847c1.902,6.305,15.399,6.923,18.603,13.134c0.613,6.525-1.093,12.771,0,18.055
	c0.85,0.98,3.286,0.363,3.833,1.643c2.574,4.165,0.194,6.576,0.541,9.85c-2.638,4.299-9.235,6.91-14.223,7.111
	c0.586,11.491-5.78,26.736-21.339,22.98c-0.273-0.063-0.345-0.994-0.551-1.094c-1.784-0.85-2.702-1.098-4.375-3.83
	c-1.738-2.832-2.587-5.777-3.83-9.847c-5.808,1.3-12.069,2.155-18.056,3.281c2.609,13.815-9.098,22.62-19.149,15.321
	c-6.325,4.52-15.645,3.124-19.149-3.285c-3.494,0.4-6.41-0.19-10.946,0c-0.997,5.987-2.89,13.707-8.752,16.416
	c-10.677,1.373-14.654-3.951-17.51-10.396c-0.953-0.405-3.048,1.139-5.474,0c-1.342-2.665-2.443-5.581-2.186-9.849
	c-0.067-2.069,3.198-0.818,3.281-2.735c-0.877-4.417-1.849-8.729-2.188-13.68c-0.749-1.253-3.009-1.001-3.279-2.735
	c-0.692-3.3-0.501-6.024,1.092-8.209c-3.286-12.765-4.007-28.097-6.02-42.132c11.591-11.586,29.798-22.137,44.868-32.827
	c5.29-3.759,7.562-6.431,16.96-7.114c11.999-0.876,32.779-0.263,44.321-0.547c4.063-0.1,8.438,0.284,10.392,3.829
	c1.491,2.692,1.279,7.105,2.193,11.491C630.251,63.409,632.469,66.8,633.134,70.352z"/>
<path fill="#D26527" d="M633.134,70.708c3.391,0.181,5.973,0.838,7.662,3.83c-0.339,3.56-1.27,7.457-0.547,9.848
	c1.902,6.304,15.399,6.923,18.603,13.132c0.613,6.526-1.093,12.771,0,18.056c0.85,0.979,3.286,0.362,3.833,1.644
	c2.574,4.164,0.194,6.574,0.541,9.848c-2.638,4.301-9.235,6.91-14.223,7.111c0.586,11.491-5.78,26.736-21.339,22.981
	c-0.273-0.063-0.345-0.995-0.551-1.095c-1.784-0.849-2.702-1.098-4.375-3.829c-1.738-2.833-2.587-5.779-3.83-9.848
	c-5.808,1.3-12.069,2.155-18.056,3.281c2.609,13.814-9.098,22.62-19.149,15.319c-6.325,4.521-15.645,3.127-19.149-3.282
	c-3.494,0.399-6.41-0.191-10.946,0c-0.997,5.985-2.89,13.706-8.752,16.414c-10.677,1.374-14.654-3.95-17.51-10.395
	c-0.953-0.407-3.048,1.138-5.474,0c-1.342-2.663-2.443-5.581-2.186-9.849c-0.067-2.07,3.198-0.816,3.281-2.735
	c-0.877-4.417-1.849-8.729-2.188-13.681c-0.749-1.252-3.009-1-3.279-2.734c-0.692-3.299-0.501-6.023,1.092-8.207
	c-3.286-12.766-4.007-28.099-6.02-42.133c11.591-11.587,29.798-22.137,44.868-32.828c5.29-3.76,7.562-6.43,16.96-7.114
	c11.999-0.876,32.779-0.262,44.321-0.547c4.063-0.1,8.438,0.285,10.392,3.83c1.491,2.692,1.279,7.105,2.193,11.49
	C630.251,63.764,632.469,67.156,633.134,70.708z"/>
<g>
	<path fill="#D5EDED" d="M545.042,158.8c0.864,0.044,2.084-0.262,2.188,0.546C547.827,161.269,543.878,160.812,545.042,158.8z"/>
	<path fill="#D5EDED" d="M523.703,152.782c0,1.095,0,2.19,0,3.282c-0.777-0.049-1.549-0.092-1.642,0.547
		C520.759,155.622,521.937,152.507,523.703,152.782z"/>
	<path fill="#D5EDED" d="M536.838,159.893c-6.154,0.063-5.306-11.151-1.098-12.583C539.143,148.71,540.639,157.738,536.838,159.893z
		"/>
	<path fill="#D5EDED" d="M584.438,144.028c0.815,0.464,0.79,1.763,1.092,2.733c-0.994,0.723-3.733-0.311-3.827-2.186
		C582.495,144.273,584.53,145.214,584.438,144.028z"/>
	<path fill="#D5EDED" d="M570.761,133.629c4.857,2.386,5.308,9.796,2.187,13.681C567.607,147.716,568.222,135.952,570.761,133.629z"
		/>
	<path fill="#D5EDED" d="M596.477,119.406c1.624,2.223,1.909,5.443,1.094,8.754c-4.244,0.256-6.32,3.268-10.944,1.644
		c-1.367-2.251-1.781-4.616-1.096-7.663C589.111,120.712,591.742,118.246,596.477,119.406z"/>
	<path fill="#D5EDED" d="M660.491,118.31c0.259,3.541-0.28,6.282-2.732,7.113c0-0.914,0-1.822,0-2.737
		c-1.446-0.161-1.413,1.147-1.643,2.19c-1.494,0.4-1.1-1.09-2.188-1.096c-1.406,0.057-0.781,2.135-2.191,2.19
		c-14.224,1.969-30.404-1.144-43.771,0c-1.401,0.022-0.667-0.407-0.546-1.095c-0.136-0.598-1.091-0.373-1.094-1.096
		c-1.439-0.163-1.795,0.757-1.644,2.19c-0.777-0.366-1.689-3.349-2.737-1.642c-0.82-1.593-2.215-4.768-1.639-6.02
		C619.548,117.173,640.189,118.07,660.491,118.31z"/>
	<path fill="#D5EDED" d="M655.571,112.292c0.813,0.826,0.878,2.402,1.095,3.83c-1.644,0-3.285,0-4.929,0
		C652.734,114.563,654.852,114.126,655.571,112.292z"/>
	<path fill="#D5EDED" d="M656.116,102.444c1.254,1.116,0.196,4.539,0.55,6.563c-1.519-2.313-2.098-5.564-6.022-5.47
		C651.781,101.287,655.929,105.447,656.116,102.444z"/>
	<path fill="#D5EDED" d="M646.266,98.613c0.466-0.097,0.515,0.213,0.55,0.547c-0.273,2.211,2.759-0.586,2.188-0.547
		c0.56-0.034,2.813,2.743,2.734,0c1.042,0.236,1.377,1.176,2.738,1.096c-0.292,0.438-0.568,0.885-0.547,1.64
		c-2.864-0.123-5.461,0.013-7.663,0.549C645.245,100.92,646.712,100.507,646.266,98.613z"/>
	<path fill="#D5EDED" d="M608.512,99.16c0.171-0.746,1.37-0.453,2.191-0.547c0,0.914,0,1.822,0,2.735
		c-3.652-0.185-6.413,0.521-8.758,1.643c-2.364-2.076,1.397-1.716,2.193-2.19c0.592-0.359-0.435-2.996,0.544-0.545
		c0.991,2.471,0.733-0.147,1.644-0.547C605.692,99.986,610.796,100.889,608.512,99.16z"/>
	<path fill="#D5EDED" d="M633.683,73.442c6.073-2.985,5.31,8.351,4.377,10.944C634.716,82.62,635.816,76.419,633.683,73.442z"/>
	<path fill="#D5EDED" d="M530.271,71.253c-0.742,3.826-5.34,8.521-6.567,13.679c3.902-2.117,4.429-7.608,7.66-10.395
		c-0.489-1.63,1.71-3.332,0.546-3.83c4.665-3.908,9.676-7.475,15.321-10.396c-1.935,4.263-5.454,6.949-6.564,12.039
		c8.249-3.606,6.932-16.777,16.96-18.604c3.104,0.907,2.403,5.623,5.475,6.565c3.282-0.362,0.694-6.599,2.186-8.753
		c8.768-6.267,20.462-3.493,31.736-3.283c8.334,0.151,16.941-1.266,25.716-1.096c0.142,2.232,2.041,2.701,1.644,5.471
		c-1.688-1.99-5.402,0.368-8.209,0.549c1.494,2.089,6.249,0.766,8.209,0c1.625,2.337-7.354,0.835-9.302,2.188
		c-2.232-0.908,0.898-0.958,0.543-1.641c-2.199-4.273-9.407,2.392-9.847,4.923c4.163,0.515,3.354-3.94,7.113-3.829
		c-0.946,1.577-5.811,3.639-6.017,7.112c-0.202,3.328,1.586,19.841,3.282,22.98c1.683,3.125,8.062,6.812,12.039,6.021
		c-0.357-2.488-4.288-3.03-6.571-4.377c4.569-1.631,13.128,0.728,16.966-1.643c3.759,1.901,6.85,4.46,10.396,6.568
		c-7.688,1.827-18.905,0.711-27.361,1.64c-5.393,0.59-10.761,0.043-14.225,1.642c0.993,2.709,4.61,1.221,6.567,1.095
		c11.56-0.756,35.046-2.842,46.51,0.546c-2.021,1.264-6.375,0.19-9.304,0.547c-1.259,1.112-1.463,3.273-1.639,5.473
		c0.896,1.757,1.827,1.394,3.829,1.094c-1.147,1.663-3.405,2.327-3.829,4.923c-0.543,3.322,1.659,5.494,2.186,7.114
		c-1.275,0-2.553,0-3.827,0c-0.279-1.942-1.288-3.231-1.643-6.019c-0.482-3.803,1.405-9.234-1.643-10.943
		c-3.811,2.57-0.093,12.68-2.187,16.962c-2.651,0.503-1.55-2.94-1.643-4.378c-0.323-4.98,0.717-11.424-2.188-13.132
		c-4.65,3.78,2.031,14.183-2.19,17.51c-3.198-3.913,0.489-14.712-3.285-18.056c-2.983,3.756,0.74,14.237-2.185,18.056
		c-2.205-4.548-0.12-13.378-3.284-16.962c-2.642,1.744-1.772,6.025-1.643,9.302c0.106,2.638,2.161,6.85-1.094,7.66
		c-1.405-4.798,0.477-12.88-2.187-16.415c-4.897,1.155-0.251,9.147-1.642,14.226c-1.167-0.255-1.04,0.784-1.093,1.642
		c-1.577,0.615-3.396,0.984-5.476,1.096c2.836-1.607,5.476-4.864,3.832-9.302c-1.198-1.899-4.311-1.888-6.567-2.735
		c1.613-0.942,3.946-1.162,6.567-1.095c0.969-1.034,0.402-3.611,0.546-5.472c-3.052-2.024-7.999,0.301-12.037,0.546
		c-1.593,0.964-1.875,3.235-1.641,6.021c1.229,1.066,4.113,0.475,5.471,0c-4.086,1.471-8.061,6.67-3.284,12.037
		c-1.273,0-2.554,0-3.828,0c0.114-6.269,0.887-11.884,0.549-18.604c-6.063-3.606-14.021-5.316-21.338-7.661
		c-1.306-0.322,0.085,4.745-1.1,2.738c-2.005,0.928-0.315-0.876-0.545-1.643c-0.39-1.291-1.86-4.52-1.093-8.208
		c-1.012-2.089-2.278-3.923-4.379-4.924c-1.159-4.493,0.164-11.473-4.379-12.584c-0.049,3.156,2.367,8.574,2.737,13.132
		c-2.16-3.678-3.033-8.641-4.376-13.132c-4.231,0.372-7.328,2.998-10.398,4.925c-3.03,1.91-6.448,3.709-8.754,6.567
		c0.82,1.545,0.613,4.128,1.642,5.47c-0.444,9.5,2.119,18.938,3.829,27.904c8.029-2.734,14.803-6.723,22.435-9.847
		c1.548-0.094,3.753,0.471,3.83-1.096c0.33-2.878-2.763-2.347-4.378-3.282c-1.974,1.487-3.629,3.302-7.112,3.282
		c-0.262-6.094-4.802-20.143,4.925-19.148c0.069,3.945,0.843,8.037,1.096,13.13c3.546,1.105,5.662,2.024,8.204,1.642
		c1.792,0.557,3.37,1.171,4.927,1.641c1.624,0.492,3.83,0.466,4.925,1.095c5.745,3.305,4.786,10.225,4.924,19.152
		c-3.984,1.667-8.815,2.493-10.944,6.016c-2.5-0.853-3.337-2.838-5.471-3.28c-11.764-2.43-18.5,9.368-19.149,19.695
		c-5.891-1.043-5.006-8.853-7.662-13.13c-0.207-3.441,0.423-7.721-2.185-8.753c-1.995,8.676,5.753,20.473-0.55,25.715
		c-2.989-3.496-4.635-8.355-10.397-8.207c-5.506,0.141-10.24,5.416-12.036,10.396c-0.689,1.908,0.907,5.663-2.735,5.47
		c0.364-11.877,3.616-18.625,10.394-24.073c0.588-0.472,1.151-1.851,1.641-2.189c3.659-2.512,8.636-3.326,12.041-6.566
		c-0.209-1.254-2.19-0.727-2.736-1.641c-9.631,5.143-17.455,12.092-26.263,18.055c-1.625-1.482,0.303-4.036,0-6.018
		c8.348-5.143,16.679-10.32,24.074-16.415c1.114,0.343,0.152,2.763,2.188,2.188c0.573-1.801,1.41-3.326,3.83-3.283
		c-1.35-10.684-3.228-20.847-4.378-31.734c-5.781-4.362-10.253,2.422-15.32,6.017c-4.243,3.011-7.899,5.106-10.943,7.115
		c0.263,1.323-1.281,2.045-1.638,3.831c-0.411,2.018,1.119,5.252-0.551,5.47c0.563-4.722-1.429-8.446-1.095-12.037
		c0.602-6.496,5.932-9.475,10.395-12.583c-2.287,3.362-4.463,6.843-6.015,10.941c4.729-1.559,5.89-7.725,7.659-12.584
		C527.327,73.783,529.342,73.065,530.271,71.253z"/>
	<path fill="#D5EDED" d="M547.23,161.535c0.838,0.925-1.915,3.755-0.545,5.474c-1.539,0.755-3.213,1.378-2.19,3.284
		c-2.494,0.239-2.679,2.789-6.02,2.187c0.953-1.784,2.428-3.044,4.926-3.282c-0.947-2.604,0.512-3.621,2.735-4.377
		c0.679-1.773-1.772-0.417-1.095-2.19C546.289,162.785,547.1,162.5,547.23,161.535z"/>
	<path fill="#D5EDED" d="M584.438,149.499c-2.939,1.868,0.106,5.548-3.282,6.019c-0.023,0.936,0.402,1.418,1.093,1.642
		c-3.364,1.154-1.454,2.063-4.924,2.188c1.99,2.863-2.354,0.351-2.188,2.735c-1.618,0.297-3.862-1.545-4.376-0.547
		c-0.917-2.11,4.732-0.715,6.564-2.188c0.225-1.316-1.002-1.185-0.544-2.735c0.632,0.46,1.463,0.725,2.733,0.548
		c0.263-1.724-1.679-1.237-1.098-3.282c1.271,0.176,2.104-0.089,2.739-0.547c-0.243-0.673-0.7-1.121-1.642-1.095
		c0.378-1.078,1.464-1.462,2.734-1.643c0.209-1.851-2.425-0.858-1.641-3.282c1.395-0.422,2.517,2.138,3.283,0.547
		C585.598,147.687,582.503,149.439,584.438,149.499z"/>
	<path fill="#D5EDED" d="M603.042,109.556c-0.637-1.412,1.521-3.266,2.734-3.283c3.865-0.049,6.053,8.885-1.094,7.66
		c0.006-1.09,1.493-0.693,1.094-2.188c-0.08-1.361-1.854-0.159-2.188,0C602.708,113.77,605.309,107.74,603.042,109.556z"/>
	<path fill="#D5EDED" d="M647.909,108.46c-1.197-1.055,1.273-3.068,2.734-3.281c0.354,1.834,2.098,2.282,2.737,3.828
		c-0.449,1.924-1.649,3.098-2.188,4.926c-1.27,0.176-2.101-0.087-2.736-0.548c0.341-1.483,2.288-1.36,2.188-3.283
		C647.775,110.57,649.763,107.935,647.909,108.46z"/>
	<path fill="#D5EDED" d="M515.5,101.897c2.113,7.003,1.766,16.468,3.827,23.526c-1.483-0.033-1.5-2.441-1.641-3.283
		C516.733,116.516,516.173,109.104,515.5,101.897z"/>
	<path fill="#D5EDED" d="M644.806,142.753c0.837,0.924-1.913,3.753-0.546,5.471c-1.537,0.755-3.212,1.377-2.189,3.283
		c-2.495,0.24-2.68,2.79-6.02,2.189c0.954-1.783,2.431-3.041,4.928-3.284c-0.949-2.604,0.506-3.622,2.733-4.378
		c0.679-1.772-1.773-0.414-1.091-2.188C643.866,144.001,644.674,143.715,644.806,142.753z"/>
	<path fill="#D5EDED" d="M646.993,142.019c-2.936,1.863,0.109,5.549-3.281,6.018c-0.021,0.938,0.405,1.416,1.094,1.644
		c-3.365,1.155-1.454,2.062-4.924,2.187c1.992,2.861-2.351,0.352-2.186,2.738c-1.622,0.294-3.865-1.55-4.381-0.549
		c-0.911-2.111,4.734-0.717,6.566-2.189c0.225-1.318-1-1.187-0.546-2.735c0.633,0.46,1.466,0.724,2.734,0.549
		c0.263-1.722-1.68-1.237-1.092-3.285c1.27,0.179,2.102-0.085,2.733-0.546c-0.241-0.672-0.7-1.121-1.642-1.096
		c0.379-1.076,1.463-1.46,2.735-1.64c0.21-1.85-2.424-0.858-1.64-3.284c1.394-0.421,2.514,2.141,3.282,0.549
		C648.151,140.209,645.06,141.958,646.993,142.019z"/>
	<path fill="#D5EDED" d="M598.845,150.96c0.834,0.924-1.914,3.752-0.544,5.471c-1.541,0.756-3.214,1.381-2.192,3.283
		c-2.496,0.242-2.683,2.791-6.018,2.189c0.953-1.785,2.428-3.043,4.925-3.285c-0.945-2.604,0.506-3.621,2.736-4.376
		c0.678-1.772-1.772-0.417-1.094-2.188C597.904,152.208,598.715,151.921,598.845,150.96z"/>
</g>
<path fill="#CC542D" d="M533.004,134.177c1.653-3.456,2.578-7.637,6.567-8.754C537.11,128.072,537.177,133.243,533.004,134.177z"/>
<path fill="#CC542D" d="M542.855,125.423c-2.209,2.721-2.752,7.098-6.565,8.206C537.572,129.994,539.42,126.913,542.855,125.423z"/>
<path fill="#CC542D" d="M566.933,114.481c-0.974,2.615-2.797,4.724-4.379,7.112c-1.303,1.969-2.443,5.623-5.475,6.021
	c0.539-2.831,2.912-4.872,4.378-7.115C562.874,118.333,563.47,114.65,566.933,114.481z"/>
<path fill="#CC542D" d="M564.192,110.65c0.634-0.086,0.973,0.121,1.094,0.547c-0.986,2.758-3.088,5.68-4.925,8.209
	c-1.646,2.26-3.518,5.635-6.02,5.471C557.002,119.509,561.255,115.74,564.192,110.65z"/>
<path fill="#CC542D" d="M559.27,109.556c-2.042,0.327-3.938,0.806-4.928,2.188c1.328,1.285,3.147-1.569,5.47-1.095
	c-0.205,3.255-3.083,3.847-6.563,3.831c-1.002-1.574-0.887-1.714-0.546-3.831C554.404,110.081,558.92,106.361,559.27,109.556z"/>
<path fill="#CC542D" d="M568.569,104.632c0.55,0,1.096,0,1.643,0c1.105,3.884,2.467,10.209,2.188,13.678
	C569.204,115.695,570.192,109.814,568.569,104.632z"/>
<path fill="#CC542D" d="M589.36,102.444c-0.287,3.803-3.986,10.123-8.752,11.489C583.263,109.841,586.322,106.148,589.36,102.444z"
	/>
<path fill="#CC542D" d="M581.156,100.255c0.63-0.089,0.975,0.117,1.093,0.545c-1.813,3.114-2.123,7.728-6.567,8.207
	C577.164,105.742,579.236,103.077,581.156,100.255z"/>
<path fill="#CC542D" d="M587.173,99.16c-1.334,2.383-2.854,4.814-4.377,7.113c-1.354,2.047-2.559,5.078-5.471,5.472
	c1.824-4.245,4.624-7.907,7.661-10.944C585.696,100.09,585.379,98.286,587.173,99.16z"/>
<path fill="#CC542D" d="M553.799,59.763c-2.252,4.68-4.068,9.796-8.213,12.587c-0.531-2.169,1.937-4.197,3.285-6.565
	C550.084,63.667,550.567,59.632,553.799,59.763z"/>
<path fill="#D26527" d="M572.4,57.028c6.98-1.406,17.078,0.296,24.076-1.094c-5.037-1.374-13.045-0.038-19.695-0.547
	c-1.782-0.137-4.494,0.454-4.929-1.641c11.968,1.063,27.091-3.048,31.736,4.378c-0.084,0.64-0.996,0.458-1.644,0.545
	c0.499,0.962,2.017,0.903,2.193,2.189c0.838,4.548,1.779,9.844,2.188,16.415c0.309,5.068,1.88,8.075-0.55,10.944
	c-8.557,1.473-18.385,1.68-28.451,1.64C574.259,80.627,572.073,67.85,572.4,57.028z"/>
<path fill="#CC542D" d="M593.74,124.33c-0.858,2.145-1.815,5.57-4.38,4.377C589.636,126.064,590.647,124.154,593.74,124.33z"/>
<path fill="#CC542D" d="M639.154,122.686c2.983-1.688,6.634,0.651,10.396,0c0.033,4.126-7.576,0.966-10.396,1.095
	C639.799,123,642.057,122.749,639.154,122.686z"/>
<path fill="#CC542D" d="M638.606,123.236c-2.693,1.877-7.299,1.094-11.493,1.094c-5.395,0-10.759,0.086-15.317-0.549
	c-0.341-0.484-0.663-0.978,0-1.095c-0.087-0.631,0.12-0.971,0.548-1.093c4.102,0.399,10.652,0.508,17.51,0.547
	C632.795,122.156,636.675,121.341,638.606,123.236z"/>
<path fill="#CC542D" d="M592.1,121.046c0.138,1.768-1.948,5.581-5.474,5.473C587.545,123.787,589.026,121.621,592.1,121.046z"/>
</svg>
