<?xml version="1.0" encoding="utf-8"?>
<!-- Generator: Adobe Illustrator 16.0.0, SVG Export Plug-In . SVG Version: 6.00 Build 0)  -->
<!DOCTYPE svg PUBLIC "-//W3C//DTD SVG 1.1//EN" "http://www.w3.org/Graphics/SVG/1.1/DTD/svg11.dtd">
<svg version="1.1" id="Layer_1" xmlns="http://www.w3.org/2000/svg" xmlns:xlink="http://www.w3.org/1999/xlink" x="0px" y="0px"
	 width="900px" height="10px" viewBox="0 0 900 10" enable-background="new 0 0 900 10" xml:space="preserve">
<g>
	<g>
		<g>
			<path fill="#5D5F5F" d="M1.05,7.434C-0.276,7.397,0.199,7.817,0,7.892C2.216,7.8,0.989,7.326,1.05,7.434z"/>
			<polygon fill="#5D5F5F" points="22.887,6.483 22.499,6.655 25.715,6.235 			"/>
			<path fill="#5D5F5F" d="M43.308,6.491c-1.935-0.714-7.401,0.115-11.037-0.139l-0.604-0.163l-1.641,0.574
				C34.447,6.673,40.19,6.292,43.308,6.491z"/>
			<path fill="#5D5F5F" d="M54.194,8.034c-0.669-0.277,2.354-0.238-2.539-0.088c0.245,0.038,0.315,0.049,0.462,0.071
				C52.557,8.013,53.162,8.014,54.194,8.034z"/>
			<path fill="#5D5F5F" d="M52.117,8.018C49.966,8.039,53.524,8.251,52.117,8.018L52.117,8.018z"/>
			<path fill="#5D5F5F" d="M62.049,7.858l-2.833,0.248c0.587,0.164,3.114,0.201,2.177,0.321C64.294,8.292,63.698,8.128,62.049,7.858
				z"/>
			<path fill="#5D5F5F" d="M64.735,7.34l-1.468,0.103C63.521,7.513,63.91,7.536,64.735,7.34z"/>
			<path fill="#5D5F5F" d="M60.149,7.665l3.118-0.223c-0.415-0.113-0.458-0.346-1.434,0.08C62.092,7.312,61.475,7.514,60.149,7.665z
				"/>
			<path fill="#5D5F5F" d="M58.387,7.556c-1.584-0.154-3.64-0.251-0.794-0.5C52.168,7.154,52.972,7.655,58.387,7.556z"/>
			<path fill="#5D5F5F" d="M44.349,5.752l-2.125-0.208l-1.835,0.238C41.304,5.664,44.482,5.976,44.349,5.752z"/>
			<path fill="#5D5F5F" d="M79.693,8.229c0.177-0.152-0.95-0.406-1.162-0.6l-2.094,0.176C77.512,7.907,79.55,8.004,79.693,8.229z"/>
			<path fill="#5D5F5F" d="M78.531,7.63l3.131-0.262C78.864,7.34,78.354,7.462,78.531,7.63z"/>
			<polygon fill="#5D5F5F" points="65.235,6.546 60.097,7.093 66.229,6.539 			"/>
			<polygon fill="#5D5F5F" points="91.65,8.247 89.875,8.599 93.036,8.067 			"/>
			<path fill="#5D5F5F" d="M99.583,8.187c-1.312,0.291,1.801,0.492,0.41,0.672c2.155-0.053,3.995-0.303,5.653-0.527
				C103.883,8.456,102.009,8.425,99.583,8.187z"/>
			<path fill="#5D5F5F" d="M108.426,8.004c-0.881,0.068-1.792,0.194-2.781,0.327C106.578,8.264,107.498,8.167,108.426,8.004z"/>
			<path fill="#5D5F5F" d="M86.991,7.444c0.242,0.092,0.708,0.333,2.466,0.434L88.226,7.45C87.85,7.448,87.422,7.446,86.991,7.444z"
				/>
			<path fill="#5D5F5F" d="M88.183,7.438l0.043,0.013c1.339,0.012,2.263,0.02,2.66,0.023C90.544,7.469,89.729,7.458,88.183,7.438z"
				/>
			<path fill="#5D5F5F" d="M86.68,7.442c0.117,0,0.199,0.001,0.311,0.002C86.874,7.402,86.801,7.389,86.68,7.442z"/>
			<path fill="#5D5F5F" d="M73.444,6.932c1.84-0.239,5.674-0.494,1.965-0.859C74.088,6.366,76.212,6.574,73.444,6.932z"/>
			<path fill="#5D5F5F" d="M85.151,6.907L81.826,6.81c0.069,0.112,0.665,0.279-0.242,0.397L85.151,6.907z"/>
			<polygon fill="#5D5F5F" points="86.783,6.773 85.151,6.907 86.386,6.944 			"/>
			<path fill="#5D5F5F" d="M102.726,7.603c1.438-0.184,3.01-0.2,4.785-0.23c-1.9-0.084-3.869-0.129-5.734-0.129
				C101.508,7.378,100.688,7.618,102.726,7.603z"/>
			<path fill="#5D5F5F" d="M95.662,7.485c0.095-0.008,0.224-0.018,0.319-0.025C95.783,7.425,95.627,7.413,95.662,7.485z"/>
			<path fill="#5D5F5F" d="M124.986,7.376c-0.098-0.028-0.186-0.053-0.28-0.08c-0.026,0.026-0.039,0.051-0.069,0.076L124.986,7.376z
				"/>
			<path fill="#5D5F5F" d="M101.457,7.163c-1.434-0.08-2.284,0.023-3.101,0.154c1.071-0.043,2.203-0.07,3.42-0.074
				C101.893,7.183,101.915,7.143,101.457,7.163z"/>
			<path fill="#5D5F5F" d="M113.297,7.806c-0.743-0.092-1.585-0.167-2.475-0.236C111.553,7.704,113.038,7.915,113.297,7.806z"/>
			<path fill="#5D5F5F" d="M96.46,7.579c-0.073,0.006-0.134,0.012-0.211,0.019C96.715,7.689,96.655,7.646,96.46,7.579z"/>
			<path fill="#5D5F5F" d="M96.46,7.579c0.738-0.062,1.317-0.168,1.896-0.262c-0.872,0.035-1.675,0.08-2.375,0.143
				C96.154,7.491,96.335,7.539,96.46,7.579z"/>
			<path fill="#5D5F5F" d="M130.276,4.632c-0.25,0.396-4.007,0.762-7.254,0.337c-3.191,0.296-1.105,1.6,1.684,2.327
				c0.095-0.172,0.095-0.33,3.385-0.564c-1.153-0.218-7.293-0.507-4.521-0.865c4.353-0.204,3.567,0.142,5.683,0.35
				c-1.801-0.493,5.54-0.717,4.59-1.442l-3.817,0.254C129.957,4.915,131.338,4.735,130.276,4.632z"/>
			<path fill="#5D5F5F" d="M118.444,7.257l-1.356,0.049c1.546,0.07,2.647,0.229,4.681,0.538c2.246-0.194,2.712-0.339,2.867-0.472
				l-6.654-0.057L118.444,7.257z"/>
			<path fill="#5D5F5F" d="M111.017,7.307c1.058-0.431,4.305-0.612,2.314-1.079c-3.964,0.029-2.781,0.36-5.147,0.547
				c6.399-0.107-1.84,0.238,2.785,0.484c-1.257,0.072-2.388,0.096-3.459,0.113c1.153,0.053,2.263,0.118,3.312,0.197
				c-0.056-0.011-0.099-0.019-0.147-0.027l-0.03,0.002c0-0.004,0.008-0.004,0.008-0.005c-0.276-0.056-0.371-0.089-0.056-0.058
				c0.021-0.006,0.1-0.008,0.134-0.009c0.043-0.06,0.16-0.112,0.285-0.163c1.857,0.09,0.293,0.114-0.285,0.163
				c-0.026,0.021-0.073,0.04-0.078,0.066c0.004,0.001,0.013,0.001,0.021,0.003l6.413-0.236
				C115.732,7.247,114.031,7.259,111.017,7.307z"/>
			<path fill="#5D5F5F" d="M78.829,5.146c0.199,0.038,0.19,0.07,0.208,0.101C79.451,5.194,79.606,5.158,78.829,5.146z"/>
			<path fill="#5D5F5F" d="M81.468,5.407c-0.466,0.059-0.855,0.232-2.371,0.188c-1.313-0.129,0.008-0.206-0.061-0.348
				c-0.916,0.113-3.2,0.309-0.337,0.517l0.458-0.057c2.583,0.147,5.899,0.685,5.45,0.743C83.852,6.063,83.187,5.787,81.468,5.407z"
				/>
			<path fill="#5D5F5F" d="M96.43,6.247l5.342-0.211l-2.725-0.373l0.143,0.226C96.149,5.8,96.806,6.075,96.43,6.247z"/>
			<polygon fill="#5D5F5F" points="125.595,7.589 124.887,8.044 127.97,7.402 			"/>
			<polygon fill="#5D5F5F" points="132.539,7.534 132.28,7.931 134.111,7.692 			"/>
			<path fill="#5D5F5F" d="M524.252,2.625l1.571-0.112C525.081,2.548,524.605,2.584,524.252,2.625z"/>
			<path fill="#5D5F5F" d="M512.891,2.597l-0.276,0.195C513.137,2.686,513.357,2.606,512.891,2.597z"/>
			<path fill="#5D5F5F" d="M303.021,7.491c2.285,0.369,4.836,0.941,4.56,0.496l-0.699-0.434
				C305.284,7.632,304.062,7.583,303.021,7.491z"/>
			<path fill="#5D5F5F" d="M419.777,4.9c-0.216-0.042-0.445-0.088-0.669-0.132c-0.557,0.15-1.075,0.289-1.542,0.415
				C418.232,5.098,418.983,5.001,419.777,4.9z"/>
			<path fill="#5D5F5F" d="M421.392,3.106l3.014,0.278C423.724,3.287,422.757,3.193,421.392,3.106z"/>
			<path fill="#5D5F5F" d="M586.317,2.165l1.831-0.442C585.281,1.725,586.542,1.947,586.317,2.165z"/>
			<path fill="#5D5F5F" d="M203.634,7.376c1.969,0.168,3.541,0.24,4.923,0.262C206.177,7.389,204.26,7.013,203.634,7.376z"/>
			<path fill="#5D5F5F" d="M519.782,7.229c0.963-0.08,1.369-0.168,1.343-0.264C520.137,7.04,519.579,7.123,519.782,7.229z"/>
			<path fill="#5D5F5F" d="M214.252,7.636c-0.351-0.034-0.687-0.067-1.041-0.102c-1.442,0.072-2.894,0.131-4.655,0.104
				C210.31,7.823,212.322,7.938,214.252,7.636z"/>
			<path fill="#5D5F5F" d="M811.391,2.524c0.164,0.017,0.357,0.036,0.51,0.052C811.947,2.517,811.723,2.514,811.391,2.524z"/>
			<path fill="#5D5F5F" d="M876.963,6.903c-0.644,0.025-1.702,0.025-2.695,0.031C874.752,6.966,875.567,6.962,876.963,6.903z"/>
			<path fill="#5D5F5F" d="M160.469,7.724C158.992,7.753,160.236,7.773,160.469,7.724L160.469,7.724z"/>
			<path fill="#5D5F5F" d="M153.31,6.008c0.311-0.049,0.548-0.111,0.587-0.211C153.776,5.903,153.569,5.968,153.31,6.008z"/>
			<path fill="#5D5F5F" d="M228.917,4.935c0.043,0.001,0.078,0.002,0.125,0.003C228.606,4.853,228.68,4.868,228.917,4.935z"/>
			<path fill="#5D5F5F" d="M158.25,7.526c0.553,0.053,1.192,0.098,1.883,0.129C159.83,7.623,159.26,7.581,158.25,7.526z"/>
			<path fill="#5D5F5F" d="M158.552,7.731c-0.509-0.017-0.907-0.029-1.287-0.041C157.075,7.763,157.239,7.807,158.552,7.731z"/>
			<path fill="#5D5F5F" d="M162.516,7.702c-0.838,0.006-1.624-0.016-2.384-0.047c0.293,0.03,0.415,0.055,0.337,0.068
				C160.901,7.719,161.505,7.713,162.516,7.702z"/>
			<path fill="#5D5F5F" d="M690.796,3.686c0.096,0.012,0.207,0.026,0.312,0.04C692.593,3.545,691.945,3.575,690.796,3.686z"/>
			<path fill="#5D5F5F" d="M341.337,2.985c-0.068,0.009-0.108,0.015-0.168,0.022c0.069,0.004,0.155,0.01,0.216,0.014L341.337,2.985z
				"/>
			<path fill="#5D5F5F" d="M346.627,2.663c-2.254,0.539-3.532,0.473-5.242,0.359l1.753,1.252L346.627,2.663z"/>
			<path fill="#5D5F5F" d="M547.078,2.58c4.87,0.575,9.456-0.148,12.1-0.503c1.856,0.197-1.469,1.02,3.839,0.795
				c7.492-0.265-1.421-0.991,3.078-1.15l3.261,0.703c5.747-0.538,10.04-0.057,14.885,0.032c1.097-0.055,1.637-0.129,1.904-0.205
				c5.16,0.304,10.809-0.686,14.703-0.456c-0.911,0.144,2.22,0.443,2.687,0.612l7.021-0.435c-3.109,0.186-2.972,0.589-3.541,0.982
				c2.193-0.042,3.229-0.264,4.72-0.316c-0.911,0.144-1.831,0.289-0.67,0.469l7.363-0.67c-0.432-0.067-1.283-0.093-1.991-0.111
				c1.84-0.004,5.825-0.259,8.455,0.071c-0.233,0.155-1.136,0.301-1.36,0.46c-2.211-0.446-3.467-0.068-4.616,0.235
				c5.078-0.069,1.27,0.103,3.714,0.389c3.584-0.016,5.053-0.551,4.111-0.89c4.05,0.153,5.337,0.258,9.465-0.149l-0.781,0.549
				l3.796-0.173l-3.075,0.669c7.285,0.375,1.339-0.94,9.432-0.63l0.017,0.482c3.118-0.186,4.185-1,6.603-0.421
				c3.023-0.292-5.168-0.68,1.935-0.78c1.248,0.25,3.943,0.432,5.985,0.529c2.268-0.22-1.728-0.571-3.178-0.505
				c10.718-0.228,6.649,1.648,16.223,1.014c-3.281-0.345,2.738-0.933-5.021-0.918c3.705-0.286,7.293,0.698,11.154,0.173
				l-2.514,0.616c1.391,0.011,2.953-0.213,3.709-0.287l-0.314,0.474c4.775-0.833,8.882,0.395,11.719-0.695
				c-1.973,0.858,3.559-0.049,5.459,0.284c-3.93,0.605-11.267-0.017-11.789,0.776c1.831,0.241,3.463-0.148,5.233,0.086
				c-1.234,0.117-3.031,0.328-3.502,0.487c6.037,0.451,9.475-0.478,13.141-0.685l-6.469,0.185c0.526-0.792,2.915-0.137,4.729-0.757
				c3.234,0.425,5.765-0.191,8.403,0.071c-0.7-0.005-0.747,0.072-1.447,0.068c7.048-0.02,9.008,1.272,11.815,1.293
				c2.75,0.103,7.962-0.329,6.075-0.664c2.259-0.219-9.361,0.237-5.333-0.79c4.024,1.187,8.273-0.444,17.048,0.367
				c-3.843,0.42,2.255,0.667-1.17,0.985c4.176-0.096,4.331-0.273,6.197-0.608l1.256,0.371c5.463-0.831,1.283-0.735,9.548-1.178
				c-2.772,0.289,3.32,0.535,1.209,0.797c2.289,0.026,4.525-0.087,6.201-0.31l-0.303,0.053c8.369-0.19,6.854,0.469,14.475,0.055
				l-0.76-0.224c9.983-0.603,22.605-0.212,32.939-0.49l-3.641-0.182c1.105,0.112,6.966-0.354,10.183-0.006
				c-0.644,0.021-1.753,0.122-2.357,0.092c0.09,0.25,1.343,0.623,3.83,0.685l0.954-0.381l1.006,0.297
				c3.783,0.005-1.114-0.549,2.673-0.543c2.207,1.095,16.302,0.146,19.566,1.11c2.573-0.792-7.164-0.114-4.345-0.832
				c1.157,0.119,1.676,0.267,4.138,0.33l-0.852-0.474c11.457,0.27,15.826,0.675,26.021,0.575l-0.41,0.102
				c3.632,0.184,5.588,0.099,7.212-0.311c0.751,0.221-1.865,0.334-0.449,0.53c6.396-1.215,12.777,0.891,16.677,0.042
				c-0.51,0.958,7.847,1.871,4.361,2.619l2.621-0.115c-0.863,0.633-8.222,0.016-9.729,0.678l-8.27-0.662
				c0.264,0.238-1.097,0.591,0.229,0.672c-2.038,0.012-3.825,0.047-1.148,0.389c-19.751-1.611-40.047-0.053-59.496-0.908
				c-1.312,0.055-0.557,0.277-0.052,0.426c-3.58-0.609-3.429,0.318-5.389,0.406l-5.243-0.881c-2.124,0.262-0.466,0.531-0.621,0.706
				c-9.924,0.177-19.592-0.681-27.628-0.161c-2.557-0.314,0.613-0.709-2.764-0.817c4.586,0.91-9.833,0.428-6.914,1.065
				c-3.269-0.963-12.151-0.205-10.674-1.545c-4.042-0.08-3.347,0.569-2.181,0.69c-4.689-0.052-8.473-0.058-12.308,0.362
				c-2.573-0.312-21.427,0.334-25.615-0.675c2.85,0.654-0.216,0.339-2.954,0.625l2.471,0.578l-6.18-0.062
				c-1.257,0.055-1.61,0.031-1.606-0.021c-1.049-0.027,0.246-0.333-2.414-0.48c-4.201-0.035-4.404,0.281-6.719,0.581l0.644,0.085
				l-2.854,0.054c-2.099-0.017,7.428-0.572,0.579-0.87c-0.104,0.159-4.129,0.922-5.968,0.507c3.497,0.029,3.057-0.372,1.771-0.542
				l-4.906-0.042l1.624,0.731c-14.056-0.041-28.682-0.56-43.691-0.516c0.207-0.64-10.623-0.033-9.267-0.973l0.574,0.089
				c3.688-0.093-1.067-0.743-4.068-0.638c3.14,0.3-5.626,0.943,2,1.083l-5.891,0.446c-3.273,1.804-15.727-0.153-24.657,0.429
				c0.631-0.069,0.795-0.167,0.873-0.221c-7.941,0.576-17.805-0.488-19.644-0.201l-0.704-0.495
				c-6.788,0.761-7.592,0.827-15.688,0.519c0.108-0.08,1.041-0.224-0.237-0.326c-1.951,0.367-3.908,0.732-9.448,0.631l0.225-0.156
				l-8.662,0.083c0.061-1.529-14.854,0.935-17.454-0.724c-1.701,0.447-8.041,0.588-10.856,0.801
				c-0.013-0.066-0.198-0.135-0.665-0.206c-3.329,0.823-9.607-0.255-13.291-0.163c-2.409,0.195-1.364,0.457-0.319,0.717
				c-4.755-0.648-13.128,0.727-14.859,0.45c-3.484-0.062-1.3-0.585-2.258-0.923c-5.174,0.146,0.872,1.382-6.076,0.773
				c0.808-0.066,2.302-0.121,1.723-0.211c-2.655-0.129-7.396-1.884-10.044-1.532l1.749,0.274
				c-4.841,0.395-11.447-1.244-12.225-0.214l0.453,0.481c-8.334-0.636-3.532,0.187-11.982-0.369l0.104-0.08
				c-3.688,0.092-5.679-0.505-7.488,0.265l1.27,0.104c-4.568,0.061-4.979,0.004-9.638-0.035c-0.544,0.074-2.793,0.189-3.441,0.028
				c-0.211,0.638-10.813,0.294-12.886,0.255c3.688-0.094,1.939-0.365,0.894-0.626c-2.176,0.523-3.675,0.576-6.685,0.2
				c-0.432,0.796-1.028,1.646-6.965,1.692c0.92-0.121,2.362-0.188,1.771-0.352c-0.604-0.164-1.982,0.016-2.448,0.075
				c-0.592-0.164,1.312-0.292,0.647-0.566c-4.007,0.76-6.926,0.052-12.739,0.323c1.844-0.238,0.259-0.396-0.406-0.672
				c-0.449,0.903-7.954-0.784-5.743,0.384c-11.383-0.702-28.897-0.053-33.328-0.806c-1.201-0.327-4.37,0.204-6.348,0.219
				l0.268-0.396c-5.545,0.719-4.318,0.267-10.839,0.992c2.703-0.473,1.576-0.689-1.148-1.062l-4.474,0.822l-0.873-0.61
				c-1.839,0.239-3.886,0.143-5.938,0.045c0.989-0.008,0.449-0.061,0.389-0.171c-0.98,0.85-8.991,0.751-10.23,1.155
				c-2.003-0.83-5.363,0.21-6.827-0.568c-0.656,0.118-1.507,0.213-2.431,0.291c0.959,0.363,1.313,0.768-0.492,0.59
				c-0.155,0.006-0.276,0.01-0.423,0.014l-0.786-0.481c-1.839,0.114-3.713,0.169-4.949,0.179c0.557,0.041,1.201,0.131,1.874,0.24
				c-0.789-0.085-1.52-0.164-2.228-0.24c-0.25-0.001-0.497-0.003-0.661-0.004c0.117-0.014,0.25-0.024,0.397-0.024
				c-1.127-0.112-2.285-0.169-3.891-0.005c-6.438-0.738-14.314,1.012-21.418-0.002c1.071,0.104,2.574,0.15,2.979-0.022
				c-5.942,0.046-11.84-0.641-15.597-0.272l0.268,0.447c-4.361,0.206-7.726,0.348-11.236,0.321l-0.19,0.505
				c-5.104-0.186-16.046,0.633-19.172-0.412c-1.248,0.404-7.056-0.119-9.958,0.016l-0.734-0.389
				c-3.779-0.127-6.115,0.011-8.369,0.125c-7.669-0.812-14.773-0.012-21.479-0.068l-0.065-0.111l-6.801,0.277
				c1.783-0.352-1.339,0.244-3.381,0.146c-2.164,0.189-5.674,0.088-8.226-0.164l-4.335-0.02c4.815-0.264-0.346-0.561-0.618-1.01
				l-2.768,0.361c-1.114-0.217,1.784-0.354-0.259-0.449c-1.857,0.241-7.333,0.226-9.042,0.689c0.268,0.113,0.933,0.22,1.753,0.309
				c0.233-0.029,0.22-0.022,0.069,0.01c0.073,0.008,0.121,0.014,0.19,0.021c-0.086-0.005-0.125-0.007-0.233-0.014
				c-0.233,0.043-0.596,0.119-0.751,0.178c-3.446-0.099-2.185,0.084-2.06,0.287c-3.917-0.701-6.102-0.229-9.094-1.05
				c4.063,0.926-8.965,0.007-6.438,0.89c-2.915-0.709-1.995-0.035-3.861-0.641c4.103,0.194,8.188-0.456,11.487-0.766l-3.248-0.424
				c2.116-0.803,7.289,0.299,9.219,0.027c-1.299,0.187-4.227,0-4.331-0.178l0.873,0.612c4.633,0.246,8.321-0.232,11.607-0.539
				c-3.1-0.202,3.766-0.368,1.516-0.802l-2.457,0.075c-1.123-0.215,1.252-0.403,2.634-0.583c7.747,0.446,21.945,0.055,24.722,0.539
				c-1.584-0.156-4.495-0.02-5.877,0.159l3.636,0.254c-2.954,0.022-5.285-0.524-9.646-0.318c0.734,0.386-2.427,0.918,0.885,1.456
				c8.343,0.608,6.853-1.012,16.901-0.865c0.928-0.12-2.103,0.635,3.247,0.426c6.732-0.391,11.664-1.275,11.65-2.119
				c-2.837,0.248-8.498,0.743-9.37,0.13c2.828-0.249,7.716-0.398,7.967-0.793c2.928,0.707-5.346,0.209-1.502,0.798
				c1.986-0.016,2.841-0.246,3.765-0.368c-1.321,0.293,1.784,0.493,2.375,0.658c6.443,0.008,10.148,0.317,17.053,0.377
				c0.367,0.104,1.127,0.329,0.928,0.502c3.373-0.195,8.183-1.254,6.927-1.694c3.955-0.03,4.163,0.306,7.531,0.11
				c-5.372-0.633,1.054,0.105,1.632-0.575c3.441-0.084,1.2,0.328,2.785,0.485c0.574-0.073,1.948-0.299,2.034-0.483
				c2.116,0.517-4.098,1.349-1.61,1.95c1.723,0.38,9.116,1.062,9.643,1.114c1.641-0.577,1.162-2.95-1.3-3.717
				c0.263-0.397,3.26,0.425,4.767,0.467c4.375,0.644,6.672-0.502,10.308-0.249l-2.768,0.359c0.601,0.164,5.955-0.046,6.801-0.277
				c0.138,0.223-2.768,1.153-1.105,1.42c6.534,0.118,12.734-1.118,12.324-1.79l-10.018,0.698c-0.35-0.561,7.116-0.561,6.702-1.234
				l9.228,0.2c-1.17,0.018-4.729,0.176-3.33,0.486c3.964-0.031,2.056,0.098,4.698,0.358c-4.542,0.708-12.859,2.532-15.822,3.398
				l4.759-0.375l1.192,0.33c6.201-0.444,11.806-2.637,13.438-3.214c3.571,0.142,2.323,1.34,1.473,1.573
				c7.013,0.058,6.926-1.694,13.995-1.524l-2.651-0.261c1.667-0.111,7.729,0.13,7.082-0.09c1.399,0.318,2.686,1.067,1.123,1.27
				l6.262-1.124c-0.92,0.119-0.32,1.08-0.708,1.249c2.513,0.038,4.284-1.108,2.69-1.265c4.91,0.693,3.692,0.315,7.673,1.128
				c1.451-0.066-0.129-1.019-1.192-1.122c3.282-0.259,5.208-0.136,6.762-0.031c-5.419,0.411-1.477,2.151-2.504,2.881l11.668-2.862
				c-0.397,0.172-1.317,1.087-1.252,1.197c0.976-0.85,14.336-0.961,20.874-0.843l-0.98,0.008c-1.326,0.292,4.301,0.529,6.603,0.23
				c-0.384,0.17-0.924,0.12-1.909,0.128c4.37,0.642,5.67-1.29,10.122-0.536c-4.033-0.082-4.828,0.262-4.62,0.598
				c3.303-0.304,10.964,0.028,9.362-0.974c2.12,0.209,4.029,0.083,3.843,0.589l8.127-0.596c-0.605,0.102-1.127,0.397,1.252,0.468
				c-4.56-0.134-8.964,0.8-11.365,0.145c-0.117,0.617,1.593,0.95-0.587,1.474c8.792-0.295,13.606-1.352,19.147-2.07l7.738,0.446
				l0.328-0.283l1.343,0.713c0.967-0.164,1.585-0.305,1.788-0.237c0.177,0.064-0.069,0.158-0.453,0.264
				c0.816-0.035,1.559-0.098,1.943-0.173c0.303,0.375-1.062,0.805-2.526,1.193c-0.696-0.129-1.414-0.262-2.129-0.394
				c-1.52,0.356-2.617,0.726-0.501,0.963c0.303-0.043,0.683-0.097,1.088-0.154c-0.972,0.268-1.567,0.487-0.855,0.592l5.916-0.343
				c-0.669-0.097-1.675-0.3-2.85-0.532c3.705-0.467,7.937-1.035,4.629-1.516l4.508,0.421c5.29-0.708,4.37-0.564,10.813-1.089
				c0.354,0.248-1.36,0.46-0.203,0.64c4.698-0.8,11.465,0.936,12.492,0.23c3.792-0.173,1.581-0.615,3.99-0.812
				c-0.112,0.079-0.337,0.235,0.362,0.248l2.868-0.511c1.157,0.182-2.639,0.354,0.591,0.574c5.523-0.383,8.771-0.643,13.387-0.399
				c6.572-0.12-2.815-1.017,2.738-0.916c0.815,0.419,1.532,0.913,5.004,0.977c1.831-0.288,1.581-0.614,4.694-0.799l-0.194,0.64
				c2.876-0.029,5.173-0.146,5.199,0.336c2.354-0.273,3.973-0.225,5.208-0.122c4.361-0.338-3.213-1.298-4.232-1.549
				c4.293,0.48,7.255,0.201,9.708,0.971l-3.801,0.173c8.11,0.792,7.687-0.906,11.443,0.45c-2.776-0.051-6.11,0.291-4.469,0.643
				l4.02-0.328c0.476,0.168-2.297,0.117-0.453,0.312c1.145-0.14,3.493-0.467,4.534-0.682l-0.057,0.04l7.264-0.109
				c-1.378-0.025-1.719,0.21-0.328,0.237l4.759-0.336c-1.455,0.161,0.034,0.358,2.176,0.464c6.132,0.191,4.906-1.439,9.669-0.791
				c-0.695-0.012-0.808,0.069-1.507,0.055l2.448,0.285c0.514-1.357,14.427-0.138,14.949-1.496c3.485,0.548,0.246,0.328-4.236,0.97
				l3.714,0.388C549.954,2.552,548.692,2.448,547.078,2.58z M499.975,2.682c-0.786-0.284-2.932,0.028-4.007,0.129
				C497.799,2.97,498.748,3.235,499.975,2.682z M415.036,4.075c-1.39-0.183-2.629-0.261-3.429-0.102
				C412.877,4.097,414.025,4.114,415.036,4.075z M176.719,7.308c-0.04,0.008-0.07,0.015-0.117,0.023
				C178.269,7.424,179.115,7.497,176.719,7.308z M174.106,7.228c-1.27-0.034-2.392-0.025-2.738,0.096
				c-0.211-0.066-0.246-0.134,0.255-0.2C173.113,7.014,173.752,7.101,174.106,7.228z M705.547,6.806l0.972,0.126
				C707.128,6.792,707.741,6.667,705.547,6.806z"/>
			<path fill="#5D5F5F" d="M421.172,3.314c0.307,0.08,0.389,0.17,0.462,0.261C422.057,3.494,422.066,3.401,421.172,3.314z"/>
			<path fill="#5D5F5F" d="M585.977,2.247l0.168,0.005c0.091-0.029,0.143-0.057,0.173-0.087L585.977,2.247z"/>
			<path fill="#5D5F5F" d="M248.781,3.032c1.023,0.069,1.593,0.158,1.973,0.249C250.814,3.163,250.348,3.063,248.781,3.032z"/>
			<path fill="#5D5F5F" d="M145.23,7.942l3.191-0.125c-1.546,0.023-2.099-0.082-2.876-0.158
				C145.619,7.771,146.228,7.934,145.23,7.942z"/>
			<path fill="#5D5F5F" d="M117.538,4.957c-0.466,0.059-0.993,0.007-1.451,0.066l0.129,0.224
				C118.203,5.233,119.589,5.052,117.538,4.957z"/>
			<path fill="#5D5F5F" d="M142.276,6.34c-0.254-0.407-2.258-0.269-4.491-0.194c0.134,0,0.263,0,0.393,0
				C137.522,6.714,139.906,6.526,142.276,6.34z"/>
			<path fill="#5D5F5F" d="M137.268,6.159c-0.687,0.02-1.395,0.03-2.068,0.01C134.94,6.397,136.041,6.218,137.268,6.159z"/>
			<path fill="#5D5F5F" d="M165.306,7.392c-1.062-0.105-0.665,0.518-1.265,0.354C162.857,8.261,171.109,7.12,165.306,7.392z"/>
			<polygon fill="#5D5F5F" points="140.467,5.004 141.266,5.504 142.519,5.099 			"/>
			<path fill="#5D5F5F" d="M158.111,5.371l-3.571-0.141c0.056,0.085-0.402,0.134-0.955,0.172
				C155.784,5.419,158.198,5.518,158.111,5.371z"/>
			<path fill="#5D5F5F" d="M153.586,5.402c-1.148-0.011-2.237,0-2.876,0.083C151.332,5.479,152.662,5.464,153.586,5.402z"/>
			<polygon fill="#5D5F5F" points="145.347,4.853 146.4,4.956 148.927,4.993 			"/>
			<path fill="#5D5F5F" d="M196.5,5.465l3.895-0.143c0.397-0.172-0.665-0.277-2.116-0.208C197.347,5.234,195.904,5.3,196.5,5.465z"
				/>
			<path fill="#5D5F5F" d="M184.711,4.094c1.058,0.104,1.127,0.216,1.719,0.38l0.121-0.621L184.711,4.094z"/>
			<path fill="#5D5F5F" d="M196.082,3.95c0.389-0.173,5.652-0.496,0.712-0.457C196.401,3.665,192.497,3.807,196.082,3.95z"/>
			<polygon fill="#5D5F5F" points="254.805,4.735 253.812,4.743 253.958,5.761 			"/>
			<path fill="#5D5F5F" d="M306.562,2.297c-4.616-0.243-1.097,0.63-5.268,0.326c-1.084,0.24,3.411,0.248,2.297,0.456
				C306.381,2.825,307.845,2.968,306.562,2.297z"/>
			<path fill="#5D5F5F" d="M303.592,3.079c-0.445,0.04-0.916,0.089-1.421,0.155C302.979,3.169,303.358,3.123,303.592,3.079z"/>
			<polygon fill="#5D5F5F" points="887.845,7.448 890.815,7.661 888.898,7.319 			"/>
			<path fill="#5D5F5F" d="M893.544,6.692l0.7,0.651l1.783-0.588C895.358,6.784,894.054,6.841,893.544,6.692z"/>
			<path fill="#5D5F5F" d="M487.72,1.504l-0.229,0.155c0.462,0.169,1.152,0.182,2.548,0.208L487.72,1.504z"/>
			<polygon fill="#5D5F5F" points="527.996,1.99 527.301,1.976 528.596,2.563 			"/>
			<path fill="#5D5F5F" d="M561.803,1.241c-1.382-0.025-3.005,0.107-4.387,0.082C560.421,1.216,562.174,1.973,561.803,1.241z"/>
		</g>
	</g>
</g>
<g>
	<g>
		<g>
			<path fill="#5D5F5F" d="M896.977,2.567c1.326,0.036,0.852-0.384,1.05-0.458C895.812,2.201,897.037,2.674,896.977,2.567z"/>
			<polygon fill="#5D5F5F" points="875.14,3.518 875.528,3.346 872.312,3.766 			"/>
			<path fill="#5D5F5F" d="M854.719,3.51c1.935,0.713,7.401-0.115,11.038,0.138l0.604,0.163l1.641-0.574
				C863.58,3.328,857.837,3.709,854.719,3.51z"/>
			<path fill="#5D5F5F" d="M843.833,1.966c0.669,0.278-2.354,0.239,2.539,0.088c-0.245-0.038-0.315-0.048-0.462-0.071
				C845.47,1.987,844.865,1.987,843.833,1.966z"/>
			<path fill="#5D5F5F" d="M845.91,1.983C848.061,1.961,844.502,1.749,845.91,1.983L845.91,1.983z"/>
			<path fill="#5D5F5F" d="M835.979,2.142l2.832-0.248c-0.587-0.164-3.113-0.201-2.176-0.321
				C833.732,1.709,834.328,1.872,835.979,2.142z"/>
			<path fill="#5D5F5F" d="M833.292,2.661l1.469-0.103C834.506,2.488,834.117,2.465,833.292,2.661z"/>
			<path fill="#5D5F5F" d="M837.878,2.336l-3.117,0.222c0.414,0.114,0.457,0.346,1.434-0.08
				C835.935,2.689,836.553,2.487,837.878,2.336z"/>
			<path fill="#5D5F5F" d="M839.64,2.445c1.585,0.154,3.641,0.251,0.795,0.5C845.858,2.846,845.055,2.346,839.64,2.445z"/>
			<path fill="#5D5F5F" d="M853.679,4.248l2.124,0.208l1.836-0.238C856.723,4.337,853.545,4.025,853.679,4.248z"/>
			<path fill="#5D5F5F" d="M818.334,1.771c-0.177,0.153,0.95,0.406,1.161,0.6l2.095-0.176
				C820.515,2.093,818.477,1.997,818.334,1.771z"/>
			<path fill="#5D5F5F" d="M819.495,2.371l-3.13,0.261C819.163,2.661,819.673,2.539,819.495,2.371z"/>
			<polygon fill="#5D5F5F" points="832.791,3.455 837.93,2.907 831.798,3.461 			"/>
			<polygon fill="#5D5F5F" points="806.377,1.753 808.151,1.402 804.99,1.933 			"/>
			<path fill="#5D5F5F" d="M798.444,1.814c1.312-0.292-1.801-0.492-0.41-0.672c-2.155,0.052-3.994,0.302-5.652,0.527
				C794.144,1.544,796.018,1.576,798.444,1.814z"/>
			<path fill="#5D5F5F" d="M789.601,1.997c0.881-0.068,1.792-0.194,2.781-0.327C791.449,1.737,790.529,1.833,789.601,1.997z"/>
			<path fill="#5D5F5F" d="M811.036,2.557c-0.242-0.092-0.708-0.333-2.466-0.434l1.23,0.427
				C810.177,2.552,810.604,2.554,811.036,2.557z"/>
			<path fill="#5D5F5F" d="M809.845,2.563l-0.044-0.013c-1.338-0.012-2.263-0.02-2.659-0.023
				C807.482,2.531,808.299,2.542,809.845,2.563z"/>
			<path fill="#5D5F5F" d="M811.347,2.559c-0.116-0.001-0.198-0.001-0.311-0.002C811.152,2.598,811.227,2.612,811.347,2.559z"/>
			<path fill="#5D5F5F" d="M824.582,3.069c-1.839,0.24-5.674,0.494-1.965,0.859C823.939,3.634,821.814,3.426,824.582,3.069z"/>
			<path fill="#5D5F5F" d="M812.876,3.093l3.325,0.098c-0.069-0.112-0.665-0.278,0.241-0.397L812.876,3.093z"/>
			<polygon fill="#5D5F5F" points="811.243,3.227 812.876,3.093 811.641,3.057 			"/>
			<path fill="#5D5F5F" d="M795.301,2.397c-1.438,0.184-3.01,0.201-4.785,0.231c1.9,0.084,3.869,0.129,5.735,0.128
				C796.519,2.623,797.339,2.382,795.301,2.397z"/>
			<path fill="#5D5F5F" d="M802.365,2.515c-0.096,0.007-0.225,0.018-0.319,0.025C802.244,2.576,802.399,2.588,802.365,2.515z"/>
			<path fill="#5D5F5F" d="M773.04,2.625c0.099,0.028,0.187,0.052,0.281,0.079c0.025-0.026,0.038-0.05,0.069-0.075L773.04,2.625z"/>
			<path fill="#5D5F5F" d="M796.57,2.837c1.434,0.081,2.284-0.022,3.101-0.154c-1.071,0.043-2.202,0.071-3.42,0.074
				C796.134,2.818,796.112,2.858,796.57,2.837z"/>
			<path fill="#5D5F5F" d="M784.729,2.195c0.743,0.092,1.585,0.167,2.475,0.236C786.475,2.297,784.989,2.085,784.729,2.195z"/>
			<path fill="#5D5F5F" d="M801.566,2.422c0.073-0.007,0.134-0.012,0.212-0.019C801.312,2.311,801.372,2.355,801.566,2.422z"/>
			<path fill="#5D5F5F" d="M801.566,2.422c-0.738,0.062-1.317,0.167-1.896,0.261c0.872-0.035,1.675-0.08,2.375-0.143
				C801.873,2.51,801.691,2.461,801.566,2.422z"/>
			<path fill="#5D5F5F" d="M767.751,5.369c0.25-0.396,4.007-0.762,7.254-0.337c3.191-0.296,1.105-1.6-1.684-2.327
				c-0.096,0.172-0.096,0.331-3.386,0.565c1.153,0.217,7.293,0.506,4.521,0.865c-4.354,0.204-3.567-0.142-5.684-0.35
				c1.801,0.493-5.54,0.717-4.59,1.442l3.817-0.254C768.07,5.085,766.688,5.266,767.751,5.369z"/>
			<path fill="#5D5F5F" d="M779.582,2.744l1.356-0.049c-1.546-0.07-2.647-0.229-4.681-0.538c-2.246,0.194-2.712,0.339-2.867,0.472
				l6.654,0.056L779.582,2.744z"/>
			<path fill="#5D5F5F" d="M787.01,2.694c-1.058,0.43-4.306,0.612-2.314,1.08c3.964-0.029,2.781-0.361,5.147-0.547
				c-6.399,0.107,1.839-0.239-2.785-0.484c1.256-0.073,2.388-0.096,3.458-0.113c-1.152-0.053-2.263-0.119-3.312-0.198
				c0.056,0.011,0.099,0.019,0.146,0.028l0.03-0.003c0,0.004-0.009,0.005-0.009,0.005c0.276,0.056,0.372,0.089,0.057,0.058
				c-0.021,0.006-0.1,0.008-0.134,0.009c-0.043,0.06-0.16,0.113-0.285,0.163c-1.856-0.089-0.294-0.114,0.285-0.163
				c0.025-0.021,0.073-0.041,0.077-0.066c-0.004,0-0.013-0.001-0.021-0.002l-6.412,0.236C782.294,2.754,783.996,2.742,787.01,2.694z
				"/>
			<path fill="#5D5F5F" d="M819.197,4.854c-0.198-0.038-0.189-0.07-0.207-0.101C818.576,4.806,818.42,4.842,819.197,4.854z"/>
			<path fill="#5D5F5F" d="M816.56,4.594c0.466-0.059,0.854-0.232,2.37-0.188c1.312,0.129-0.009,0.206,0.061,0.348
				c0.916-0.113,3.2-0.309,0.337-0.517l-0.458,0.057c-2.582-0.147-5.898-0.684-5.449-0.744
				C814.176,3.938,814.841,4.214,816.56,4.594z"/>
			<path fill="#5D5F5F" d="M801.597,3.754l-5.342,0.211l2.725,0.373l-0.143-0.226C801.877,4.201,801.221,3.926,801.597,3.754z"/>
			<polygon fill="#5D5F5F" points="772.432,2.412 773.14,1.956 770.057,2.598 			"/>
			<polygon fill="#5D5F5F" points="765.488,2.466 765.747,2.07 763.916,2.309 			"/>
			<path fill="#5D5F5F" d="M373.775,7.376l-1.572,0.111C372.946,7.452,373.421,7.416,373.775,7.376z"/>
			<path fill="#5D5F5F" d="M385.136,7.403l0.276-0.195C384.89,7.315,384.67,7.395,385.136,7.403z"/>
			<path fill="#5D5F5F" d="M595.005,2.51c-2.284-0.369-4.836-0.942-4.56-0.497l0.699,0.434
				C592.742,2.369,593.965,2.417,595.005,2.51z"/>
			<path fill="#5D5F5F" d="M478.25,5.101c0.216,0.042,0.444,0.088,0.669,0.132c0.557-0.15,1.074-0.289,1.542-0.415
				C479.795,4.903,479.044,4.999,478.25,5.101z"/>
			<path fill="#5D5F5F" d="M476.635,6.895l-3.015-0.278C474.303,6.714,475.271,6.808,476.635,6.895z"/>
			<path fill="#5D5F5F" d="M311.709,7.836l-1.831,0.442C312.746,8.276,311.485,8.054,311.709,7.836z"/>
			<path fill="#5D5F5F" d="M694.393,2.625c-1.969-0.169-3.541-0.24-4.923-0.262C691.85,2.612,693.767,2.987,694.393,2.625z"/>
			<path fill="#5D5F5F" d="M378.245,2.771c-0.963,0.08-1.369,0.168-1.343,0.264C377.89,2.961,378.447,2.877,378.245,2.771z"/>
			<path fill="#5D5F5F" d="M683.774,2.365c0.351,0.034,0.687,0.067,1.041,0.102c1.442-0.072,2.893-0.13,4.654-0.103
				C687.717,2.178,685.705,2.062,683.774,2.365z"/>
			<path fill="#5D5F5F" d="M86.636,7.477c-0.165-0.017-0.357-0.036-0.509-0.052C86.079,7.483,86.304,7.487,86.636,7.477z"/>
			<path fill="#5D5F5F" d="M21.064,3.098c0.644-0.026,1.701-0.026,2.694-0.032C23.275,3.035,22.459,3.039,21.064,3.098z"/>
			<path fill="#5D5F5F" d="M737.558,2.277C739.034,2.248,737.791,2.227,737.558,2.277L737.558,2.277z"/>
			<path fill="#5D5F5F" d="M744.717,3.992c-0.311,0.049-0.548,0.111-0.587,0.211C744.251,4.098,744.458,4.032,744.717,3.992z"/>
			<path fill="#5D5F5F" d="M669.109,5.065c-0.043-0.001-0.077-0.002-0.125-0.003C669.421,5.148,669.348,5.133,669.109,5.065z"/>
			<path fill="#5D5F5F" d="M739.777,2.474c-0.553-0.053-1.192-0.098-1.883-0.128C738.197,2.377,738.767,2.42,739.777,2.474z"/>
			<path fill="#5D5F5F" d="M739.475,2.269c0.51,0.017,0.907,0.03,1.287,0.042C740.952,2.238,740.788,2.194,739.475,2.269z"/>
			<path fill="#5D5F5F" d="M735.511,2.299c0.838-0.006,1.624,0.015,2.384,0.047c-0.294-0.031-0.415-0.055-0.337-0.069
				C737.126,2.281,736.521,2.288,735.511,2.299z"/>
			<path fill="#5D5F5F" d="M207.23,6.315c-0.095-0.013-0.207-0.027-0.311-0.041C205.434,6.455,206.082,6.426,207.23,6.315z"/>
			<path fill="#5D5F5F" d="M556.689,7.015c0.069-0.009,0.108-0.014,0.169-0.021c-0.069-0.005-0.155-0.011-0.216-0.014L556.689,7.015
				z"/>
			<path fill="#5D5F5F" d="M551.4,7.338c2.254-0.539,3.532-0.474,5.242-0.358l-1.754-1.252L551.4,7.338z"/>
			<path fill="#5D5F5F" d="M350.949,7.421c-4.871-0.574-9.457,0.148-12.1,0.503c-1.857-0.196,1.468-1.021-3.839-0.795
				c-7.492,0.265,1.42,0.991-3.079,1.15l-3.26-0.703c-5.748,0.538-10.04,0.057-14.885-0.032c-1.097,0.055-1.637,0.129-1.904,0.205
				c-5.16-0.305-10.809,0.686-14.704,0.455c0.911-0.144-2.219-0.442-2.686-0.611l-7.021,0.436c3.109-0.186,2.971-0.59,3.541-0.982
				c-2.193,0.042-3.23,0.264-4.72,0.316c0.911-0.145,1.831-0.289,0.669-0.47l-7.362,0.67c0.432,0.067,1.282,0.093,1.991,0.111
				c-1.84,0.004-5.826,0.259-8.455-0.071c0.233-0.154,1.136-0.301,1.36-0.459c2.211,0.445,3.468,0.068,4.616-0.235
				c-5.078,0.069-1.27-0.103-3.713-0.39c-3.584,0.017-5.052,0.552-4.111,0.891c-4.051-0.153-5.337-0.258-9.466,0.148l0.782-0.549
				l-3.796,0.173l3.075-0.669c-7.285-0.375-1.339,0.939-9.431,0.631l-0.017-0.482c-3.118,0.186-4.184,0.999-6.603,0.42
				c-3.022,0.293,5.169,0.681-1.935,0.781c-1.248-0.25-3.942-0.432-5.985-0.529c-2.267,0.22,1.727,0.57,3.178,0.505
				c-10.718,0.228-6.65-1.648-16.224-1.014c3.282,0.345-2.738,0.933,5.022,0.918c-3.705,0.286-7.293-0.698-11.154-0.173l2.513-0.617
				c-1.391-0.01-2.954,0.213-3.709,0.287l0.315-0.474c-4.776,0.833-8.883-0.395-11.72,0.695c1.974-0.858-3.558,0.05-5.458-0.284
				c3.929-0.605,11.266,0.018,11.789-0.775c-1.831-0.241-3.463,0.147-5.234-0.086c1.235-0.117,3.032-0.328,3.502-0.487
				c-6.037-0.451-9.474,0.478-13.141,0.685l6.469-0.185c-0.527,0.792-2.915,0.137-4.729,0.757c-3.234-0.425-5.765,0.191-8.403-0.07
				c0.699,0.004,0.747-0.072,1.446-0.068c-7.047,0.02-9.008-1.272-11.814-1.293c-2.751-0.103-7.963,0.329-6.076,0.665
				c-2.258,0.219,9.362-0.237,5.333,0.789c-4.025-1.187-8.274,0.443-17.048-0.367c3.843-0.42-2.254-0.667,1.17-0.985
				c-4.176,0.096-4.332,0.273-6.197,0.608l-1.257-0.371c-5.462,0.831-1.282,0.735-9.547,1.178c2.772-0.288-3.321-0.535-1.209-0.797
				c-2.289-0.026-4.525,0.087-6.201,0.31l0.302-0.053c-8.369,0.19-6.853-0.469-14.475-0.055l0.76,0.224
				c-9.984,0.604-22.606,0.213-32.939,0.49l3.64,0.182c-1.105-0.111-6.965,0.355-10.182,0.007c0.644-0.021,1.753-0.122,2.358-0.092
				c-0.091-0.251-1.343-0.623-3.831-0.685l-0.954,0.381l-1.006-0.297c-3.783-0.005,1.114,0.549-2.673,0.544
				c-2.207-1.095-16.301-0.146-19.566-1.11c-2.573,0.792,7.164,0.114,4.344,0.832c-1.157-0.119-1.675-0.267-4.137-0.33l0.851,0.475
				C50.566,6.924,46.196,6.519,36.001,6.619l0.41-0.102C32.78,6.333,30.824,6.419,29.2,6.829c-0.751-0.221,1.866-0.335,0.449-0.53
				c-6.395,1.215-12.777-0.891-16.677-0.042c0.509-0.958-7.846-1.871-4.361-2.619L5.99,3.754c0.863-0.634,8.222-0.016,9.729-0.678
				l8.27,0.662c-0.263-0.238,1.097-0.591-0.229-0.673c2.038-0.012,3.826-0.046,1.149-0.388c19.751,1.61,40.047,0.052,59.496,0.908
				c1.312-0.055,0.557-0.277,0.052-0.426c3.58,0.61,3.429-0.318,5.389-0.405l5.242,0.88c2.125-0.262,0.466-0.531,0.622-0.706
				c9.923-0.176,19.591,0.681,27.627,0.161c2.557,0.314-0.613,0.708,2.764,0.817c-4.586-0.91,9.833-0.428,6.914-1.065
				c3.269,0.964,12.151,0.205,10.675,1.545c4.042,0.08,3.347-0.569,2.181-0.69c4.689,0.051,8.472,0.058,12.307-0.362
				C160.75,3.646,179.603,3,183.792,4.009c-2.85-0.654,0.216-0.339,2.954-0.624l-2.47-0.579l6.18,0.062
				c1.256-0.054,1.61-0.031,1.606,0.021c1.049,0.028-0.246,0.333,2.414,0.481c4.202,0.035,4.405-0.282,6.719-0.582l-0.644-0.085
				l2.854-0.053c2.099,0.017-7.427,0.572-0.579,0.871c0.104-0.16,4.128-0.922,5.968-0.507c-3.498-0.029-3.057,0.372-1.771,0.542
				l4.905,0.042l-1.624-0.731c14.056,0.04,28.682,0.559,43.691,0.515c-0.207,0.641,10.623,0.033,9.267,0.973l-0.574-0.089
				c-3.688,0.093,1.066,0.743,4.068,0.638c-3.14-0.3,5.626-0.943-2-1.084l5.89-0.446c3.273-1.803,15.727,0.153,24.657-0.429
				c-0.63,0.069-0.794,0.167-0.872,0.221c7.941-0.577,17.804,0.489,19.644,0.201l0.704,0.496c6.788-0.761,7.591-0.827,15.688-0.518
				c-0.108,0.08-1.041,0.223,0.238,0.326c1.952-0.367,3.908-0.732,9.448-0.63l-0.224,0.156l8.662-0.083
				c-0.061,1.529,14.854-0.934,17.454,0.723c1.702-0.446,8.041-0.587,10.856-0.8c0.013,0.065,0.199,0.134,0.665,0.206
				c3.33-0.823,9.608,0.255,13.292,0.163c2.41-0.195,1.365-0.456,0.319-0.717c4.754,0.649,13.127-0.726,14.859-0.45
				c3.485,0.062,1.3,0.585,2.259,0.923c5.173-0.146-0.873-1.382,6.076-0.774c-0.808,0.066-2.302,0.121-1.723,0.21
				c2.656,0.129,7.397,1.885,10.044,1.532l-1.749-0.274c4.841-0.395,11.447,1.245,12.225,0.214l-0.453-0.481
				c8.334,0.635,3.532-0.187,11.983,0.369l-0.104,0.08c3.688-0.092,5.678,0.505,7.487-0.265l-1.269-0.104
				c4.569-0.061,4.979-0.003,9.638,0.036c0.544-0.074,2.794-0.189,3.441-0.029c0.212-0.638,10.812-0.293,12.886-0.255
				c-3.688,0.094-1.939,0.366-0.895,0.627c2.177-0.523,3.675-0.576,6.686-0.2c0.432-0.796,1.027-1.646,6.965-1.692
				c-0.92,0.121-2.362,0.188-1.771,0.352c0.604,0.164,1.982-0.016,2.448-0.076c0.592,0.164-1.312,0.292-0.647,0.566
				c4.007-0.76,6.927-0.052,12.738-0.323c-1.844,0.238-0.259,0.396,0.406,0.672c0.449-0.904,7.954,0.783,5.743-0.384
				c11.383,0.702,28.897,0.053,33.328,0.806c1.2,0.327,4.37-0.204,6.348-0.218l-0.268,0.396c5.544-0.718,4.318-0.267,10.838-0.992
				c-2.703,0.472-1.575,0.689,1.149,1.062l4.474-0.822l0.872,0.61c1.84-0.239,3.887-0.142,5.938-0.044
				c-0.989,0.007-0.449,0.06-0.389,0.17c0.98-0.85,8.99-0.75,10.229-1.155c2.004,0.829,5.363-0.21,6.827,0.567
				c0.656-0.118,1.507-0.212,2.432-0.291c-0.959-0.364-1.312-0.768,0.492-0.59c0.155-0.005,0.276-0.009,0.423-0.014l0.786,0.482
				c1.84-0.114,3.714-0.168,4.948-0.179c-0.557-0.041-1.2-0.13-1.874-0.24c0.789,0.085,1.521,0.163,2.229,0.239
				c0.25,0.002,0.496,0.004,0.661,0.005c-0.117,0.013-0.251,0.024-0.397,0.024c1.127,0.112,2.284,0.168,3.891,0.005
				c6.438,0.738,14.314-1.012,21.418,0.001c-1.071-0.104-2.573-0.15-2.979,0.022c5.941-0.045,11.841,0.641,15.598,0.273
				l-0.268-0.448c4.361-0.206,7.725-0.347,11.235-0.321l0.19-0.505c5.104,0.186,16.046-0.632,19.173,0.413
				c1.248-0.404,7.056,0.12,9.958-0.015l0.733,0.389c3.778,0.126,6.114-0.011,8.369-0.125c7.669,0.812,14.772,0.011,21.479,0.069
				l0.064,0.111l6.802-0.278c-1.784,0.352,1.338-0.243,3.381-0.146c2.163-0.189,5.674-0.088,8.227,0.164l4.335,0.021
				c-4.814,0.263,0.346,0.56,0.617,1.009l2.769-0.361c1.114,0.216-1.783,0.353,0.259,0.45c1.856-0.242,7.332-0.226,9.042-0.69
				c-0.268-0.113-0.933-0.219-1.753-0.308c-0.233,0.029-0.22,0.022-0.069-0.01c-0.072-0.009-0.12-0.014-0.189-0.022
				c0.086,0.005,0.125,0.008,0.233,0.014c0.232-0.043,0.596-0.119,0.751-0.177c3.446,0.098,2.186-0.085,2.06-0.288
				c3.917,0.702,6.102,0.229,9.095,1.05c-4.063-0.926,8.964-0.007,6.438-0.89c2.914,0.709,1.995,0.035,3.86,0.64
				c-4.103-0.194-8.188,0.457-11.486,0.766l3.247,0.425c-2.116,0.803-7.289-0.299-9.22-0.027c1.3-0.187,4.228,0,4.331,0.178
				l-0.872-0.613c-4.633-0.246-8.321,0.233-11.607,0.539c3.101,0.202-3.766,0.368-1.516,0.802l2.457-0.075
				c1.123,0.215-1.252,0.403-2.634,0.583c-7.747-0.446-21.945-0.055-24.722-0.539c1.585,0.156,4.495,0.02,5.877-0.159l-3.636-0.254
				c2.953-0.022,5.285,0.524,9.646,0.318c-0.733-0.386,2.427-0.918-0.885-1.456c-8.343-0.608-6.854,1.012-16.901,0.865
				c-0.929,0.12,2.103-0.635-3.248-0.426c-6.731,0.391-11.663,1.275-11.65,2.119c2.837-0.248,8.498-0.743,9.371-0.13
				c-2.829,0.249-7.717,0.398-7.968,0.793c-2.928-0.707,5.347-0.209,1.503-0.798c-1.986,0.016-2.841,0.246-3.766,0.368
				c1.321-0.293-1.783-0.493-2.375-0.658c-6.442-0.008-10.147-0.317-17.053-0.377c-0.366-0.104-1.127-0.329-0.928-0.502
				c-3.373,0.195-8.184,1.254-6.927,1.694c-3.955,0.03-4.163-0.306-7.531-0.11c5.372,0.633-1.053-0.105-1.632,0.575
				c-3.441,0.084-1.2-0.328-2.785-0.484c-0.574,0.072-1.947,0.299-2.034,0.482c-2.115-0.517,4.099-1.349,1.611-1.949
				c-1.724-0.38-9.116-1.062-9.643-1.114c-1.642,0.577-1.162,2.95,1.3,3.717c-0.264,0.396-3.261-0.426-4.768-0.468
				c-4.374-0.644-6.672,0.502-10.308,0.249l2.768-0.359c-0.6-0.164-5.954,0.046-6.801,0.277c-0.139-0.224,2.768-1.153,1.105-1.42
				c-6.533-0.118-12.734,1.118-12.324,1.79l10.019-0.697c0.35,0.561-7.117,0.561-6.702,1.234l-9.228-0.2
				c1.17-0.018,4.728-0.177,3.329-0.485c-3.964,0.03-2.056-0.099-4.698-0.359c4.543-0.708,12.859-2.531,15.821-3.398l-4.758,0.375
				l-1.192-0.33c-6.201,0.444-11.806,2.636-13.438,3.214c-3.57-0.142-2.323-1.34-1.472-1.573c-7.014-0.058-6.927,1.694-13.996,1.524
				l2.651,0.261c-1.666,0.111-7.729-0.13-7.081,0.09c-1.399-0.318-2.687-1.067-1.123-1.27l-6.262,1.124
				c0.92-0.119,0.319-1.08,0.708-1.249c-2.513-0.038-4.283,1.108-2.689,1.265c-4.91-0.693-3.692-0.314-7.674-1.128
				c-1.451,0.066,0.13,1.019,1.191,1.122c-3.281,0.259-5.207,0.136-6.762,0.031c5.419-0.412,1.477-2.151,2.504-2.881l-11.667,2.862
				c0.396-0.172,1.316-1.087,1.252-1.197c-0.976,0.85-14.336,0.961-20.874,0.843l0.98-0.008c1.325-0.293-4.302-0.529-6.603-0.23
				c0.384-0.17,0.924-0.119,1.908-0.128c-4.37-0.642-5.67,1.29-10.122,0.536c4.033,0.081,4.828-0.262,4.621-0.598
				c-3.304,0.304-10.964-0.028-9.362,0.973c-2.12-0.209-4.029-0.082-3.843-0.589l-8.127,0.596c0.604-0.102,1.127-0.397-1.253-0.468
				c4.561,0.134,8.965-0.8,11.366-0.145c0.116-0.618-1.594-0.95,0.587-1.474c-8.792,0.295-13.606,1.352-19.146,2.07l-7.738-0.446
				l-0.328,0.283l-1.344-0.713c-0.967,0.163-1.584,0.305-1.787,0.237c-0.178-0.064,0.069-0.158,0.453-0.264
				c-0.816,0.035-1.559,0.098-1.943,0.173c-0.302-0.375,1.062-0.805,2.526-1.193c0.696,0.129,1.413,0.262,2.129,0.394
				c1.521-0.356,2.617-0.726,0.501-0.963c-0.304,0.043-0.683,0.097-1.088,0.154c0.972-0.268,1.567-0.487,0.854-0.592l-5.916,0.343
				c0.67,0.097,1.676,0.3,2.851,0.532c-3.705,0.467-7.938,1.035-4.63,1.516l-4.508-0.421c-5.29,0.708-4.37,0.564-10.812,1.089
				c-0.354-0.248,1.36-0.459,0.203-0.639c-4.698,0.799-11.465-0.936-12.493-0.23c-3.791,0.173-1.58,0.615-3.99,0.812
				c0.112-0.08,0.337-0.235-0.363-0.248L438.79,7.49c-1.157-0.182,2.638-0.354-0.592-0.574c-5.523,0.383-8.77,0.644-13.386,0.399
				c-6.572,0.119,2.815,1.017-2.738,0.915c-0.816-0.419-1.533-0.913-5.005-0.977c-1.831,0.288-1.581,0.614-4.694,0.799l0.194-0.64
				c-2.876,0.029-5.173,0.146-5.199-0.337c-2.354,0.273-3.973,0.225-5.208,0.122c-4.361,0.338,3.212,1.298,4.231,1.549
				c-4.292-0.48-7.254-0.201-9.707-0.971l3.8-0.174c-8.109-0.791-7.686,0.906-11.443-0.449c2.776,0.051,6.11-0.291,4.469-0.644
				l-4.021,0.328c-0.475-0.169,2.297-0.117,0.454-0.312c-1.145,0.139-3.494,0.467-4.534,0.682l0.056-0.04l-7.263,0.108
				c1.377,0.025,1.719-0.209,0.328-0.236l-4.759,0.336c1.456-0.161-0.034-0.358-2.176-0.464c-6.132-0.191-4.905,1.438-9.668,0.791
				c0.695,0.012,0.808-0.069,1.507-0.056l-2.449-0.284c-0.514,1.357-14.427,0.138-14.95,1.496c-3.484-0.548-0.246-0.328,4.236-0.97
				l-3.713-0.389C348.073,7.448,349.334,7.553,350.949,7.421z M398.052,7.319c0.786,0.283,2.932-0.028,4.007-0.13
				C400.229,7.03,399.278,6.766,398.052,7.319z M482.991,5.926c1.391,0.183,2.63,0.261,3.429,0.102
				C485.15,5.904,484.002,5.886,482.991,5.926z M721.309,2.693c0.039-0.008,0.069-0.014,0.116-0.024
				C719.758,2.577,718.912,2.504,721.309,2.693z M723.921,2.773c1.27,0.034,2.393,0.025,2.737-0.097
				c0.212,0.067,0.246,0.134-0.255,0.201C724.914,2.987,724.275,2.899,723.921,2.773z M192.479,3.195l-0.971-0.126
				C190.899,3.208,190.286,3.333,192.479,3.195z"/>
			<path fill="#5D5F5F" d="M476.854,6.687c-0.307-0.08-0.389-0.17-0.462-0.261C475.97,6.507,475.961,6.599,476.854,6.687z"/>
			<path fill="#5D5F5F" d="M312.051,7.754l-0.168-0.005c-0.091,0.029-0.143,0.057-0.173,0.087L312.051,7.754z"/>
			<path fill="#5D5F5F" d="M649.246,6.969c-1.023-0.069-1.594-0.157-1.974-0.249C647.212,6.838,647.679,6.938,649.246,6.969z"/>
			<path fill="#5D5F5F" d="M752.797,2.059l-3.191,0.125c1.546-0.023,2.099,0.083,2.876,0.159
				C752.408,2.229,751.799,2.067,752.797,2.059z"/>
			<path fill="#5D5F5F" d="M780.489,5.044c0.467-0.059,0.993-0.007,1.451-0.066l-0.13-0.224
				C779.824,4.767,778.438,4.949,780.489,5.044z"/>
			<path fill="#5D5F5F" d="M755.75,3.661c0.255,0.407,2.259,0.269,4.491,0.194c-0.134,0-0.264,0-0.393,0
				C760.505,3.287,758.121,3.475,755.75,3.661z"/>
			<path fill="#5D5F5F" d="M760.76,3.841c0.687-0.019,1.395-0.03,2.068-0.01C763.087,3.603,761.985,3.783,760.76,3.841z"/>
			<path fill="#5D5F5F" d="M732.722,2.609c1.062,0.104,0.665-0.519,1.265-0.354C735.17,1.739,726.918,2.881,732.722,2.609z"/>
			<polygon fill="#5D5F5F" points="757.56,4.997 756.761,4.496 755.509,4.902 			"/>
			<path fill="#5D5F5F" d="M739.915,4.629l3.571,0.141c-0.056-0.085,0.402-0.134,0.954-0.172
				C742.243,4.582,739.829,4.483,739.915,4.629z"/>
			<path fill="#5D5F5F" d="M744.44,4.598c1.149,0.011,2.237,0,2.876-0.083C746.695,4.521,745.365,4.536,744.44,4.598z"/>
			<polygon fill="#5D5F5F" points="752.68,5.148 751.626,5.045 749.101,5.008 			"/>
			<path fill="#5D5F5F" d="M701.526,4.535l-3.895,0.143c-0.397,0.172,0.665,0.277,2.115,0.208
				C700.681,4.767,702.122,4.7,701.526,4.535z"/>
			<path fill="#5D5F5F" d="M713.315,5.906c-1.058-0.104-1.127-0.216-1.719-0.38l-0.121,0.621L713.315,5.906z"/>
			<path fill="#5D5F5F" d="M701.945,6.05c-0.389,0.173-5.652,0.496-0.712,0.457C701.626,6.336,705.529,6.194,701.945,6.05z"/>
			<polygon fill="#5D5F5F" points="643.223,5.266 644.216,5.258 644.068,4.239 			"/>
			<path fill="#5D5F5F" d="M591.464,7.703c4.616,0.243,1.098-0.63,5.269-0.325c1.084-0.24-3.411-0.248-2.297-0.456
				C591.646,7.176,590.182,7.032,591.464,7.703z"/>
			<path fill="#5D5F5F" d="M594.436,6.922c0.444-0.04,0.915-0.089,1.42-0.155C595.049,6.831,594.668,6.878,594.436,6.922z"/>
			<polygon fill="#5D5F5F" points="10.183,2.552 7.211,2.34 9.129,2.682 			"/>
			<path fill="#5D5F5F" d="M4.482,3.309l-0.7-0.652L2,3.245C2.669,3.217,3.973,3.16,4.482,3.309z"/>
			<path fill="#5D5F5F" d="M410.307,8.496l0.229-0.155c-0.462-0.169-1.153-0.182-2.548-0.208L410.307,8.496z"/>
			<polygon fill="#5D5F5F" points="370.031,8.011 370.727,8.024 369.431,7.438 			"/>
			<path fill="#5D5F5F" d="M336.224,8.76c1.382,0.024,3.005-0.106,4.387-0.081C337.606,8.784,335.853,8.028,336.224,8.76z"/>
		</g>
	</g>
</g>
</svg>
