<?xml version="1.0" encoding="utf-8"?>
<!-- Generator: Adobe Illustrator 12.0.0, SVG Export Plug-In . SVG Version: 6.00 Build 51448)  -->
<!DOCTYPE svg PUBLIC "-//W3C//DTD SVG 1.1//EN" "http://www.w3.org/Graphics/SVG/1.1/DTD/svg11.dtd" [
	<!ENTITY ns_svg "http://www.w3.org/2000/svg">
	<!ENTITY ns_xlink "http://www.w3.org/1999/xlink">
]>
<svg  version="1.1" id="Layer_1" xmlns="&ns_svg;" xmlns:xlink="&ns_xlink;" width="70.764" height="68.652"
	 viewBox="0 -23.513 70.764 68.652" overflow="visible" enable-background="new 0 -23.513 70.764 68.652" xml:space="preserve">
<g>
	<path fill="#E56D38" d="M35.181,21.624c1.094,0,2.026,0.396,2.798,1.188s1.157,1.734,1.157,2.828c0,1.095-0.386,2.037-1.157,2.828
		c-0.771,0.792-1.704,1.188-2.798,1.188s-2.036-0.396-2.827-1.188c-0.791-0.791-1.187-1.733-1.187-2.828
		c0-1.094,0.396-2.037,1.187-2.828S34.087,21.624,35.181,21.624z"/>
	<path fill="#E56D38" d="M35.181,6.952c1.094,0,2.026,0.396,2.798,1.187c0.771,0.792,1.157,1.734,1.157,2.829
		c0,1.095-0.386,2.037-1.157,2.828c-0.771,0.792-1.704,1.188-2.798,1.188s-2.036-0.396-2.827-1.188
		c-0.791-0.791-1.187-1.733-1.187-2.828c0-1.094,0.396-2.037,1.187-2.829C33.145,7.348,34.087,6.952,35.181,6.952z"/>
	<path fill="#E56D38" d="M35.181-7.72c1.094,0,2.026,0.396,2.798,1.187c0.771,0.792,1.157,1.734,1.157,2.829
		c0,1.095-0.386,2.038-1.157,2.829c-0.771,0.792-1.704,1.187-2.798,1.187s-2.036-0.396-2.827-1.187
		c-0.791-0.791-1.187-1.734-1.187-2.829c0-1.094,0.396-2.037,1.187-2.829C33.145-7.324,34.087-7.72,35.181-7.72z"/>
</g>
</svg>
