<?xml version="1.0" encoding="utf-8"?>
<!-- Generator: Adobe Illustrator 16.0.0, SVG Export Plug-In . SVG Version: 6.00 Build 0)  -->
<!DOCTYPE svg PUBLIC "-//W3C//DTD SVG 1.1//EN" "http://www.w3.org/Graphics/SVG/1.1/DTD/svg11.dtd">
<svg version="1.1" id="Layer_1" xmlns="http://www.w3.org/2000/svg" xmlns:xlink="http://www.w3.org/1999/xlink" x="0px" y="0px"
	 width="4.881px" height="167px" viewBox="0.214 -9.884 4.881 167" enable-background="new 0.214 -9.884 4.881 167"
	 xml:space="preserve">
<g>
	<g>
		<g>
			<path fill="#8A8B8B" d="M1.795-7.681c0.019-0.244-0.191-0.157-0.229-0.193C1.613-7.467,1.849-7.693,1.795-7.681z"/>
			<polygon fill="#8A8B8B" points="2.271,-3.66 2.185,-3.732 2.395,-3.14 			"/>
			<path fill="#8A8B8B" d="M2.267,0.1c0.356-0.356-0.058-1.363,0.069-2.033l0.081-0.111L2.13-2.346
				C2.176-1.532,2.366-0.474,2.267,0.1z"/>
			<path fill="#8A8B8B" d="M1.495,2.104c0.139-0.123,0.12,0.433,0.044-0.468C1.521,1.679,1.514,1.695,1.503,1.722
				C1.506,1.803,1.505,1.914,1.495,2.104z"/>
			<path fill="#8A8B8B" d="M1.503,1.722C1.492,1.326,1.386,1.981,1.503,1.722L1.503,1.722z"/>
			<path fill="#8A8B8B" d="M1.583,3.551L1.459,3.029c-0.082,0.108-0.1,0.573-0.161,0.401C1.366,3.964,1.448,3.854,1.583,3.551z"/>
			<path fill="#8A8B8B" d="M1.842,4.045L1.791,3.775C1.756,3.822,1.744,3.893,1.842,4.045z"/>
			<path fill="#8A8B8B" d="M1.68,3.201l0.111,0.574c0.057-0.076,0.173-0.084-0.04-0.264C1.857,3.558,1.755,3.445,1.68,3.201z"/>
			<path fill="#8A8B8B" d="M1.735,2.876c0.077-0.292,0.125-0.67,0.25-0.146C1.935,1.731,1.685,1.879,1.735,2.876z"/>
			<path fill="#8A8B8B" d="M2.636,0.291L2.74-0.1L2.621-0.438C2.68-0.269,2.525,0.316,2.636,0.291z"/>
			<path fill="#8A8B8B" d="M1.398,6.8c0.076,0.033,0.203-0.175,0.3-0.214L1.61,6.2C1.558,6.398,1.51,6.773,1.398,6.8z"/>
			<path fill="#8A8B8B" d="M1.698,6.586l0.13,0.577C1.842,6.647,1.781,6.553,1.698,6.586z"/>
			<polygon fill="#8A8B8B" points="2.24,4.137 1.966,3.191 2.242,4.32 			"/>
			<polygon fill="#8A8B8B" points="1.388,9.001 1.213,8.675 1.478,9.257 			"/>
			<path fill="#8A8B8B" d="M1.419,10.462c-0.146-0.242-0.246,0.332-0.336,0.075c0.026,0.397,0.151,0.736,0.264,1.041
				C1.284,11.254,1.3,10.909,1.419,10.462z"/>
			<path fill="#8A8B8B" d="M1.51,12.091c-0.034-0.163-0.097-0.33-0.163-0.512C1.38,11.75,1.429,11.919,1.51,12.091z"/>
			<path fill="#8A8B8B" d="M1.79,8.143c-0.046,0.044-0.167,0.13-0.217,0.454l0.214-0.227C1.788,8.302,1.789,8.223,1.79,8.143z"/>
			<path fill="#8A8B8B" d="M1.793,8.363L1.787,8.371c-0.006,0.246-0.01,0.417-0.012,0.49C1.778,8.798,1.783,8.648,1.793,8.363z"/>
			<path fill="#8A8B8B" d="M1.791,8.086c0,0.021,0,0.037-0.001,0.057C1.811,8.122,1.818,8.108,1.791,8.086z"/>
			<path fill="#8A8B8B" d="M2.046,5.649c0.12,0.338,0.247,1.044,0.43,0.362C2.329,5.767,2.225,6.158,2.046,5.649z"/>
			<path fill="#8A8B8B" d="M2.058,7.804l0.049-0.612C2.051,7.205,1.968,7.315,1.908,7.148L2.058,7.804z"/>
			<polygon fill="#8A8B8B" points="2.125,8.105 2.058,7.804 2.04,8.032 			"/>
			<path fill="#8A8B8B" d="M1.711,11.041c0.092,0.265,0.1,0.554,0.116,0.881c0.042-0.35,0.064-0.712,0.064-1.056
				C1.823,10.817,1.703,10.665,1.711,11.041z"/>
			<path fill="#8A8B8B" d="M1.77,9.74l0.012,0.059C1.8,9.762,1.806,9.734,1.77,9.74z"/>
			<polygon fill="#8A8B8B" points="1.824,15.14 1.864,15.088 1.826,15.075 			"/>
			<path fill="#8A8B8B" d="M1.93,10.807c0.041-0.264-0.011-0.42-0.077-0.571c0.021,0.197,0.036,0.406,0.037,0.63
				C1.921,10.887,1.941,10.891,1.93,10.807z"/>
			<path fill="#8A8B8B" d="M1.61,12.988c0.046-0.137,0.083-0.292,0.118-0.456C1.66,12.666,1.555,12.94,1.61,12.988z"/>
			<path fill="#8A8B8B" d="M1.723,9.887l-0.01-0.039C1.667,9.934,1.69,9.923,1.723,9.887z"/>
			<path fill="#8A8B8B" d="M1.723,9.887c0.031,0.136,0.083,0.243,0.13,0.349c-0.017-0.161-0.04-0.309-0.071-0.438
				C1.767,9.831,1.742,9.864,1.723,9.887z"/>
			<path fill="#8A8B8B" d="M3.196,16.114c-0.198-0.046-0.381-0.738-0.168-1.335c-0.148-0.588-0.8-0.204-1.164,0.31
				c0.086,0.018,0.166,0.018,0.283,0.623c0.108-0.212,0.253-1.343,0.433-0.832c0.102,0.801-0.071,0.657-0.175,1.046
				c0.246-0.332,0.358,1.02,0.721,0.845l-0.127-0.703C3.055,16.055,3.145,16.309,3.196,16.114z"/>
			<path fill="#8A8B8B" d="M1.884,13.935l-0.024-0.25c-0.035,0.285-0.114,0.488-0.27,0.862c0.098,0.414,0.17,0.5,0.236,0.528
				l0.028-1.226L1.884,13.935z"/>
			<path fill="#8A8B8B" d="M1.859,12.568c0.215,0.195,0.306,0.792,0.54,0.426c-0.015-0.729-0.181-0.512-0.273-0.948
				c0.054,1.179-0.12-0.338-0.242,0.513c-0.037-0.231-0.048-0.44-0.057-0.637c-0.026,0.212-0.06,0.417-0.099,0.61l0.014-0.027
				L1.74,12.499l0.002,0.001c0.028-0.051,0.045-0.068,0.029-0.01c0.003,0.004,0.004,0.018,0.004,0.024
				c0.03,0.008,0.057,0.029,0.082,0.053c-0.044,0.342-0.057,0.054-0.082-0.053c-0.01-0.005-0.02-0.014-0.033-0.014l-0.001,0.004
				l0.118,1.181C1.889,13.436,1.883,13.122,1.859,12.568z"/>
			<path fill="#8A8B8B" d="M2.939,6.64C2.92,6.677,2.905,6.676,2.889,6.678C2.915,6.755,2.933,6.783,2.939,6.64z"/>
			<path fill="#8A8B8B" d="M2.809,7.126C2.78,7.04,2.693,6.969,2.715,6.69C2.78,6.448,2.818,6.691,2.889,6.678
				C2.832,6.51,2.735,6.09,2.63,6.616l0.028,0.084C2.585,7.177,2.317,7.787,2.287,7.704C2.481,7.565,2.619,7.443,2.809,7.126z"/>
			<path fill="#8A8B8B" d="M2.389,9.882l0.105,0.983l0.187-0.501l-0.113,0.026C2.613,9.83,2.475,9.95,2.389,9.882z"/>
			<polygon fill="#8A8B8B" points="1.718,15.252 1.49,15.121 1.811,15.689 			"/>
			<polygon fill="#8A8B8B" points="1.745,16.531 1.547,16.483 1.666,16.82 			"/>
			<path fill="#8A8B8B" d="M4.2,88.659l0.057,0.29C4.239,88.812,4.219,88.724,4.2,88.659z"/>
			<path fill="#8A8B8B" d="M4.214,86.567l-0.098-0.052C4.169,86.613,4.21,86.653,4.214,86.567z"/>
			<path fill="#8A8B8B" d="M1.767,47.923c-0.185,0.42-0.471,0.891-0.249,0.839l0.217-0.128C1.697,48.339,1.72,48.114,1.767,47.923z"
				/>
			<path fill="#8A8B8B" d="M3.062,69.422l0.065-0.124c-0.074-0.102-0.143-0.197-0.207-0.284C2.964,69.138,3.012,69.276,3.062,69.422
				z"/>
			<path fill="#8A8B8B" d="M3.96,69.719l-0.14,0.555C3.869,70.148,3.915,69.97,3.96,69.719z"/>
			<path fill="#8A8B8B" d="M4.43,100.088l0.221,0.338C4.649,99.896,4.539,100.129,4.43,100.088z"/>
			<path fill="#8A8B8B" d="M1.824,29.621c-0.084,0.363-0.12,0.652-0.131,0.907C1.818,30.09,2.006,29.737,1.824,29.621z"/>
			<path fill="#8A8B8B" d="M1.898,87.836c0.04,0.178,0.084,0.252,0.132,0.248C1.992,87.901,1.95,87.799,1.898,87.836z"/>
			<path fill="#8A8B8B" d="M1.695,31.577c0.018-0.068,0.033-0.125,0.051-0.192c-0.036-0.266-0.065-0.533-0.052-0.857
				C1.601,30.851,1.543,31.221,1.695,31.577z"/>
			<path fill="#8A8B8B" d="M4.251,141.531l-0.026,0.094C4.255,141.635,4.255,141.594,4.251,141.531z"/>
			<path fill="#8A8B8B" d="M2.061,153.605c-0.013-0.117-0.013-0.312-0.016-0.496C2.03,153.199,2.031,153.349,2.061,153.605z"/>
			<path fill="#8A8B8B" d="M1.651,21.674C1.636,21.402,1.625,21.631,1.651,21.674L1.651,21.674z"/>
			<path fill="#8A8B8B" d="M2.508,20.355c0.024,0.057,0.056,0.101,0.105,0.108C2.561,20.441,2.528,20.403,2.508,20.355z"/>
			<path fill="#8A8B8B" d="M3.045,34.277L3.043,34.3C3.087,34.22,3.079,34.234,3.045,34.277z"/>
			<path fill="#8A8B8B" d="M1.749,21.265c-0.026,0.102-0.049,0.219-0.064,0.347C1.7,21.556,1.722,21.451,1.749,21.265z"/>
			<path fill="#8A8B8B" d="M1.646,21.321c0.008-0.095,0.015-0.167,0.021-0.237C1.631,21.049,1.609,21.078,1.646,21.321z"/>
			<path fill="#8A8B8B" d="M1.661,22.05c-0.003-0.154,0.007-0.299,0.023-0.438c-0.016,0.054-0.027,0.076-0.034,0.062
				C1.653,21.753,1.656,21.865,1.661,22.05z"/>
			<path fill="#8A8B8B" d="M3.669,119.326c-0.006,0.018-0.012,0.035-0.02,0.057C3.739,119.656,3.725,119.537,3.669,119.326z"/>
			<polygon fill="#8A8B8B" points="4.02,54.978 4.009,54.947 4.001,54.987 			"/>
			<path fill="#8A8B8B" d="M4.18,55.952c-0.27-0.415-0.236-0.65-0.18-0.965l-0.625,0.323L4.18,55.952z"/>
			<path fill="#8A8B8B" d="M4.222,92.863c-0.288,0.896,0.074,1.74,0.251,2.227c-0.098,0.342-0.51-0.27-0.396,0.707
				c0.132,1.381,0.495-0.262,0.574,0.566L4.3,96.965c0.27,1.059,0.029,1.848-0.016,2.74c0.027,0.203,0.064,0.301,0.103,0.352
				c-0.151,0.949,0.343,1.99,0.228,2.707c-0.072-0.168-0.221,0.408-0.306,0.494l0.218,1.293c-0.094-0.572-0.295-0.547-0.491-0.652
				c0.021,0.404,0.132,0.596,0.157,0.869c-0.07-0.168-0.145-0.336-0.234-0.123L4.294,106c0.033-0.078,0.047-0.236,0.055-0.365
				c0.002,0.338,0.13,1.072-0.035,1.557c-0.078-0.043-0.15-0.209-0.23-0.252c0.225-0.406,0.035-0.637-0.117-0.85
				c0.035,0.936-0.051,0.234-0.193,0.684c0.008,0.66,0.275,0.932,0.443,0.758c-0.076,0.746-0.129,0.982,0.075,1.742l-0.274-0.143
				l0.086,0.697l-0.334-0.564c-0.188,1.34,0.471,0.246,0.314,1.736l-0.24,0.002c0.092,0.574,0.5,0.771,0.211,1.217
				c0.145,0.557,0.34-0.951,0.389,0.355c-0.125,0.23-0.215,0.727-0.264,1.102c0.109,0.418,0.285-0.316,0.252-0.584
				c0.114,1.973-0.824,1.225-0.506,2.986c0.172-0.604,0.466,0.504,0.459-0.924c0.143,0.682-0.35,1.344-0.088,2.053l-0.307-0.461
				c-0.006,0.256,0.105,0.543,0.143,0.682l-0.236-0.057c0.416,0.879-0.197,1.635,0.348,2.156c-0.43-0.363,0.023,0.656-0.143,1.006
				c-0.303-0.723,0.008-2.074-0.389-2.17c-0.119,0.336,0.074,0.637-0.043,0.963c-0.058-0.227-0.163-0.559-0.242-0.645
				c-0.227,1.111,0.238,1.744,0.342,2.42l-0.092-1.191c0.396,0.096,0.068,0.537,0.379,0.871c-0.213,0.596,0.096,1.061-0.037,1.547
				c0.004-0.129-0.035-0.139-0.033-0.268c0.01,1.299-0.637,1.66-0.646,2.176c-0.052,0.508,0.164,1.467,0.332,1.119
				c0.109,0.416-0.119-1.723,0.395-0.982c-0.594,0.742,0.223,1.523-0.184,3.141c-0.211-0.709-0.334,0.414-0.492-0.217
				c0.047,0.77,0.137,0.799,0.303,1.141l-0.185,0.232c0.415,1.006,0.368,0.236,0.589,1.758c-0.145-0.51-0.268,0.611-0.398,0.223
				c-0.014,0.422,0.043,0.834,0.154,1.143l-0.025-0.057c0.095,1.541-0.234,1.262-0.027,2.666l0.111-0.141
				c0.301,1.838,0.105,4.162,0.245,6.066l0.091-0.672c-0.057,0.205,0.178,1.283,0.004,1.875c-0.012-0.117-0.061-0.322-0.047-0.434
				c-0.125,0.018-0.311,0.248-0.342,0.705l0.191,0.176l-0.148,0.186c-0.004,0.697,0.273-0.205,0.271,0.492
				c-0.549,0.406-0.074,3.002-0.555,3.604c0.395,0.473,0.057-1.32,0.416-0.801c-0.061,0.213-0.135,0.309-0.166,0.762l0.236-0.156
				c-0.135,2.109-0.336,2.914-0.287,4.791l-0.051-0.076c-0.092,0.67-0.049,1.029,0.156,1.328c-0.111,0.139-0.168-0.344-0.266-0.082
				c0.607,1.178-0.445,2.354-0.021,3.07c-0.479-0.094-0.935,1.445-1.309,0.803l0.058,0.484c-0.317-0.16-0.008-1.516-0.339-1.793
				l0.331-1.521c-0.119,0.049-0.296-0.203-0.336,0.041c-0.006-0.375-0.023-0.703-0.194-0.211c0.805-3.637,0.026-7.375,0.454-10.955
				c-0.028-0.242-0.139-0.104-0.213-0.01c0.305-0.66-0.159-0.631-0.203-0.992l0.44-0.965c-0.131-0.393-0.266-0.086-0.354-0.115
				c-0.088-1.826,0.341-3.607,0.081-5.088c0.157-0.471,0.354,0.113,0.408-0.508c-0.455,0.844-0.214-1.811-0.533-1.273
				c0.482-0.602,0.103-2.238,0.773-1.965c0.04-0.744-0.285-0.617-0.346-0.402c0.026-0.863,0.029-1.561-0.181-2.266
				c0.156-0.475-0.167-3.945,0.337-4.717c-0.327,0.523-0.169-0.041-0.312-0.545l-0.289,0.455l0.031-1.137
				c-0.027-0.232-0.016-0.297,0.01-0.297c0.014-0.193,0.167,0.045,0.241-0.443c0.018-0.775-0.141-0.812-0.291-1.238l-0.042,0.119
				l-0.027-0.525c0.009-0.387,0.286,1.367,0.436,0.105c-0.08-0.02-0.461-0.76-0.254-1.098c-0.015,0.643,0.187,0.562,0.271,0.326
				l0.021-0.904l-0.365,0.299c0.02-2.588,0.279-5.281,0.257-8.045c0.32,0.039,0.017-1.957,0.487-1.707l-0.045,0.105
				c0.047,0.68,0.372-0.195,0.319-0.748c-0.15,0.578-0.472-1.035-0.542,0.367l-0.223-1.084c-0.901-0.602,0.077-2.896-0.214-4.539
				c0.034,0.115,0.083,0.145,0.11,0.16c-0.289-1.463,0.244-3.279,0.1-3.617l0.248-0.131c-0.38-1.248-0.413-1.396-0.259-2.889
				c0.04,0.021,0.111,0.193,0.163-0.043c-0.184-0.359-0.366-0.719-0.315-1.74L2.11,94.89l-0.042-1.594
				c0.765,0.012-0.467-2.736,0.362-3.215c-0.223-0.312-0.293-1.48-0.4-1.998c0.033-0.003,0.067-0.037,0.103-0.123
				c-0.411-0.613,0.128-1.77,0.082-2.447c-0.098-0.443-0.228-0.252-0.358-0.059c0.325-0.875-0.363-2.418-0.225-2.736
				c0.031-0.642,0.293-0.239,0.462-0.416c-0.073-0.953-0.691,0.16-0.387-1.119c0.033,0.149,0.06,0.424,0.105,0.318
				c0.064-0.49,0.942-1.363,0.766-1.85l-0.137,0.322c-0.197-0.893,0.622-2.108,0.107-2.252l-0.24,0.084
				c0.317-1.535-0.094-0.65,0.185-2.206l0.04,0.019c-0.046-0.679,0.252-1.046-0.132-1.379l-0.052,0.233
				c-0.03-0.841-0.001-0.916,0.018-1.774c-0.037-0.1-0.095-0.515-0.015-0.634c-0.318-0.039-0.146-1.991-0.127-2.373
				c0.047,0.679,0.183,0.357,0.313,0.165c-0.261-0.401-0.288-0.677-0.1-1.231c-0.397-0.08-0.822-0.189-0.846-1.282
				c0.061,0.169,0.094,0.435,0.176,0.326c0.082-0.111-0.008-0.365-0.038-0.451c0.082-0.109,0.146,0.242,0.283,0.119
				c-0.38-0.738-0.025-1.275-0.161-2.346c0.119,0.34,0.198,0.048,0.336-0.075c-0.452-0.083,0.392-1.464-0.192-1.058
				c0.351-2.096,0.026-5.321,0.403-6.137c0.163-0.221-0.103-0.805-0.109-1.169l0.198,0.049c-0.359-1.021-0.134-0.795-0.496-1.996
				c0.236,0.498,0.344,0.29,0.53-0.211l-0.411-0.824l0.306-0.16c-0.12-0.339-0.071-0.716-0.022-1.094
				c0.003,0.182,0.03,0.083,0.085,0.072c-0.425-0.181-0.375-1.655-0.577-1.884c0.415-0.369-0.105-0.987,0.284-1.257
				c-0.059-0.121-0.106-0.278-0.145-0.448c-0.182,0.176-0.384,0.242-0.295-0.091c-0.002-0.029-0.004-0.05-0.007-0.078l0.241-0.145
				c-0.057-0.339-0.084-0.684-0.089-0.911c-0.021,0.103-0.065,0.221-0.12,0.345c0.041-0.141,0.082-0.279,0.12-0.411
				c0.001-0.046,0.002-0.091,0.002-0.122c0.007,0.021,0.012,0.046,0.012,0.073c0.056-0.208,0.084-0.42,0.003-0.716
				c0.369-1.186-0.506-2.636,0.001-3.944c-0.052,0.197-0.075,0.474,0.011,0.548c-0.022-1.094,0.32-2.18,0.137-2.872l-0.224,0.05
				c-0.103-0.803-0.173-1.423-0.161-2.069l-0.252-0.035c0.093-0.94-0.316-2.955,0.207-3.531c-0.202-0.229,0.06-1.299-0.008-1.833
				l0.194-0.135c0.063-0.696-0.006-1.126-0.062-1.541c0.405-1.412,0.005-2.72,0.034-3.955l0.056-0.012l-0.139-1.252
				c0.176,0.329-0.122-0.247-0.073-0.623c-0.095-0.398-0.044-1.045,0.082-1.515l0.01-0.798c0.131,0.887,0.28-0.063,0.504-0.114
				l-0.18-0.51c0.108-0.205,0.176,0.329,0.225-0.047c-0.121-0.342-0.113-1.35-0.345-1.665c-0.056,0.049-0.11,0.171-0.154,0.323
				C1.78,21.26,1.776,21.258,1.76,21.23l-0.011,0.035c0.002-0.016,0.004-0.024,0.007-0.043c-0.021-0.043-0.06-0.11-0.089-0.139
				c0.049-0.634-0.042-0.402-0.144-0.379c0.351-0.722,0.114-1.124,0.525-1.675c-0.463,0.748-0.003-1.651-0.444-1.186
				c0.354-0.537,0.018-0.367,0.32-0.711c-0.097,0.755,0.228,1.508,0.383,2.115l0.212-0.598c0.401,0.39-0.149,1.342-0.014,1.698
				c-0.093-0.239,0-0.778,0.089-0.797l-0.306,0.161c-0.123,0.853,0.117,1.532,0.27,2.137c0.101-0.571,0.184,0.693,0.401,0.279
				l-0.037-0.452c0.107-0.207,0.201,0.23,0.291,0.485c-0.222,1.427-0.027,4.041-0.269,4.552c0.078-0.292,0.01-0.828-0.079-1.082
				L2.737,26.3c-0.012-0.544,0.262-0.973,0.159-1.776c-0.193,0.135-0.459-0.447-0.729,0.163c-0.304,1.536,0.506,1.262,0.433,3.112
				c0.06,0.171-0.317-0.387-0.213,0.598c0.195,1.24,0.638,2.148,1.059,2.146c-0.123-0.522-0.371-1.565-0.064-1.726
				c0.123,0.521,0.199,1.421,0.396,1.467c-0.354,0.539-0.105-0.984-0.4-0.276c0.009,0.366,0.123,0.523,0.185,0.693
				c-0.147-0.244-0.247,0.328-0.329,0.437c-0.004,1.187-0.158,1.869-0.188,3.14c-0.052,0.067-0.165,0.208-0.251,0.171
				c0.098,0.621,0.627,1.507,0.847,1.275c0.015,0.729-0.153,0.767-0.056,1.387c0.316-0.989-0.053,0.194,0.288,0.301
				c0.042,0.634-0.164,0.221-0.243,0.513c0.037,0.106,0.15,0.359,0.242,0.375c-0.258,0.39-0.674-0.754-0.975-0.296
				c-0.19,0.317-0.531,1.678-0.557,1.775c0.289,0.302,1.475,0.214,1.858-0.239c0.199,0.048-0.211,0.6-0.232,0.878
				c-0.322,0.805,0.25,1.229,0.124,1.898l-0.18-0.51c-0.082,0.11,0.022,1.097,0.138,1.252c-0.111,0.025-0.576-0.51-0.709-0.204
				c-0.059,1.203,0.559,2.345,0.895,2.269l-0.35-1.845c0.281-0.064,0.281,1.311,0.617,1.234l-0.1,1.699
				c-0.008-0.216-0.088-0.871-0.242-0.613c0.016,0.73-0.049,0.378-0.18,0.865c-0.354-0.836-1.266-2.368-1.699-2.914l0.188,0.876
				l-0.165,0.219c0.222,1.142,1.319,2.174,1.607,2.475c-0.071,0.658-0.67,0.428-0.786,0.271c-0.029,1.292,0.848,1.275,0.762,2.577
				l0.131-0.488c0.055,0.307-0.066,1.423,0.045,1.304c-0.16,0.258-0.534,0.495-0.635,0.207l0.562,1.153
				c-0.06-0.169-0.54-0.059-0.624-0.13c-0.02,0.462,0.553,0.789,0.632,0.495c-0.347,0.904-0.157,0.68-0.563,1.413
				c0.033,0.267,0.51-0.024,0.561-0.22c0.129,0.604,0.068,0.959,0.016,1.245c-0.205-0.998-1.076-0.271-1.441-0.461l1.431,2.148
				c-0.086-0.073-0.543-0.243-0.598-0.23c0.424,0.18,0.48,2.64,0.421,3.844l-0.005-0.181c-0.146-0.244-0.264,0.792-0.114,1.216
				c-0.085-0.071-0.06-0.17-0.063-0.352c-0.322,0.805,0.645,1.044,0.268,1.864c0.041-0.743-0.131-0.889-0.299-0.851
				c0.152,0.608-0.014,2.019,0.486,1.724C3.99,64.058,4.053,64.409,3.8,64.375l0.299,1.497c-0.051-0.111-0.199-0.208-0.234,0.231
				c0.066-0.84-0.4-1.651-0.072-2.093c-0.309-0.021-0.475,0.293-0.736-0.108c0.146,1.619,0.676,2.505,1.034,3.525l-0.224,1.425
				l0.143,0.06L3.651,69.16c0.082,0.178,0.152,0.292,0.119,0.329c-0.031,0.033-0.078-0.013-0.132-0.083
				c0.018,0.15,0.05,0.287,0.087,0.358c-0.188,0.056-0.402-0.196-0.598-0.465c0.066-0.13,0.133-0.264,0.197-0.392
				c-0.178-0.28-0.363-0.481-0.481-0.092c0.022,0.059,0.049,0.128,0.077,0.201c-0.134-0.179-0.244-0.289-0.296-0.158l0.171,1.089
				c0.049-0.123,0.15-0.308,0.266-0.524c0.233,0.682,0.518,1.461,0.758,0.852l-0.21,0.83c0.354,0.974,0.281,0.805,0.545,1.991
				c-0.125,0.066-0.23-0.25-0.32-0.037c0.4,0.865-0.469,2.111-0.115,2.301c0.086,0.698,0.308,0.291,0.406,0.734
				c-0.039-0.021-0.117-0.062-0.125,0.067l0.256,0.527c-0.09,0.213-0.176-0.486-0.287,0.109c0.191,1.017,0.322,1.615,0.199,2.465
				c0.061,1.21,0.51-0.519,0.459,0.504c-0.211,0.15-0.457,0.282-0.488,0.922c0.143,0.337,0.307,0.291,0.398,0.863l-0.32-0.035
				c0.016,0.529,0.074,0.953-0.168,0.957c0.137,0.434,0.113,0.732,0.062,0.959c0.169,0.803,0.649-0.592,0.774-0.779
				c-0.24,0.791-0.101,1.336-0.486,1.788l-0.086-0.7c-0.396,1.494,0.453,1.416-0.225,2.107c0.025-0.512-0.146-1.125-0.322-0.822
				l0.164,0.74c-0.084,0.087-0.059-0.424-0.156-0.084c0.07,0.211,0.234,0.643,0.342,0.834l-0.02-0.01l0.055,1.338
				c0.012-0.254-0.105-0.316-0.119-0.061L4.2,88.659c-0.08-0.269-0.18,0.007-0.232,0.401c-0.096,1.129,0.721,0.902,0.396,1.779
				c0.006-0.127-0.035-0.148-0.027-0.277l-0.143,0.451c0.678,0.094,0.068,2.656,0.748,2.752c-0.275,0.643-0.164,0.047-0.485-0.779
				L4.262,93.67C4.237,93.392,4.288,93.16,4.222,92.863z M4.171,84.189c0.143-0.145-0.014-0.541-0.064-0.738
				C4.027,83.788,3.895,83.963,4.171,84.189z M3.475,68.549c0.092-0.256,0.131-0.484,0.051-0.631
				C3.464,68.151,3.456,68.363,3.475,68.549z M1.859,24.665l-0.012-0.021C1.8,24.951,1.764,25.107,1.859,24.665z M1.899,24.184
				c0.017-0.234,0.013-0.44-0.048-0.504c0.034-0.039,0.067-0.045,0.1,0.047C2.005,24.002,1.962,24.119,1.899,24.184z M2.11,122.043
				l-0.063,0.178C2.116,122.334,2.179,122.447,2.11,122.043z"/>
			<path fill="#8A8B8B" d="M3.855,69.678c-0.04,0.056-0.085,0.071-0.13,0.085C3.765,69.841,3.811,69.843,3.855,69.678z"/>
			<path fill="#8A8B8B" d="M4.389,100.025l-0.003,0.031c0.015,0.016,0.028,0.025,0.044,0.031L4.389,100.025z"/>
			<path fill="#8A8B8B" d="M3.997,37.935c-0.035,0.188-0.08,0.293-0.125,0.363C3.93,38.309,3.981,38.223,3.997,37.935z"/>
			<path fill="#8A8B8B" d="M1.541,18.867l0.062,0.587c-0.012-0.285,0.041-0.386,0.079-0.529C1.627,18.939,1.545,19.051,1.541,18.867
				z"/>
			<path fill="#8A8B8B" d="M3.034,13.768c-0.03-0.086-0.003-0.183-0.033-0.268l-0.112,0.024C2.896,13.89,2.987,14.146,3.034,13.768z
				"/>
			<path fill="#8A8B8B" d="M2.342,18.323c0.204-0.047,0.135-0.416,0.097-0.827v0.073C2.156,17.448,2.249,17.887,2.342,18.323z"/>
			<path fill="#8A8B8B" d="M2.432,17.401c-0.009-0.126-0.015-0.257-0.005-0.381C2.314,16.972,2.404,17.175,2.432,17.401z"/>
			<path fill="#8A8B8B" d="M1.817,22.564c0.052-0.195-0.259-0.122-0.177-0.233C1.382,22.113,1.952,23.633,1.817,22.564z"/>
			<polygon fill="#8A8B8B" points="3.01,17.99 2.76,18.137 2.963,18.368 			"/>
			<path fill="#8A8B8B" d="M2.826,21.239l0.071-0.657c-0.042,0.01-0.067-0.074-0.086-0.176C2.803,20.811,2.753,21.255,2.826,21.239z
				"/>
			<path fill="#8A8B8B" d="M2.811,20.406c0.006-0.211,0-0.412-0.041-0.53C2.773,19.991,2.78,20.236,2.811,20.406z"/>
			<polygon fill="#8A8B8B" points="3.087,18.889 3.034,19.083 3.016,19.548 			"/>
			<path fill="#8A8B8B" d="M2.78,28.308l0.071,0.717c0.086,0.073,0.139-0.123,0.104-0.39C2.895,28.464,2.862,28.198,2.78,28.308z"/>
			<path fill="#8A8B8B" d="M3.466,26.137c-0.053,0.195-0.108,0.208-0.191,0.316l0.311,0.022L3.466,26.137z"/>
			<path fill="#8A8B8B" d="M3.538,28.231c0.086,0.072,0.247,1.041,0.228,0.131C3.68,28.29,3.608,27.571,3.538,28.231z"/>
			<polygon fill="#8A8B8B" points="3.145,39.044 3.141,38.861 2.632,38.888 			"/>
			<path fill="#8A8B8B" d="M4.364,48.574c0.121-0.85-0.316-0.202-0.164-0.97c-0.119-0.199-0.123,0.628-0.227,0.423
				C4.1,48.541,4.028,48.811,4.364,48.574z"/>
			<path fill="#8A8B8B" d="M3.973,48.028c-0.021-0.082-0.045-0.169-0.078-0.262C3.927,47.914,3.95,47.985,3.973,48.028z"/>
			<polygon fill="#8A8B8B" points="1.788,155.609 1.682,156.156 1.853,155.804 			"/>
			<path fill="#8A8B8B" d="M2.166,156.66l-0.326,0.129l0.294,0.328C2.12,156.994,2.092,156.754,2.166,156.66z"/>
			<path fill="#8A8B8B" d="M4.76,81.932L4.682,81.89c-0.084,0.084-0.091,0.212-0.104,0.469L4.76,81.932z"/>
			<polygon fill="#8A8B8B" points="4.516,89.348 4.524,89.22 4.231,89.459 			"/>
			<path fill="#8A8B8B" d="M4.891,95.574c0.014-0.254-0.053-0.555-0.041-0.809C4.905,95.32,4.526,95.642,4.891,95.574z"/>
		</g>
	</g>
</g>
<g>
	<g>
		<g>
			<path fill="#8A8B8B" d="M4.063,154.915c-0.019,0.244,0.191,0.158,0.229,0.193C4.246,154.7,4.01,154.927,4.063,154.915z"/>
			<polygon fill="#8A8B8B" points="3.588,150.895 3.674,150.966 3.464,150.374 			"/>
			<path fill="#8A8B8B" d="M3.592,147.134c-0.356,0.357,0.058,1.363-0.069,2.033l-0.081,0.111l0.287,0.303
				C3.682,148.766,3.492,147.708,3.592,147.134z"/>
			<path fill="#8A8B8B" d="M4.364,145.13c-0.14,0.123-0.12-0.434-0.045,0.467c0.018-0.041,0.025-0.057,0.036-0.084
				C4.352,145.43,4.353,145.319,4.364,145.13z"/>
			<path fill="#8A8B8B" d="M4.355,145.512C4.366,145.909,4.471,145.253,4.355,145.512L4.355,145.512z"/>
			<path fill="#8A8B8B" d="M4.276,143.682l0.123,0.523c0.082-0.109,0.101-0.574,0.161-0.402
				C4.492,143.27,4.411,143.38,4.276,143.682z"/>
			<path fill="#8A8B8B" d="M4.016,143.188l0.051,0.271C4.102,143.413,4.114,143.341,4.016,143.188z"/>
			<path fill="#8A8B8B" d="M4.178,144.034l-0.111-0.574c-0.057,0.076-0.173,0.084,0.041,0.264
				C4.002,143.675,4.103,143.79,4.178,144.034z"/>
			<path fill="#8A8B8B" d="M4.124,144.358c-0.077,0.291-0.125,0.67-0.25,0.146C3.924,145.503,4.174,145.354,4.124,144.358z"/>
			<path fill="#8A8B8B" d="M3.222,146.942l-0.104,0.393l0.119,0.338C3.178,147.503,3.334,146.919,3.222,146.942z"/>
			<path fill="#8A8B8B" d="M4.461,140.434c-0.076-0.033-0.202,0.176-0.3,0.213l0.088,0.387C4.3,140.837,4.348,140.46,4.461,140.434z
				"/>
			<path fill="#8A8B8B" d="M4.161,140.647l-0.131-0.576C4.016,140.587,4.077,140.68,4.161,140.647z"/>
			<polygon fill="#8A8B8B" points="3.619,143.096 3.893,144.042 3.616,142.913 			"/>
			<polygon fill="#8A8B8B" points="4.469,138.233 4.645,138.559 4.38,137.977 			"/>
			<path fill="#8A8B8B" d="M4.439,136.772c0.146,0.242,0.246-0.332,0.336-0.076c-0.026-0.396-0.151-0.734-0.264-1.041
				C4.575,135.979,4.558,136.325,4.439,136.772z"/>
			<path fill="#8A8B8B" d="M4.348,135.143c0.034,0.162,0.097,0.33,0.163,0.512C4.478,135.483,4.429,135.315,4.348,135.143z"/>
			<path fill="#8A8B8B" d="M4.068,139.091c0.046-0.045,0.167-0.131,0.217-0.455l-0.214,0.229
				C4.07,138.932,4.069,139.01,4.068,139.091z"/>
			<path fill="#8A8B8B" d="M4.065,138.872l0.006-0.008c0.006-0.248,0.01-0.418,0.012-0.49
				C4.081,138.436,4.075,138.587,4.065,138.872z"/>
			<path fill="#8A8B8B" d="M4.067,139.147c0-0.021,0-0.035,0.001-0.057C4.048,139.112,4.041,139.126,4.067,139.147z"/>
			<path fill="#8A8B8B" d="M3.812,141.585c-0.12-0.338-0.247-1.045-0.43-0.361C3.529,141.466,3.634,141.075,3.812,141.585z"/>
			<path fill="#8A8B8B" d="M3.8,139.428l-0.049,0.613c0.057-0.014,0.14-0.123,0.199,0.045L3.8,139.428z"/>
			<polygon fill="#8A8B8B" points="3.733,139.13 3.8,139.428 3.818,139.202 			"/>
			<path fill="#8A8B8B" d="M4.147,136.192c-0.092-0.264-0.1-0.553-0.115-0.881c-0.042,0.35-0.064,0.713-0.064,1.057
				C4.035,136.417,4.155,136.569,4.147,136.192z"/>
			<path fill="#8A8B8B" d="M4.089,137.493l-0.012-0.059C4.058,137.471,4.052,137.501,4.089,137.493z"/>
			<polygon fill="#8A8B8B" points="4.034,132.094 3.995,132.145 4.032,132.159 			"/>
			<path fill="#8A8B8B" d="M3.928,136.427c-0.041,0.264,0.011,0.42,0.076,0.57c-0.021-0.197-0.035-0.404-0.037-0.629
				C3.937,136.346,3.918,136.343,3.928,136.427z"/>
			<path fill="#8A8B8B" d="M4.249,134.247c-0.046,0.137-0.083,0.291-0.118,0.455C4.198,134.567,4.303,134.294,4.249,134.247z"/>
			<path fill="#8A8B8B" d="M4.135,137.346l0.01,0.039C4.191,137.3,4.169,137.311,4.135,137.346z"/>
			<path fill="#8A8B8B" d="M4.135,137.346c-0.031-0.135-0.084-0.242-0.131-0.35c0.018,0.162,0.04,0.309,0.072,0.438
				C4.092,137.403,4.116,137.37,4.135,137.346z"/>
			<path fill="#8A8B8B" d="M2.662,131.12c0.198,0.047,0.381,0.738,0.169,1.336c0.148,0.588,0.8,0.203,1.164-0.311
				c-0.086-0.018-0.166-0.018-0.283-0.623c-0.108,0.213-0.253,1.344-0.433,0.832c-0.102-0.801,0.071-0.656,0.175-1.045
				c-0.246,0.33-0.358-1.021-0.721-0.846l0.127,0.703C2.803,131.178,2.714,130.925,2.662,131.12z"/>
			<path fill="#8A8B8B" d="M3.974,133.3l0.024,0.248c0.035-0.283,0.114-0.486,0.27-0.861c-0.098-0.414-0.17-0.5-0.236-0.527
				l-0.027,1.225L3.974,133.3z"/>
			<path fill="#8A8B8B" d="M4,134.667c-0.216-0.195-0.306-0.793-0.54-0.426c0.015,0.729,0.181,0.512,0.273,0.947
				c-0.054-1.178,0.119,0.338,0.242-0.514c0.037,0.232,0.048,0.439,0.057,0.637c0.026-0.211,0.06-0.416,0.099-0.609l-0.014,0.027
				l0.001,0.006l-0.002-0.002c-0.028,0.051-0.045,0.068-0.029,0.01c-0.003-0.004-0.004-0.018-0.004-0.023
				C4.052,134.712,4.026,134.69,4,134.667c0.046-0.342,0.059-0.055,0.083,0.053c0.01,0.004,0.02,0.014,0.033,0.014l0.001-0.004
				l-0.118-1.182C3.969,133.798,3.975,134.112,4,134.667z"/>
			<path fill="#8A8B8B" d="M2.919,140.593c0.019-0.035,0.035-0.035,0.05-0.037C2.943,140.479,2.926,140.45,2.919,140.593z"/>
			<path fill="#8A8B8B" d="M3.05,140.108c0.029,0.086,0.116,0.156,0.094,0.436c-0.064,0.242-0.103-0.002-0.174,0.012
				c0.057,0.168,0.154,0.59,0.259,0.062L3.2,140.532c0.073-0.475,0.342-1.086,0.371-1.002C3.378,139.669,3.239,139.792,3.05,140.108
				z"/>
			<path fill="#8A8B8B" d="M3.469,137.352l-0.105-0.984l-0.187,0.502l0.113-0.025C3.246,137.403,3.384,137.284,3.469,137.352z"/>
			<polygon fill="#8A8B8B" points="4.14,131.981 4.368,132.112 4.048,131.544 			"/>
			<polygon fill="#8A8B8B" points="4.114,130.704 4.311,130.751 4.192,130.415 			"/>
			<path fill="#8A8B8B" d="M1.658,58.574l-0.056-0.29C1.62,58.422,1.638,58.509,1.658,58.574z"/>
			<path fill="#8A8B8B" d="M1.645,60.666l0.098,0.051C1.689,60.621,1.649,60.58,1.645,60.666z"/>
			<path fill="#8A8B8B" d="M4.092,99.311c0.185-0.42,0.471-0.891,0.249-0.84L4.124,98.6C4.162,98.895,4.137,99.12,4.092,99.311z"/>
			<path fill="#8A8B8B" d="M2.796,77.811L2.73,77.935c0.074,0.103,0.144,0.196,0.207,0.284C2.894,78.094,2.846,77.958,2.796,77.811z
				"/>
			<path fill="#8A8B8B" d="M1.899,77.514l0.139-0.555C1.99,77.085,1.943,77.263,1.899,77.514z"/>
			<path fill="#8A8B8B" d="M1.428,47.146l-0.221-0.337C1.209,47.337,1.32,47.104,1.428,47.146z"/>
			<path fill="#8A8B8B" d="M4.034,117.612c0.084-0.363,0.12-0.652,0.131-0.906C4.041,117.143,3.852,117.497,4.034,117.612z"/>
			<path fill="#8A8B8B" d="M3.961,59.397c-0.04-0.177-0.084-0.252-0.132-0.247C3.866,59.332,3.908,59.435,3.961,59.397z"/>
			<path fill="#8A8B8B" d="M4.164,115.657c-0.019,0.068-0.033,0.125-0.051,0.191c0.036,0.266,0.065,0.533,0.052,0.857
				C4.258,116.384,4.315,116.012,4.164,115.657z"/>
			<path fill="#8A8B8B" d="M1.608,5.701l0.026-0.094C1.604,5.599,1.603,5.64,1.608,5.701z"/>
			<path fill="#8A8B8B" d="M3.798-6.373C3.81-6.255,3.811-6.06,3.813-5.877C3.829-5.966,3.827-6.116,3.798-6.373z"/>
			<path fill="#8A8B8B" d="M4.208,125.561C4.222,125.833,4.233,125.604,4.208,125.561L4.208,125.561z"/>
			<path fill="#8A8B8B" d="M3.35,126.88c-0.024-0.059-0.056-0.102-0.105-0.109C3.298,126.794,3.331,126.831,3.35,126.88z"/>
			<path fill="#8A8B8B" d="M2.814,112.956l0.001-0.021C2.772,113.014,2.78,113.001,2.814,112.956z"/>
			<path fill="#8A8B8B" d="M4.11,125.969c0.025-0.102,0.049-0.221,0.063-0.348C4.158,125.678,4.136,125.784,4.11,125.969z"/>
			<path fill="#8A8B8B" d="M4.212,125.913c-0.008,0.096-0.014,0.168-0.021,0.238C4.227,126.186,4.25,126.155,4.212,125.913z"/>
			<path fill="#8A8B8B" d="M4.197,125.184c0.003,0.154-0.007,0.299-0.023,0.438c0.016-0.053,0.027-0.076,0.034-0.061
				C4.206,125.481,4.202,125.37,4.197,125.184z"/>
			<path fill="#8A8B8B" d="M2.189,27.907c0.006-0.018,0.012-0.036,0.02-0.058C2.119,27.576,2.134,27.696,2.189,27.907z"/>
			<polygon fill="#8A8B8B" points="1.839,92.257 1.85,92.286 1.857,92.247 			"/>
			<path fill="#8A8B8B" d="M1.677,91.282c0.27,0.414,0.236,0.65,0.18,0.965l0.626-0.322L1.677,91.282z"/>
			<path fill="#8A8B8B" d="M1.636,54.371c0.288-0.897-0.074-1.742-0.251-2.228c0.099-0.342,0.51,0.27,0.397-0.707
				c-0.132-1.379-0.496,0.262-0.575-0.567l0.352-0.601c-0.269-1.058-0.028-1.849,0.016-2.741c-0.028-0.202-0.064-0.301-0.103-0.351
				c0.152-0.95-0.343-1.99-0.228-2.708c0.072,0.168,0.222-0.409,0.306-0.495l-0.217-1.293c0.093,0.573,0.294,0.547,0.491,0.652
				c-0.021-0.404-0.132-0.595-0.158-0.869c0.071,0.167,0.145,0.337,0.234,0.123l-0.335-1.355c-0.033,0.08-0.047,0.236-0.056,0.366
				c-0.002-0.338-0.129-1.072,0.035-1.557c0.078,0.043,0.15,0.209,0.23,0.25c-0.224,0.407-0.034,0.639,0.117,0.85
				c-0.035-0.935,0.051-0.234,0.194-0.684c-0.008-0.66-0.275-0.93-0.444-0.757c0.076-0.746,0.129-0.983-0.075-1.743l0.274,0.144
				l-0.086-0.699L2.09,37.97c0.188-1.341-0.47-0.247-0.315-1.736l0.241-0.003c-0.093-0.574-0.5-0.771-0.211-1.216
				c-0.146-0.557-0.34,0.952-0.39-0.356c0.125-0.23,0.216-0.726,0.264-1.102c-0.11-0.417-0.286,0.318-0.252,0.585
				c-0.114-1.974,0.824-1.225,0.507-2.987c-0.173,0.604-0.466-0.504-0.459,0.925c-0.143-0.682,0.349-1.343,0.087-2.054l0.308,0.462
				c0.006-0.256-0.106-0.543-0.144-0.683l0.237,0.058c-0.416-0.88,0.197-1.636-0.348-2.158c0.429,0.363-0.024-0.655,0.142-1.005
				c0.303,0.723-0.008,2.074,0.388,2.17c0.12-0.337-0.074-0.638,0.043-0.963c0.058,0.227,0.164,0.558,0.243,0.645
				c0.226-1.111-0.239-1.745-0.342-2.419l0.092,1.191c-0.396-0.097-0.068-0.537-0.379-0.871c0.213-0.596-0.096-1.062,0.036-1.547
				c-0.003,0.129,0.036,0.138,0.034,0.267c-0.01-1.298,0.636-1.659,0.647-2.176c0.051-0.506-0.165-1.466-0.332-1.119
				c-0.11-0.416,0.118,1.724-0.395,0.982c0.593-0.741-0.222-1.523,0.184-3.139c0.21,0.708,0.333-0.415,0.493,0.215
				c-0.048-0.769-0.137-0.797-0.304-1.141l0.185-0.231c-0.416-1.006-0.368-0.236-0.589-1.758c0.145,0.51,0.268-0.611,0.399-0.223
				c0.013-0.421-0.043-0.833-0.155-1.142l0.026,0.056c-0.095-1.541,0.234-1.262,0.027-2.666l-0.112,0.14
				c-0.301-1.838-0.106-4.163-0.245-6.065l-0.091,0.67c0.057-0.204-0.177-1.283-0.003-1.875C1.619,5.82,1.669,6.024,1.654,6.135
				C1.779,6.119,1.966,5.888,1.996,5.43L1.805,5.254l0.148-0.185c0.003-0.696-0.274,0.205-0.271-0.492
				C2.23,4.171,1.756,1.575,2.237,0.974C1.842,0.5,2.18,2.293,1.821,1.774c0.06-0.213,0.134-0.309,0.165-0.762L1.75,1.169
				c0.135-2.11,0.337-2.915,0.287-4.792l0.051,0.076c0.092-0.668,0.049-1.029-0.155-1.328c0.11-0.139,0.167,0.343,0.265,0.083
				C1.59-5.97,2.642-7.145,2.218-7.863c0.479,0.094,0.935-1.445,1.309-0.803L3.469-9.149C3.786-8.99,3.477-7.635,3.808-7.357
				L3.477-5.835c0.119-0.048,0.296,0.202,0.336-0.042c0.006,0.375,0.023,0.705,0.194,0.211C3.202-2.028,3.981,1.709,3.553,5.29
				C3.581,5.532,3.692,5.393,3.766,5.3c-0.305,0.659,0.16,0.631,0.203,0.993l-0.44,0.965c0.132,0.391,0.266,0.085,0.354,0.114
				c0.088,1.827-0.341,3.607-0.081,5.087c-0.156,0.471-0.354-0.113-0.408,0.509c0.455-0.844,0.214,1.811,0.533,1.273
				c-0.482,0.602-0.104,2.238-0.773,1.966c-0.039,0.744,0.285,0.616,0.346,0.401c-0.025,0.864-0.029,1.56,0.181,2.266
				c-0.156,0.474,0.167,3.946-0.337,4.717c0.326-0.525,0.169,0.04,0.312,0.544l0.289-0.455l-0.031,1.138
				c0.027,0.231,0.016,0.296-0.011,0.296c-0.014,0.193-0.166-0.045-0.24,0.444c-0.018,0.774,0.141,0.811,0.291,1.237l0.043-0.119
				l0.026,0.526c-0.009,0.386-0.286-1.368-0.436-0.107c0.08,0.02,0.461,0.76,0.254,1.099c0.015-0.644-0.187-0.563-0.271-0.326
				l-0.021,0.903l0.365-0.299c-0.02,2.588-0.279,5.281-0.258,8.045c-0.32-0.039-0.016,1.956-0.486,1.706l0.045-0.105
				c-0.047-0.679-0.372,0.196-0.319,0.749c0.15-0.578,0.471,1.036,0.542-0.368l0.224,1.084c0.901,0.603-0.077,2.896,0.214,4.54
				c-0.034-0.116-0.083-0.146-0.11-0.161c0.288,1.462-0.244,3.279-0.101,3.617l-0.247,0.13c0.38,1.25,0.413,1.398,0.259,2.889
				c-0.04-0.02-0.111-0.192-0.163,0.044c0.184,0.359,0.366,0.719,0.315,1.739l-0.078-0.041l0.042,1.595
				c-0.765-0.011,0.467,2.735-0.362,3.214c0.224,0.313,0.294,1.48,0.4,1.999c-0.033,0.002-0.066,0.037-0.103,0.122
				c0.411,0.613-0.128,1.77-0.081,2.448c0.098,0.443,0.228,0.251,0.357,0.059c-0.324,0.875,0.363,2.417,0.226,2.736
				c-0.031,0.642-0.293,0.239-0.462,0.416c0.073,0.952,0.691-0.161,0.387,1.119c-0.033-0.149-0.061-0.424-0.105-0.317
				c-0.064,0.489-0.941,1.362-0.766,1.85l0.137-0.322c0.197,0.892-0.622,2.108-0.106,2.251l0.24-0.083
				c-0.317,1.535,0.094,0.65-0.185,2.207l-0.039-0.019c0.046,0.679-0.253,1.046,0.132,1.379l0.052-0.234
				c0.031,0.841,0.002,0.917-0.018,1.775c0.037,0.1,0.095,0.515,0.015,0.634c0.318,0.039,0.146,1.99,0.128,2.372
				c-0.047-0.679-0.184-0.356-0.314-0.165c0.262,0.401,0.288,0.678,0.101,1.231c0.397,0.079,0.822,0.188,0.846,1.282
				c-0.061-0.169-0.094-0.435-0.176-0.326c-0.082,0.111,0.008,0.365,0.038,0.451c-0.082,0.109-0.146-0.242-0.283-0.119
				c0.38,0.738,0.025,1.275,0.161,2.346c-0.119-0.34-0.198-0.048-0.336,0.074c0.452,0.083-0.392,1.465,0.192,1.059
				c-0.352,2.096-0.026,5.32-0.403,6.137c-0.163,0.221,0.103,0.805,0.109,1.168L3.374,90.63c0.359,1.021,0.134,0.795,0.496,1.996
				c-0.236-0.498-0.344-0.291-0.53,0.211l0.411,0.824l-0.306,0.16c0.12,0.34,0.071,0.717,0.022,1.094
				c-0.004-0.182-0.03-0.082-0.085-0.072c0.425,0.182,0.375,1.656,0.577,1.885c-0.414,0.369,0.105,0.986-0.283,1.256
				c0.059,0.121,0.105,0.279,0.145,0.449c0.182-0.178,0.385-0.242,0.295,0.09c0.003,0.029,0.005,0.051,0.008,0.078l-0.241,0.145
				c0.057,0.338,0.084,0.684,0.089,0.912c0.021-0.104,0.065-0.223,0.12-0.346c-0.041,0.141-0.081,0.279-0.12,0.41
				c0,0.047-0.002,0.092-0.002,0.121c-0.007-0.021-0.012-0.045-0.012-0.072c-0.057,0.207-0.084,0.42-0.003,0.717
				c-0.369,1.186,0.506,2.635-0.001,3.943c0.053-0.197,0.075-0.475-0.011-0.549c0.022,1.094-0.32,2.18-0.137,2.871l0.224-0.049
				c0.104,0.803,0.174,1.424,0.161,2.07l0.253,0.033c-0.094,0.941,0.315,2.955-0.207,3.531c0.202,0.23-0.06,1.299,0.008,1.834
				l-0.194,0.135c-0.063,0.695,0.006,1.127,0.062,1.541c-0.405,1.412-0.005,2.721-0.034,3.955l-0.056,0.012l0.14,1.252
				c-0.177-0.328,0.121,0.248,0.072,0.623c0.095,0.398,0.044,1.045-0.082,1.516l-0.01,0.797c-0.131-0.887-0.279,0.064-0.504,0.115
				l0.18,0.51c-0.107,0.205-0.176-0.33-0.225,0.047c0.121,0.342,0.113,1.35,0.346,1.664c0.056-0.049,0.109-0.17,0.153-0.322
				c-0.015-0.043-0.011-0.041,0.005-0.012l0.012-0.035c-0.004,0.016-0.004,0.023-0.008,0.043c0.021,0.043,0.06,0.109,0.089,0.139
				c-0.049,0.633,0.042,0.402,0.144,0.379c-0.351,0.721-0.113,1.123-0.524,1.674c0.463-0.748,0.003,1.65,0.444,1.186
				c-0.354,0.537-0.018,0.367-0.32,0.711c0.098-0.756-0.228-1.508-0.383-2.115l-0.212,0.598c-0.401-0.389,0.149-1.342,0.014-1.697
				c0.093,0.24,0,0.779-0.089,0.799l0.307-0.162c0.123-0.854-0.117-1.531-0.27-2.137c-0.102,0.57-0.185-0.693-0.401-0.279
				l0.037,0.453c-0.107,0.207-0.201-0.23-0.291-0.486c0.223-1.426,0.027-4.041,0.27-4.551c-0.078,0.291-0.01,0.826,0.079,1.082
				l0.127-0.67c0.012,0.543-0.262,0.973-0.159,1.775c0.193-0.135,0.46,0.447,0.729-0.162c0.304-1.537-0.507-1.262-0.433-3.111
				c-0.061-0.172,0.317,0.387,0.213-0.6c-0.195-1.238-0.638-2.146-1.059-2.145c0.124,0.521,0.372,1.564,0.065,1.725
				c-0.124-0.52-0.199-1.42-0.396-1.467c0.354-0.539,0.104,0.984,0.399,0.277c-0.008-0.365-0.123-0.523-0.184-0.693
				c0.147,0.244,0.247-0.328,0.329-0.438c0.004-1.186,0.159-1.869,0.189-3.141c0.052-0.066,0.165-0.207,0.251-0.17
				c-0.098-0.621-0.627-1.508-0.847-1.275c-0.015-0.729,0.153-0.768,0.055-1.387c-0.316,0.988,0.053-0.195-0.288-0.301
				c-0.042-0.635,0.164-0.221,0.243-0.514c-0.037-0.105-0.15-0.357-0.242-0.373c0.259-0.391,0.675,0.754,0.975,0.295
				c0.19-0.316,0.531-1.678,0.557-1.775c-0.289-0.301-1.475-0.213-1.858,0.24c-0.199-0.049,0.212-0.6,0.233-0.879
				c0.322-0.805-0.251-1.229-0.125-1.896l0.18,0.51c0.082-0.111-0.023-1.098-0.138-1.254c0.111-0.025,0.576,0.51,0.71,0.205
				c0.059-1.203-0.56-2.346-0.896-2.27l0.35,1.844c-0.281,0.064-0.281-1.311-0.617-1.234l0.1-1.699
				c0.009,0.217,0.088,0.871,0.243,0.613c-0.016-0.729,0.049-0.377,0.179-0.865c0.354,0.838,1.267,2.369,1.7,2.914l-0.188-0.877
				l0.164-0.219c-0.222-1.143-1.318-2.174-1.607-2.475c0.071-0.658,0.67-0.428,0.787-0.271c0.028-1.291-0.848-1.275-0.762-2.576
				l-0.13,0.488c-0.056-0.307,0.065-1.424-0.045-1.305c0.159-0.258,0.534-0.494,0.635-0.207L1.87,95.091
				c0.06,0.17,0.54,0.059,0.625,0.131c0.019-0.463-0.554-0.789-0.632-0.496c0.346-0.904,0.158-0.68,0.564-1.412
				c-0.033-0.268-0.51,0.023-0.561,0.219c-0.13-0.604-0.068-0.959-0.016-1.246c0.205,0.998,1.075,0.273,1.44,0.463L1.86,90.6
				c0.086,0.072,0.543,0.242,0.598,0.23c-0.425-0.18-0.48-2.641-0.421-3.844l0.004,0.18c0.146,0.244,0.264-0.792,0.115-1.216
				c0.085,0.071,0.06,0.171,0.064,0.352c0.321-0.805-0.645-1.044-0.268-1.864c-0.041,0.743,0.131,0.89,0.299,0.852
				c-0.152-0.608,0.014-2.02-0.487-1.725c0.105-0.391,0.042-0.741,0.295-0.707L1.76,81.362c0.051,0.111,0.198,0.207,0.234-0.23
				c-0.067,0.839,0.4,1.65,0.073,2.092c0.309,0.021,0.475-0.293,0.736,0.108c-0.147-1.618-0.676-2.505-1.035-3.525l0.223-1.425
				L1.85,78.321l0.356-0.248c-0.082-0.178-0.152-0.291-0.119-0.328c0.032-0.033,0.079,0.012,0.132,0.083
				c-0.018-0.15-0.049-0.287-0.086-0.358c0.188-0.055,0.402,0.196,0.597,0.466c-0.066,0.13-0.133,0.264-0.197,0.392
				c0.178,0.28,0.363,0.482,0.481,0.093c-0.022-0.06-0.049-0.128-0.077-0.2c0.134,0.179,0.243,0.288,0.296,0.157l-0.171-1.089
				c-0.049,0.123-0.15,0.309-0.266,0.523C2.562,77.13,2.279,76.35,2.038,76.96l0.21-0.83c-0.354-0.975-0.282-0.805-0.545-1.991
				c0.124-0.065,0.23,0.25,0.32,0.038c-0.4-0.865,0.468-2.111,0.115-2.301c-0.086-0.698-0.308-0.291-0.406-0.734
				c0.039,0.021,0.117,0.062,0.124-0.067l-0.256-0.528c0.091-0.213,0.177,0.486,0.287-0.109c-0.191-1.017-0.321-1.615-0.199-2.465
				c-0.061-1.21-0.509,0.519-0.458-0.504c0.21-0.15,0.456-0.282,0.488-0.921c-0.144-0.337-0.307-0.292-0.399-0.865l0.32,0.036
				c-0.015-0.53-0.073-0.953,0.168-0.958c-0.137-0.433-0.112-0.731-0.061-0.959c-0.169-0.803-0.649,0.592-0.774,0.779
				c0.24-0.791,0.101-1.336,0.486-1.788l0.086,0.7C1.941,62,1.092,62.078,1.77,61.386c-0.026,0.511,0.146,1.125,0.321,0.823
				l-0.164-0.74c0.084-0.087,0.059,0.423,0.156,0.083c-0.07-0.21-0.233-0.643-0.341-0.835l0.02,0.011L1.708,59.39
				c-0.013,0.254,0.105,0.317,0.119,0.061l-0.168-0.876c0.081,0.268,0.179-0.006,0.232-0.401c0.096-1.129-0.72-0.903-0.396-1.78
				c-0.006,0.128,0.034,0.148,0.027,0.277l0.143-0.451c-0.679-0.095-0.069-2.657-0.748-2.753c0.274-0.642,0.164-0.045,0.485,0.78
				l0.194-0.684C1.622,53.842,1.57,54.074,1.636,54.371z M1.687,63.045c-0.143,0.145,0.014,0.54,0.064,0.738
				C1.831,63.446,1.964,63.27,1.687,63.045z M2.384,78.684c-0.092,0.257-0.131,0.484-0.051,0.633
				C2.394,79.083,2.403,78.872,2.384,78.684z M4,122.569l0.013,0.021C4.058,122.282,4.094,122.128,4,122.569z M3.96,123.05
				c-0.017,0.234-0.013,0.439,0.049,0.504c-0.034,0.039-0.067,0.045-0.101-0.047C3.853,123.231,3.897,123.114,3.96,123.05z
				 M3.749,25.191l0.063-0.179C3.743,24.9,3.679,24.787,3.749,25.191z"/>
			<path fill="#8A8B8B" d="M2.003,77.555c0.04-0.057,0.085-0.072,0.13-0.086C2.093,77.392,2.047,77.39,2.003,77.555z"/>
			<path fill="#8A8B8B" d="M1.469,47.209l0.002-0.031c-0.014-0.017-0.029-0.026-0.043-0.032L1.469,47.209z"/>
			<path fill="#8A8B8B" d="M1.862,109.3c0.035-0.189,0.079-0.295,0.124-0.363C1.927,108.925,1.878,109.01,1.862,109.3z"/>
			<path fill="#8A8B8B" d="M4.317,128.366l-0.062-0.588c0.012,0.285-0.041,0.387-0.079,0.531
				C4.231,128.296,4.313,128.182,4.317,128.366z"/>
			<path fill="#8A8B8B" d="M2.824,133.466c0.03,0.086,0.003,0.184,0.033,0.268l0.112-0.023
				C2.963,133.343,2.872,133.089,2.824,133.466z"/>
			<path fill="#8A8B8B" d="M3.516,128.911c-0.204,0.047-0.135,0.416-0.098,0.826v-0.072C3.703,129.786,3.609,129.346,3.516,128.911z
				"/>
			<path fill="#8A8B8B" d="M3.427,129.833c0.009,0.127,0.015,0.256,0.004,0.381C3.545,130.26,3.455,130.059,3.427,129.833z"/>
			<path fill="#8A8B8B" d="M4.042,124.671c-0.053,0.195,0.26,0.121,0.177,0.232C4.477,125.12,3.906,123.6,4.042,124.671z"/>
			<polygon fill="#8A8B8B" points="2.848,129.243 3.098,129.096 2.895,128.866 			"/>
			<path fill="#8A8B8B" d="M3.032,125.995l-0.071,0.656c0.042-0.01,0.067,0.074,0.086,0.176
				C3.055,126.423,3.105,125.979,3.032,125.995z"/>
			<path fill="#8A8B8B" d="M3.048,126.827c-0.006,0.213,0,0.412,0.041,0.531C3.086,127.243,3.079,126.999,3.048,126.827z"/>
			<polygon fill="#8A8B8B" points="2.772,128.344 2.824,128.151 2.843,127.686 			"/>
			<path fill="#8A8B8B" d="M3.079,118.927l-0.071-0.719c-0.086-0.072-0.139,0.123-0.104,0.391
				C2.963,118.77,2.996,119.036,3.079,118.927z"/>
			<path fill="#8A8B8B" d="M2.393,121.096c0.052-0.195,0.108-0.207,0.19-0.316l-0.311-0.021L2.393,121.096z"/>
			<path fill="#8A8B8B" d="M2.321,119.003c-0.086-0.072-0.248-1.041-0.228-0.131C2.178,118.944,2.25,119.663,2.321,119.003z"/>
			<polygon fill="#8A8B8B" points="2.714,108.19 2.718,108.372 3.227,108.346 			"/>
			<path fill="#8A8B8B" d="M1.495,98.659c-0.122,0.85,0.315,0.201,0.163,0.971c0.12,0.199,0.124-0.629,0.228-0.424
				C1.759,98.692,1.83,98.423,1.495,98.659z"/>
			<path fill="#8A8B8B" d="M1.885,99.206c0.02,0.082,0.044,0.168,0.077,0.262C1.931,99.319,1.908,99.249,1.885,99.206z"/>
			<polygon fill="#8A8B8B" points="4.071,-8.377 4.177,-8.924 4.006,-8.571 			"/>
			<path fill="#8A8B8B" d="M3.692-9.427l0.326-0.128L3.724-9.884C3.738-9.76,3.766-9.52,3.692-9.427z"/>
			<path fill="#8A8B8B" d="M1.098,65.301l0.078,0.042c0.084-0.085,0.091-0.212,0.104-0.469L1.098,65.301z"/>
			<polygon fill="#8A8B8B" points="1.342,57.885 1.334,58.013 1.628,57.774 			"/>
			<path fill="#8A8B8B" d="M0.967,51.66c-0.013,0.254,0.054,0.553,0.041,0.808C0.954,51.914,1.333,51.592,0.967,51.66z"/>
		</g>
	</g>
</g>
</svg>
